<svg version="1.0" xmlns="http://www.w3.org/2000/svg" width="700pt" height="953pt"
     viewBox="0 0 700 953" preserveAspectRatio="xMidYMid meet">
    <g transform="translate(0,953) scale(0.1,-0.1)" fill="currentColor" stroke="none">
        <path d="M170 9478 c0 -29 4 -98 10 -153 5 -55 17 -192 25 -305 9 -113 20
-259 26 -325 18 -222 29 -399 39 -610 5 -115 13 -313 19 -440 34 -729 55
-1848 55 -2835 -1 -942 -11 -1324 -75 -2660 -5 -113 -13 -295 -19 -405 -14
-313 -40 -613 -80 -930 -23 -180 -91 -576 -132 -766 -2 -8 2 -13 7 -12 9 1
163 96 355 218 47 30 99 62 115 70 17 9 37 20 45 25 40 25 207 123 305 180
101 58 218 127 305 179 19 11 42 24 50 28 8 4 102 59 210 123 108 64 202 119
210 123 8 4 29 16 45 27 17 11 37 23 45 27 8 4 72 42 143 85 70 43 129 78 132
78 6 0 539 325 605 369 264 176 384 267 634 479 153 130 167 137 250 136 126
-1 197 -36 621 -304 50 -31 451 -281 470 -293 11 -7 33 -21 50 -32 16 -11 37
-24 47 -30 10 -5 126 -77 258 -160 133 -82 251 -156 263 -163 12 -7 41 -25 64
-40 23 -15 149 -94 280 -175 394 -245 735 -460 881 -555 46 -29 90 -52 99 -50
22 4 68 130 128 348 9 36 23 85 30 110 7 25 17 68 23 95 6 28 18 79 26 115 8
36 22 108 31 160 9 52 21 118 26 145 8 47 12 80 39 310 5 50 14 126 20 170 19
155 51 672 71 1121 59 1386 66 2662 25 4409 -9 369 -20 850 -26 1070 -13 568
-31 916 -57 1063 l-5 32 -354 0 -353 0 5 -82 c3 -46 9 -108 15 -138 14 -79 27
-227 39 -445 5 -104 14 -251 20 -326 5 -74 10 -259 10 -410 0 -151 5 -355 10
-454 23 -396 47 -2268 38 -2835 -10 -630 -27 -1214 -38 -1320 -5 -52 -10 -164
-10 -248 0 -84 -5 -194 -10 -245 -6 -51 -15 -189 -20 -307 -14 -298 -28 -496
-40 -553 -5 -26 -10 -76 -10 -110 0 -34 -5 -82 -11 -107 -6 -25 -15 -81 -19
-125 -9 -80 -27 -210 -36 -252 -2 -13 -11 -23 -19 -23 -12 0 -126 68 -273 162
-15 9 -37 23 -49 30 -12 7 -130 81 -263 163 -132 83 -248 155 -258 160 -10 6
-31 19 -47 30 -17 11 -39 25 -50 32 -11 6 -96 60 -190 118 -93 59 -179 112
-189 118 -11 7 -52 33 -90 58 -39 25 -118 74 -176 109 -58 36 -107 67 -110 70
-7 7 -42 29 -60 37 -8 3 -40 22 -70 42 -97 63 -102 65 -260 148 -63 33 -131
70 -150 81 -19 12 -42 25 -50 29 -8 4 -60 34 -116 68 -55 34 -107 65 -115 68
-8 4 -27 16 -44 27 -61 40 -67 39 -155 -32 -145 -117 -220 -175 -280 -215 -36
-23 -88 -62 -116 -85 -183 -154 -207 -173 -284 -231 -30 -23 -57 -45 -60 -48
-18 -21 -283 -210 -372 -264 -9 -5 -108 -67 -220 -136 -112 -69 -210 -128
-218 -132 -8 -4 -28 -16 -45 -27 -16 -11 -36 -23 -44 -27 -8 -3 -60 -34 -115
-68 -56 -34 -108 -64 -116 -68 -17 -8 -61 -34 -325 -194 -11 -7 -27 -15 -35
-19 -8 -4 -42 -24 -75 -43 -87 -52 -114 -65 -122 -58 -3 4 -1 64 6 134 6 71
11 189 11 263 0 74 5 178 10 230 6 52 15 232 20 400 6 168 17 496 26 730 21
606 29 2048 15 2755 -28 1333 -47 2018 -60 2185 -6 69 -11 188 -11 265 0 77
-7 194 -15 260 -8 65 -15 153 -15 193 0 41 -4 113 -10 161 -5 47 -15 154 -21
236 -7 83 -14 176 -16 208 l-5 57 -349 0 -349 0 0 -52z"></path>
        <path d="M1435 9503 c4 -16 11 -95 15 -178 14 -245 29 -473 40 -584 6 -58 10
-175 11 -260 0 -86 4 -208 9 -271 6 -63 14 -308 20 -545 5 -236 14 -529 20
-650 12 -283 12 -3822 0 -4060 -5 -99 -12 -239 -16 -311 -4 -77 -3 -133 2
-137 8 -4 94 42 174 93 8 5 32 20 54 32 21 13 46 28 55 33 184 116 270 175
449 304 172 124 338 259 460 372 34 33 67 59 72 59 5 0 15 6 22 13 7 7 31 26
53 42 32 24 377 293 435 338 8 7 43 33 76 59 l62 47 41 -29 c22 -17 44 -30 47
-30 4 0 21 -10 38 -23 25 -19 162 -106 251 -160 11 -7 34 -21 50 -33 24 -17
173 -110 253 -159 9 -6 43 -27 74 -48 31 -20 59 -37 62 -37 3 0 49 -27 103
-60 54 -33 107 -66 118 -73 11 -6 34 -22 52 -34 17 -13 34 -23 36 -23 3 0 41
-24 84 -53 44 -30 86 -57 94 -60 8 -4 26 -15 40 -25 33 -21 403 -253 427 -267
10 -5 32 -20 49 -32 17 -13 34 -23 37 -23 3 0 25 -13 49 -30 25 -16 49 -30 55
-30 6 0 12 -4 14 -8 3 -8 187 -122 202 -125 14 -3 35 154 36 263 0 52 7 167
15 255 8 88 15 219 15 290 0 72 5 180 11 240 12 132 26 556 38 1216 12 609
-12 2405 -39 2969 -5 118 -10 303 -10 410 0 107 -5 247 -11 310 -5 63 -14 176
-19 250 -6 74 -17 189 -25 255 -9 66 -20 167 -24 225 -5 58 -14 125 -20 150
-6 25 -11 71 -11 103 l0 57 -2076 0 -2076 0 7 -27z"></path>
    </g>
</svg>
