<svg class="h-5 w-5" viewBox="0 0 26 26" xmlns="http://www.w3.org/2000/svg">
    <g fill="currentColor">
        <path d="M 14.181 20.631 L 10.514 0.502 C 10.462 0.22 10.221 0.011 9.935 0 A 0.613 0.613 0 0 0 9.911 0 A 0.612 0.612 0 0 0 9.459 0.2 A 0.612 0.612 0 0 0 9.299 0.612 C 9.299 0.634 9.3 0.656 9.303 0.677 A 0.614 0.614 0 0 0 9.305 0.693 L 11.967 20.746 A 64.265 64.265 0 0 1 9.768 20.699 C 6.453 20.574 3.138 20.234 1.56 20.056 A 99.588 99.588 0 0 1 1.031 19.995 A 0.217 0.217 0 0 0 1.006 19.993 A 0.216 0.216 0 0 0 0.826 20.09 A 0.216 0.216 0 0 0 0.79 20.21 A 0.216 0.216 0 0 0 0.818 20.315 L 3.233 24.625 A 3.186 3.186 0 0 0 3.45 24.96 L 5.207 24.033 L 5.985 25.098 A 1.807 1.807 0 0 0 7.393 25.839 C 7.696 25.848 8.004 25.781 8.288 25.631 L 11.319 24.033 L 12.096 25.098 A 1.807 1.807 0 0 0 13.505 25.839 C 13.808 25.848 14.116 25.781 14.4 25.631 L 17.431 24.033 L 18.217 25.11 A 1.808 1.808 0 0 0 18.466 25.386 A 2.691 2.691 0 0 0 18.933 24.681 L 20.355 21.56 A 0.42 0.42 0 0 1 20.544 21.361 L 25.663 18.711 A 0.207 0.207 0 0 0 25.776 18.526 C 25.776 18.518 25.776 18.51 25.775 18.502 A 0.207 0.207 0 0 0 25.762 18.452 A 0.207 0.207 0 0 0 25.569 18.319 C 25.551 18.319 25.533 18.321 25.514 18.326 C 23.072 18.979 18.755 20.051 15.16 20.518 A 34.107 34.107 0 0 1 14.181 20.631 Z M 13.815 9.246 L 14.956 9.007 A 31.015 31.015 0 0 1 16.019 13.424 A 37.605 37.605 0 0 1 16.21 14.758 C 16.472 16.863 16.45 18.176 16.45 18.176 L 24.469 16.758 C 24.544 16.745 24.606 16.693 24.631 16.621 A 0.209 0.209 0 0 0 24.642 16.565 C 24.645 16.51 24.627 16.456 24.589 16.414 A 231.228 231.228 0 0 0 24.301 16.09 C 23.561 15.263 22.219 13.775 21.334 12.86 A 22.925 22.925 0 0 0 20.971 12.491 A 20.423 20.423 0 0 0 15.883 8.813 L 19.986 7.954 C 20.05 7.941 20.102 7.894 20.123 7.832 C 20.129 7.813 20.133 7.793 20.133 7.774 A 0.184 0.184 0 0 0 20.087 7.652 A 15.106 15.106 0 0 0 19.797 7.331 C 19.275 6.766 18.367 5.865 17.226 5.051 A 13.959 13.959 0 0 0 16.988 4.884 C 14.838 3.416 12.65 2.819 12.65 2.819 A 5.466 5.466 0 0 1 12.661 2.849 C 12.743 3.079 13.278 4.614 13.496 5.977 C 13.707 7.303 13.796 8.881 13.812 9.191 A 11.976 11.976 0 0 1 13.815 9.246 Z M 8.272 5.752 L 3.616 4.817 A 0.245 0.245 0 0 0 3.585 4.813 C 3.579 4.813 3.573 4.812 3.567 4.812 A 0.245 0.245 0 0 0 3.418 4.863 C 3.362 4.905 3.327 4.97 3.322 5.041 C 3.272 5.779 3.103 7.871 2.697 9.963 A 25.725 25.725 0 0 1 2.479 10.981 A 11.114 11.114 0 0 1 2.193 11.967 C 1.63 13.639 0.696 15.339 0.194 16.198 A 26.211 26.211 0 0 1 0.035 16.465 A 0.243 0.243 0 0 0 0 16.591 A 0.243 0.243 0 0 0 0.022 16.692 C 0.056 16.765 0.123 16.817 0.203 16.83 L 9.751 18.445 L 8.272 5.752 Z M 0 16.591 C 0 16.592 0 16.593 0 16.595 M 0.79 20.21 C 0.79 20.21 0.79 20.211 0.79 20.212"/>
    </g>
</svg>
