<svg class="h-5 w-5" xmlns="http://www.w3.org/2000/svg" xmlns:svg="http://www.w3.org/2000/svg" preserveAspectRatio="xMidYMid meet" version="1.0">
<g fill="currentColor" transform="matrix(0.00244174 0 0 -0.00244174 3.25137 3.78436)">
    <path d="m558.19,-280.56c-93,-13 -141,-29 -222,-72c-153,-81 -260,-189 -327,-328c-45,-95 -47,-100 -65,-177c-14,-60 -16,-362 -16,-3052c0,-2927 0,-2986 20,-3067c63,-264 251,-461 527,-552l68,-22l3040,0l3040,0l68,22c246,81 424,246 503,468c46,128 44,4 44,3150c0,2574 -2,2970 -15,3035c-37,187 -129,338 -270,443c-127,95 -212,132 -350,153c-127,19 -5914,18 -6045,-1zm1708,-2257c9,-9 12,-136 12,-512c0,-276 -4,-506 -8,-512c-5,-8 -228,-12 -767,-15l-760,-4l-3,515c-1,283 0,521 3,528c6,17 1505,18 1523,0zm2010,-502c1,-306 -2,-513 -7,-520c-7,-8 -192,-11 -673,-11l-663,0l-3,510c-1,281 0,516 3,523c3,10 143,12 672,10l668,-3l3,-509zm2140,506c10,-7 13,-114 13,-512c0,-276 -3,-506 -7,-509c-3,-3 -339,-6 -747,-6l-742,0l-3,509c-2,401 0,511 10,518c17,10 1459,10 1476,0zm6,-1661c8,-12 8,-922 1,-930c-4,-3 -335,-7 -737,-9c-536,-2 -734,1 -744,9c-19,16 -21,908 -2,927c14,14 1473,18 1482,3zm-4157,-12c20,-17 19,-901 -1,-918c-9,-8 -218,-10 -767,-9l-754,3l0,460l0,460l675,5c371,3 711,6 754,7c47,2 85,-2 93,-8zm2011,-456l-3,-468l-670,0l-670,0l-3,455c-1,250 0,461 3,468c3,9 148,12 675,12l670,0l-2,-467zm-2004,-1109c9,-23 7,-947 -2,-961c-6,-10 -176,-13 -760,-13c-414,0 -757,2 -762,5c-11,7 -14,967 -3,978c3,4 347,7 764,7c681,0 757,-2 763,-16zm2001,-479l0,-490l-670,0l-670,0l-3,493l-2,492l672,-2l673,-3l0,-490zm2150,486c3,-5 5,-224 6,-487c0,-379 -3,-479 -13,-486c-7,-4 -344,-7 -748,-5l-735,2l-3,480c-1,264 0,486 3,493c3,9 162,12 744,12c441,0 742,-4 746,-9z" id="svg_2"/>
</g>
</svg>
