<svg class="h-5 w-5" viewBox="0 0 567 594" xmlns="http://www.w3.org/2000/svg">
    <g fill="currentColor">
        <path d="m269.91 593.02c-24.25-2.3527-53.939-9.1639-76.911-17.645-29.799-11.001-64.462-31.057-86.057-49.792-33.448-29.019-56.293-57.649-74.481-93.344-15.093-29.619-23.846-57.49-29.6-94.242-1.916-12.239-2.2727-18.476-2.2879-40-0.023339-33.039 2.734-53.657 11.1-83 22.671-79.516 78.795-146.74 153.83-184.26 40.007-20.004 88.938-31.145 133.8-30.464l14.878 0.22582 2.4121 2.8058c5.1201 5.9558 2.8338 9.6877-10.202 16.653-54.325 29.027-96.755 83.01-112.88 143.62-7.0747 26.589-9.3579 59.898-6.0583 88.384 6.3304 54.65 32.83 106.25 73.937 143.98 26.713 24.514 61.929 43.6 96.86 52.493 21.242 5.4083 30.575 6.7079 52.388 7.2943 28.486 0.76584 49.778-1.8766 74.441-9.2385 20.012-5.9737 42.763-16.615 60.366-28.235 7.1391-4.7127 11.975-7.25 13.818-7.25 3.387 0 7.7442 3.9734 7.7442 7.0621 0 3.3096-13.576 29.022-22.225 42.095-11.675 17.645-22.537 30.81-38.676 46.875-17.224 17.146-26.474 24.731-46.178 37.871-36.278 24.191-75.392 39.072-121.42 46.193-14.663 2.2687-53.751 3.3673-68.589 1.9278z"/>
    </g>
</svg>
