<svg version="1.0" xmlns="http://www.w3.org/2000/svg"
     width="24.000000pt" height="18.259366pt" viewBox="0 0 24.000000 18.259366"
     preserveAspectRatio="xMidYMid meet">
    <g transform="translate(0.000000,18.259366) scale(0.001153,-0.001153)"
       fill="#e0e0e0" stroke="none">
        <path d="M10185 14353 c-289 -385 -780 -1006 -1113 -1406 -995 -1197 -1975
-2203 -2878 -2958 -591 -494 -1170 -892 -1632 -1123 -270 -134 -301 -142 -487
-111 -522 85 -1219 459 -1955 1049 -342 273 -613 518 -1007 910 -161 159 -295
288 -298 285 -2 -3 22 -138 55 -300 409 -2022 714 -4258 860 -6304 34 -478 66
-1096 73 -1415 l2 -95 79 -38 c384 -187 1422 -563 2156 -782 2088 -623 4216
-945 6255 -945 1883 0 3820 268 5750 795 913 250 1900 589 2605 897 l145 63 7
65 c4 36 12 205 18 375 35 1002 160 2443 321 3715 159 1257 392 2679 618 3769
23 107 38 197 36 200 -3 3 -137 -126 -298 -285 -399 -396 -633 -608 -981 -888
-754 -608 -1455 -986 -1985 -1072 -182 -29 -214 -22 -483 112 -563 281 -1285
802 -2020 1458 -1110 989 -2270 2279 -3498 3891 -117 154 -216 284 -220 288
-4 4 -60 -63 -125 -150z m1688 -2868 c805 -885 1463 -1611 1461 -1613 -2 -3
-723 461 -2512 1617 -283 182 -515 331 -517 331 -2 0 -118 -74 -257 -163 -139
-90 -819 -529 -1512 -976 -692 -447 -1259 -811 -1260 -809 -2 2 679 754 1513
1671 l1516 1668 52 -58 c28 -32 710 -782 1516 -1668z m6931 -2855 c-63 -421
-116 -775 -119 -786 -5 -21 -6 -21 -91 13 -273 110 -738 173 -1164 159 -180
-6 -337 -18 -434 -31 -35 -5 -11 14 200 166 315 226 890 643 1349 977 204 149
371 270 371 269 1 -1 -50 -346 -112 -767z m-16329 125 c380 -276 814 -591 965
-700 274 -197 275 -198 225 -192 -175 21 -374 29 -628 24 -296 -5 -422 -17
-642 -63 -99 -21 -313 -86 -387 -119 -13 -5 -18 -3 -18 7 0 14 -213 1457 -225
1526 -5 26 -3 32 7 26 7 -4 324 -234 703 -509z"/>
    </g>
</svg>
