<svg class="h-5 w-5" viewBox="0 0 24 26" xmlns="http://www.w3.org/2000/svg">
    <g fill="currentColor">
        <path d="M 11.976 4.877 C 7.545 4.879 3.946 8.456 3.916 12.887 A 8.233 8.233 0 0 0 3.916 12.942 A 8.064 8.064 0 0 0 11.867 21.004 C 11.938 21.005 12.009 21.005 12.079 21.004 A 8.064 8.064 0 0 0 20.042 12.942 A 8.22 8.22 0 0 0 20.042 12.89 A 8.064 8.064 0 0 0 11.978 4.877 L 11.976 4.877 Z M 2.933 16.245 A 11.05 11.05 0 0 1 2.934 16.243 C 3.016 16.454 3.101 16.664 3.194 16.87 A 9.7 9.7 0 0 0 4.604 19.12 L 4.53 19.128 A 379.048 379.048 0 0 1 4.522 19.129 A 166.045 166.045 0 0 1 4.04 19.182 A 2788.041 2788.041 0 0 1 3.079 19.286 C 2.884 19.307 2.689 19.329 2.494 19.35 A 20459.822 20459.822 0 0 1 1.98 19.406 C 1.65 19.442 1.32 19.478 0.99 19.514 C 0.967 19.517 0.944 19.516 0.92 19.513 C 0.856 19.503 0.801 19.462 0.773 19.404 A 0.205 0.205 0 0 1 0.746 19.302 C 0.746 19.298 0.746 19.293 0.746 19.289 A 0.205 0.205 0 0 1 0.747 19.278 A 0.22 0.22 0 0 1 0.761 19.225 A 0.317 0.317 0 0 1 0.801 19.154 A 3319.923 3319.923 0 0 0 2.049 17.45 L 2.105 17.373 A 7282.845 7282.845 0 0 1 2.871 16.328 C 2.887 16.305 2.904 16.283 2.925 16.256 A 4.932 4.932 0 0 0 2.925 16.256 C 2.904 16.283 2.887 16.305 2.871 16.328 M 21.168 16.446 L 21.016 16.239 A 9.789 9.789 0 0 1 20.779 16.824 C 20.638 17.142 20.481 17.451 20.306 17.752 C 20.272 17.812 20.236 17.871 20.2 17.93 A 9.932 9.932 0 0 1 19.347 19.121 L 19.625 19.151 C 20.052 19.197 20.472 19.242 20.889 19.287 L 21.178 19.319 L 21.622 19.367 C 22.068 19.416 22.515 19.465 22.962 19.513 C 22.977 19.515 22.993 19.515 23.009 19.514 A 0.06 0.06 0 0 0 23.017 19.513 A 0.075 0.075 0 0 1 23.022 19.511 A 0.206 0.206 0 0 0 23.13 19.468 C 23.167 19.439 23.192 19.397 23.2 19.35 A 0.274 0.274 0 0 0 23.201 19.34 C 23.208 19.269 23.187 19.199 23.142 19.143 A 2528.883 2528.883 0 0 0 22.519 18.292 A 9943.228 9943.228 0 0 0 21.952 17.517 A 9888.827 9888.827 0 0 0 21.385 16.743 A 506.191 506.191 0 0 0 21.168 16.446 Z M 21.015 9.639 L 21.016 9.637 A 1.637 1.637 0 0 1 21.025 9.627 C 21.027 9.625 21.029 9.622 21.031 9.62 A 5.121 5.121 0 0 0 21.036 9.614 A 1.048 1.048 0 0 0 21.037 9.613 C 21.043 9.606 21.048 9.6 21.053 9.594 L 22.234 7.98 A 4232.181 4232.181 0 0 1 23.153 6.726 A 0.215 0.215 0 0 0 23.207 6.583 C 23.207 6.546 23.198 6.51 23.179 6.476 C 23.158 6.437 23.125 6.405 23.084 6.386 C 23.078 6.384 23.072 6.382 23.066 6.38 A 0.112 0.112 0 0 1 23.061 6.378 A 0.072 0.072 0 0 0 23.054 6.376 C 23.02 6.368 22.986 6.366 22.952 6.371 A 298.001 298.001 0 0 1 21.949 6.479 L 21.657 6.511 A 3113.853 3113.853 0 0 0 20.675 6.617 A 3114.174 3114.174 0 0 0 19.693 6.724 A 25.941 25.941 0 0 0 19.479 6.749 L 19.349 6.764 A 9.875 9.875 0 0 1 20.186 7.929 C 20.518 8.471 20.795 9.043 21.015 9.639 Z M 2.715 9.342 L 2.936 9.643 C 3.321 8.596 3.884 7.623 4.6 6.768 A 0.457 0.457 0 0 1 4.592 6.766 C 4.589 6.765 4.586 6.764 4.583 6.763 A 12.588 12.588 0 0 1 4.58 6.762 A 0.227 0.227 0 0 0 4.557 6.756 C 4.555 6.756 4.553 6.755 4.551 6.755 A 1796.15 1796.15 0 0 0 3.04 6.592 A 1673.032 1673.032 0 0 1 2.943 6.582 A 1645.022 1645.022 0 0 1 2.847 6.571 C 2.489 6.532 2.131 6.493 1.774 6.454 A 422.885 422.885 0 0 1 1.419 6.415 C 1.273 6.399 1.128 6.383 0.982 6.37 A 0.219 0.219 0 0 0 0.979 6.369 C 0.972 6.369 0.965 6.368 0.959 6.368 A 0.219 0.219 0 0 0 0.83 6.41 C 0.758 6.463 0.728 6.556 0.756 6.641 C 0.757 6.647 0.76 6.653 0.763 6.659 C 0.774 6.684 0.787 6.707 0.803 6.729 A 3.037 3.037 0 0 0 0.806 6.734 C 0.809 6.737 0.812 6.741 0.815 6.745 A 0.659 0.659 0 0 0 0.82 6.753 A 1165.435 1165.435 0 0 0 1.565 7.771 C 1.824 8.124 2.083 8.478 2.342 8.832 A 1438.622 1438.622 0 0 0 2.715 9.342 Z M 10.316 22.42 A 9.803 9.803 0 0 0 11.976 22.562 A 9.803 9.803 0 0 0 13.64 22.42 A 2151.839 2151.839 0 0 0 13.621 22.462 C 13.528 22.673 13.44 22.874 13.351 23.074 A 923.212 923.212 0 0 0 12.198 25.695 A 0.307 0.307 0 0 1 12.026 25.877 L 11.924 25.877 C 11.846 25.843 11.786 25.779 11.757 25.699 A 5963.623 5963.623 0 0 0 10.338 22.477 C 10.333 22.466 10.329 22.454 10.323 22.439 M 13.636 3.462 A 9.734 9.734 0 0 0 11.977 3.319 A 9.734 9.734 0 0 0 10.314 3.462 C 10.342 3.398 10.367 3.34 10.392 3.282 A 9.362 9.362 0 0 1 10.41 3.24 C 10.859 2.226 11.306 1.211 11.751 0.196 C 11.793 0.1 11.847 0.026 11.953 0 L 12.011 0 A 0.321 0.321 0 0 1 12.202 0.198 C 12.672 1.266 13.142 2.333 13.613 3.401 A 0.347 0.347 0 0 1 13.62 3.418 C 13.621 3.422 13.623 3.426 13.624 3.431 A 75.214 75.214 0 0 1 13.63 3.445 M 2.44 11.731 A 9.79 9.79 0 0 0 2.367 12.922 A 9.79 9.79 0 0 0 2.443 14.138 C 2.374 14.108 2.313 14.082 2.254 14.057 A 6.571 6.571 0 0 1 2.206 14.036 A 512.046 512.046 0 0 0 0.169 13.137 A 0.3 0.3 0 0 1 0 12.982 L 0 12.88 A 0.308 0.308 0 0 1 0.171 12.726 A 3103.465 3103.465 0 0 0 2.348 11.769 A 1.024 1.024 0 0 1 2.361 11.764 C 2.377 11.757 2.393 11.751 2.413 11.742 A 6.446 6.446 0 0 0 2.416 11.741 C 2.393 11.751 2.377 11.757 2.361 11.764 M 6.115 4.766 L 6.12 4.812 A 184.94 184.94 0 0 0 6.166 5.227 A 23.284 23.284 0 0 0 6.168 5.248 A 16.465 16.465 0 0 1 6.172 5.279 C 6.816 4.794 7.518 4.391 8.262 4.08 L 8.149 3.997 A 5404.381 5404.381 0 0 1 6.229 2.588 C 6.188 2.555 6.136 2.537 6.083 2.539 A 0.199 0.199 0 0 0 5.993 2.569 A 0.138 0.138 0 0 0 5.982 2.577 A 0.343 0.343 0 0 1 5.977 2.58 A 0.2 0.2 0 0 0 5.896 2.741 C 5.896 2.754 5.897 2.767 5.9 2.78 A 13.367 13.367 0 0 1 5.925 3.004 A 50.198 50.198 0 0 0 5.931 3.061 A 17669.772 17669.772 0 0 1 6.076 4.405 A 1148.986 1148.986 0 0 1 6.115 4.766 Z M 15.694 21.807 C 15.692 21.806 15.69 21.804 15.687 21.803 A 10.326 10.326 0 0 0 15.974 21.677 A 9.713 9.713 0 0 0 17.78 20.602 L 17.781 20.611 A 81.065 81.065 0 0 0 17.791 20.701 A 36.484 36.484 0 0 1 17.82 20.958 C 17.826 21.006 17.831 21.055 17.836 21.103 A 4875.005 4875.005 0 0 0 17.988 22.52 C 17.998 22.614 18.009 22.707 18.019 22.801 A 76.671 76.671 0 0 1 18.049 23.082 A 8.033 8.033 0 0 0 18.05 23.094 C 18.05 23.096 18.05 23.098 18.051 23.1 A 3.218 3.218 0 0 1 18.052 23.117 A 0.199 0.199 0 0 1 18.054 23.131 C 18.054 23.136 18.055 23.142 18.055 23.147 A 0.199 0.199 0 0 1 18.019 23.259 A 0.202 0.202 0 0 1 17.951 23.317 A 0.195 0.195 0 0 1 17.859 23.343 C 17.858 23.343 17.856 23.343 17.854 23.343 A 0.196 0.196 0 0 1 17.728 23.296 C 17.316 22.994 16.904 22.692 16.492 22.39 L 15.719 21.823 A 0.086 0.086 0 0 0 15.716 21.821 A 0.606 0.606 0 0 0 15.713 21.819 A 0.64 0.64 0 0 0 15.708 21.816 A 28.705 28.705 0 0 0 15.702 21.812 M 21.512 14.15 A 11.08 11.08 0 0 1 21.511 14.151 A 9.691 9.691 0 0 0 21.585 12.958 C 21.585 12.552 21.56 12.146 21.509 11.743 A 169.994 169.994 0 0 0 21.621 11.792 C 21.731 11.84 21.836 11.886 21.941 11.932 A 52.316 52.316 0 0 1 21.997 11.957 C 22.117 12.01 22.236 12.062 22.356 12.115 A 192.292 192.292 0 0 1 23.801 12.758 C 23.86 12.784 23.901 12.848 23.95 12.895 L 23.95 13.011 C 23.911 13.08 23.848 13.132 23.773 13.159 A 2439.201 2439.201 0 0 0 21.589 14.118 C 21.574 14.125 21.559 14.131 21.539 14.139 A 187.37 187.37 0 0 1 21.537 14.14 A 15.842 15.842 0 0 1 21.535 14.141 M 6.163 20.597 A 9.779 9.779 0 0 0 8.243 21.799 A 78.432 78.432 0 0 0 8.165 21.857 C 8.14 21.875 8.116 21.893 8.092 21.911 A 8.598 8.598 0 0 1 8.081 21.919 A 3085.569 3085.569 0 0 1 6.223 23.276 A 0.377 0.377 0 0 1 6.202 23.291 C 6.134 23.333 6.068 23.343 6.009 23.321 A 0.197 0.197 0 0 1 5.947 23.282 C 5.899 23.236 5.875 23.171 5.882 23.106 A 0.21 0.21 0 0 1 5.884 23.09 C 5.928 22.69 5.972 22.29 6.016 21.89 C 6.063 21.473 6.109 21.056 6.156 20.639 A 0.153 0.153 0 0 1 6.157 20.632 C 6.157 20.626 6.159 20.62 6.16 20.612 M 15.994 4.208 A 2365.886 2365.886 0 0 0 16.045 4.233 A 25.638 25.638 0 0 1 16.489 4.461 C 16.589 4.514 16.688 4.568 16.786 4.624 C 16.886 4.682 16.984 4.743 17.083 4.805 C 17.231 4.898 17.378 4.995 17.526 5.091 A 31.525 31.525 0 0 0 17.794 5.266 A 8.446 8.446 0 0 0 17.796 5.25 C 17.797 5.244 17.798 5.239 17.798 5.233 A 4.012 4.012 0 0 0 17.799 5.224 A 3.944 3.944 0 0 0 17.806 5.168 A 3.54 3.54 0 0 0 17.806 5.166 C 17.843 4.833 17.88 4.5 17.916 4.166 A 4043.843 4043.843 0 0 1 17.966 3.708 A 4043.995 4043.995 0 0 1 18.017 3.25 C 18.033 3.098 18.05 2.945 18.067 2.793 A 0.373 0.373 0 0 0 18.069 2.759 A 0.233 0.233 0 0 0 18.069 2.749 A 0.388 0.388 0 0 1 18.069 2.743 C 18.068 2.683 18.04 2.627 17.992 2.591 A 0.195 0.195 0 0 0 17.873 2.55 C 17.858 2.55 17.842 2.552 17.826 2.556 A 0.293 0.293 0 0 0 17.729 2.605 A 1273.464 1273.464 0 0 1 15.772 4.037 A 0.438 0.438 0 0 0 15.762 4.044 C 15.754 4.051 15.745 4.057 15.739 4.063 A 33.324 33.324 0 0 0 15.736 4.065 A 1.204 1.204 0 0 1 15.732 4.068 A 0.223 0.223 0 0 1 15.728 4.072 A 27.266 27.266 0 0 0 15.994 4.208 Z M 2.367 12.925 C 2.367 12.924 2.367 12.923 2.367 12.922 M 15.732 4.068 C 15.732 4.069 15.731 4.07 15.73 4.07 M 2.932 16.246 C 2.932 16.246 2.932 16.246 2.931 16.247 M 2.436 11.733 C 2.436 11.733 2.436 11.733 2.435 11.734 M 2.926 16.254 C 2.926 16.254 2.926 16.254 2.925 16.255 M 2.418 11.74 C 2.418 11.741 2.417 11.741 2.417 11.741 M 21.514 14.15 C 21.515 14.149 21.515 14.149 21.515 14.149 M 21.529 14.144 C 21.529 14.144 21.529 14.143 21.53 14.143 M 2.928 16.252 A 10.267 10.267 0 0 1 2.928 16.251 M 2.433 11.735 A 5.956 5.956 0 0 1 2.434 11.734 M 2.43 11.736 A 8.495 8.495 0 0 1 2.431 11.735 M 2.424 11.738 A 28.277 28.277 0 0 1 2.426 11.737 M 21.517 14.148 A 4.505 4.505 0 0 1 21.516 14.149 M 21.521 14.147 A 12.811 12.811 0 0 1 21.52 14.147 M 21.527 14.144 A 14.275 14.275 0 0 1 21.526 14.145 M 21.531 14.143 A 2.042 2.042 0 0 1 21.53 14.143"/>
    </g>
</svg>
