<svg class="h-5 w-5" viewBox="0 0 5.3 7.73" xmlns="http://www.w3.org/2000/svg">
    <g fill="currentColor">
        <path d="m0.080078 0a0.1 0.1 0 0 0-0.050781 0.10938c0.11 2.85 0.21094 5.7603 0.21094 6.0703 0.22 0.13 1.7989 1.1412 2.3789 1.5312a0.08 0.08 0 0 0 0.091797 0c0.61-0.39 2.1491-1.4012 2.3691-1.5312 0-0.31 0.070703-3.2201 0.2207-6.0801a0.09 0.09 0 0 0-0.10156-0.099609c-0.99 0.02-1.3086 0.24023-2.5586 0.24023s-1.6705-0.24023-2.5605-0.24023zm2.5508 2.1699c0.66974 0.85688 1.0757 0.99405 1.0879 0.99805 0.057703-0.0051217 0.26039-0.048905 0.61133-0.4082a11.65 11.65 0 0 0-0.25 1.3711 0.15 0.15 0 0 1-0.080078 0.10938 3.61 3.61 0 0 1-2.7402 0.029297 0.15 0.15 0 0 1-0.099609-0.13867c-0.03-0.21-0.12-0.74109-0.25-1.3711 0.42 0.41 0.62891 0.41016 0.62891 0.41016s0.4118-0.08 1.0918-1z"/>
    </g>
</svg>
