<svg xmlns="http://www.w3.org/2000/svg" xmlns:xlink="http://www.w3.org/1999/xlink" viewBox="0 0 5.3 7.73">
    <g>
        <path fill="currentColor" d="M7,6.94c-.22.13-1.76,1.14-2.37,1.53a.08.08,0,0,1-.09,0c-.58-.39-2.16-1.4-2.38-1.53h0c0-.31-.1-3.22-.21-6.07A.1.1,0,0,1,2,.76H2C2.89.76,3.31,1,4.56,1S6.13.78,7.12.76a.09.09,0,0,1,.1.1h0C7.07,3.72,7,6.63,7,6.94H7"
              transform="translate(-1.92 -0.76)"/>
        <path fill="transparent" class="cls-3"
              d="M5.64,3.93s-.41-.13-1.09-1c-.68.92-1.09,1-1.09,1s-.21,0-.63-.41c.13.63.22,1.16.25,1.37a.15.15,0,0,0,.1.14A3.61,3.61,0,0,0,5.92,5,.15.15,0,0,0,6,4.89a11.65,11.65,0,0,1,.25-1.37c-.42.43-.63.41-.63.41"
              transform="translate(-1.92 -0.76)"/>
    </g>
</svg>
