<svg class="h-5 w-5" xmlns="http://www.w3.org/2000/svg" xmlns:svg="http://www.w3.org/2000/svg" preserveAspectRatio="xMidYMid meet" version="1.0">
<g fill="currentColor" id="svg_1" transform="rotate(-56 11 11) matrix(0.00231119 0 0 -0.00267216 123 12)">
    <path d="m-51624.79,2835.28c-74,-17 -184,-88 -231,-151c-42,-55 -55,-81 -76,-148c-22,-72 -23,-130 -4,-204c43,-172 84,-355 115,-511c86,-433 118,-756 85,-872c-13,-44 -138,1 -263,96c-53,40 -103,75 -111,79c-8,4 -28,16 -45,27c-16,11 -37,22 -45,26c-8,3 -28,11 -45,19c-116,52 -318,59 -445,15c-193,-66 -379,-244 -490,-470c-17,-36 -38,-78 -46,-93c-8,-16 -14,-35 -14,-42c0,-8 -6,-29 -14,-47c-60,-139 -60,-396 -1,-558c64,-175 100,-244 197,-371c150,-200 351,-309 567,-309c162,0 300,53 471,181c114,84 170,115 231,124c53,8 54,7 64,-76c6,-54 -16,-354 -36,-479c-30,-189 -57,-329 -115,-585c-40,-183 -48,-214 -60,-254c-45,-145 24,-331 160,-430c113,-82 39,-76 956,-76l815,0l43,23c112,60 173,160 175,283c1,97 -28,160 -112,247c-71,73 -142,178 -171,251c-27,70 -30,202 -5,254c37,78 150,154 263,177c26,5 65,14 87,20c49,12 464,12 520,1c22,-5 64,-14 92,-20c65,-13 169,-61 204,-94c15,-13 39,-43 54,-67c24,-38 27,-52 26,-132c0,-60 -5,-99 -16,-120c-8,-17 -15,-36 -15,-42c0,-22 -102,-167 -157,-223c-30,-31 -68,-82 -85,-112c-26,-49 -30,-66 -30,-136c0,-61 5,-92 22,-129c26,-58 91,-126 152,-158l43,-23l820,0l820,0l60,30c66,32 161,120 189,175c30,58 56,152 56,203c0,26 -7,75 -16,110c-9,34 -22,85 -29,112c-20,80 -52,226 -89,405c-79,392 -114,767 -79,857c5,12 16,13 52,8c61,-9 108,-34 215,-114c101,-74 103,-76 201,-124c236,-118 509,-81 718,98c128,109 238,268 300,430c8,22 22,58 30,80c57,151 58,416 1,568c-8,20 -21,56 -30,80c-60,155 -176,323 -295,426c-84,72 -165,118 -270,151c-109,34 -303,24 -404,-21c-11,-5 -31,-13 -45,-19c-14,-6 -38,-19 -55,-30c-16,-11 -37,-23 -45,-27c-8,-4 -55,-37 -105,-74c-107,-80 -155,-105 -217,-114c-53,-8 -53,-8 -63,90c-6,59 15,336 36,465c36,226 81,447 170,825c29,124 23,181 -32,300c-37,82 -117,155 -219,200c-43,19 -68,20 -860,20l-815,0l-54,-30c-106,-59 -162,-154 -164,-275c-1,-94 28,-162 100,-235c121,-124 191,-246 203,-357c12,-108 -11,-184 -74,-241c-40,-37 -142,-85 -209,-98c-28,-6 -72,-15 -97,-20c-58,-12 -441,-12 -500,0c-25,5 -68,14 -97,20c-29,6 -60,14 -70,19c-10,6 -39,19 -64,31c-56,25 -88,55 -124,111c-24,37 -27,52 -27,129c0,65 5,99 22,141c29,74 98,175 171,252c82,86 111,151 111,248c-1,122 -61,223 -166,278l-51,27l-800,1c-440,1 -809,0 -820,-2z" id="svg_2"/>
</g>
</svg>
