<svg class="h-5 w-5" viewBox="0 0 29 29" xmlns="http://www.w3.org/2000/svg">
    <g fill="currentColor">
        <path d="M 27.459 4.083 L 25.141 6.401 C 24.994 6.548 24.794 6.631 24.586 6.631 C 24.377 6.631 24.177 6.548 24.03 6.401 L 21.705 4.075 A 0.782 0.782 0 0 1 21.49 3.674 C 21.444 3.442 21.503 3.194 21.667 3.005 A 0.797 0.797 0 0 1 21.705 2.964 L 24.023 0.646 A 0.292 0.292 0 0 0 24.108 0.44 C 24.108 0.432 24.108 0.424 24.107 0.416 A 0.292 0.292 0 0 0 24.097 0.36 C 24.068 0.258 23.987 0.18 23.884 0.155 C 23.453 0.051 23.017 0 22.584 0 A 5.515 5.515 0 0 0 18.683 1.617 A 5.515 5.515 0 0 0 17.066 5.518 C 17.066 5.955 17.118 6.396 17.225 6.831 L 14.847 9.484 C 13.159 11.368 11.367 13.157 9.481 14.844 L 6.816 17.227 C 6.386 17.124 5.951 17.073 5.52 17.073 A 5.537 5.537 0 0 0 1.601 18.698 C 0.251 20.058 -0.296 22.021 0.155 23.883 A 0.292 0.292 0 0 0 0.36 24.097 A 0.292 0.292 0 0 0 0.416 24.107 C 0.424 24.107 0.432 24.108 0.44 24.108 A 0.292 0.292 0 0 0 0.646 24.022 L 2.964 21.704 A 0.786 0.786 0 0 1 3.52 21.474 C 3.728 21.474 3.928 21.557 4.075 21.704 L 6.401 24.03 A 0.786 0.786 0 0 1 6.631 24.585 C 6.631 24.794 6.548 24.994 6.401 25.141 L 4.083 27.459 A 0.292 0.292 0 0 0 3.997 27.665 C 3.997 27.673 3.998 27.681 3.998 27.689 A 0.292 0.292 0 0 0 4.008 27.745 C 4.037 27.847 4.119 27.925 4.222 27.95 A 5.518 5.518 0 0 0 5.022 28.082 C 5.189 28.098 5.355 28.105 5.521 28.105 A 5.515 5.515 0 0 0 9.423 26.488 A 5.515 5.515 0 0 0 11.039 22.587 C 11.039 22.422 11.032 22.256 11.017 22.089 A 5.517 5.517 0 0 0 10.883 21.284 L 13.261 18.624 C 14.948 16.738 16.737 14.947 18.621 13.258 L 21.279 10.875 A 5.54 5.54 0 0 0 22.084 11.009 C 22.251 11.024 22.419 11.032 22.585 11.032 A 5.537 5.537 0 0 0 26.504 9.407 A 5.515 5.515 0 0 0 28.105 5.521 C 28.105 5.088 28.054 4.652 27.95 4.222 A 0.292 0.292 0 0 0 27.745 4.008 A 0.292 0.292 0 0 0 27.689 3.998 C 27.682 3.998 27.674 3.997 27.666 3.997 A 0.292 0.292 0 0 0 27.459 4.083 Z"/>
    </g>
</svg>
