<svg class="h-5 w-5" viewBox="0 0 618.88 634.88" xmlns="http://www.w3.org/2000/svg">
    <g fill="currentColor">
        <path d="m95.155 634.56c-17.051-1.7945-32.216-8.2473-46.675-19.861-4.8524-3.8974-11.043-9.9364-13.923-13.581-6.3131-7.9905-11.322-17.766-14.263-27.835-2.4872-8.515-3.6326-16.357-3.8816-26.573-0.25647-10.526 0.3924-17.899 2.5129-28.552l0.97144-4.8802-1.774-2.3572c-5.7779-7.6771-11.551-19.558-14.405-29.642-2.6505-9.3669-3.5193-15.727-3.5407-25.92-0.018041-8.5732 0.2847-11.879 1.773-19.36 1.959-9.847 5.0698-18.949 9.7342-28.48 7.1105-14.53 14.07-24.066 26.275-36.003 16.187-15.831 36.774-29.745 64.122-43.337 27.938-13.885 60.574-25.792 92.64-33.8 3.696-0.92297 6.8514-1.7948 7.0119-1.9373 0.16392-0.14555-2.3638-2.9651-5.7654-6.4313-6.653-6.7791-7.6517-8.2135-8.7743-12.603-3.002-11.738 5.3072-23.338 17.608-24.583 3.0954-0.31311 6.9409 0.46636 10.24 2.0757l2.72 1.3268 76.518 76.525c59.761 59.767 76.731 76.911 77.491 78.285 2.3122 4.18 3.1317 9.3077 2.1921 13.717-1.5304 7.1818-7.429 13.342-14.601 15.248-0.968 0.25728-3.128 0.46778-4.8 0.46778s-3.832-0.2105-4.8-0.46778c-2.6674-0.70893-6.0509-2.5063-8.1101-4.3083-1.0159-0.88902-1.9271-1.6164-2.0248-1.6164-0.56112 0 1.8158 9.9242 3.9161 16.351 5.4575 16.699 13.506 29.975 25.409 41.913 11.81 11.845 25.235 20.095 40.983 25.186 21.318 6.8913 47.045 7.3235 69.633 1.1698 4.0762-1.1105 6.459-1.2751 9.6676-0.66793 7.3958 1.3995 13.079 6.4877 15.601 13.969 0.73987 2.1941 0.82749 8.0076 0.15673 10.4-0.94716 3.3784-3.0962 7.008-5.5227 9.3276-3.2295 3.0872-6.9219 4.6852-15.309 6.6259-26.223 6.0672-54.793 5.6878-79.367-1.0539-10.217-2.8028-17.469-5.5945-27.032-10.406-14.157-7.123-25.452-15.267-36.631-26.414-9.5285-9.5004-15.457-17.343-24.165-31.967-0.48468-0.81395-0.95509-1.286-1.116-1.12-0.15303 0.15789-0.51472 1.223-0.80375 2.367-2.6322 10.418-10.055 33.685-14.087 44.16-8.0359 20.872-14.166 32.417-24.808 46.72-12.35 16.6-22.102 27.352-31.793 35.058-21.075 16.756-43.253 19.482-72.984 8.9688-2.2813-0.80669-4.4249-1.4667-4.7635-1.4667-0.33863 0-3.8559 1.3024-7.8162 2.8942-15.858 6.3742-29.253 10.169-42.33 11.991-4.2561 0.59316-17.405 0.88733-21.307 0.47671zm-0.37704-123.5c42.885-11.129 88.344-54.016 131.63-124.18 9.586-15.539 24.793-43.137 24.793-44.994 0-0.3591-1.4472-2.0601-3.4593-4.066l-3.4593-3.4486-4.4607 0.99123c-38.003 8.4447-73.369 23.77-103.12 44.685-19.464 13.682-36.249 29.63-50.587 48.063-1.7322 2.2269-3.9713 5.3125-4.9756 6.8569-4.0501 6.2281-8.2798 16.803-10.204 25.512-1.6743 7.578-1.964 10.455-1.9655 19.52-0.0013 7.5131 0.0802 8.8833 0.71399 12.017 3.3165 16.398 11.466 22.581 25.099 19.043zm316.58-134.69c-2.6469-0.79744-5.0905-2.0967-7.36-3.9133-1.056-0.84525-35.63-35.279-76.83-76.518-73.773-73.844-74.93-75.02-76.212-77.542-1.6606-3.2642-2.3777-6.0487-2.3954-9.3015-0.0181-3.3144 0.47659-5.4142 2.0583-8.7369 2.676-5.6215 8.1532-9.694 14.567-10.831 2.7008-0.47871 3.1978-0.47989 6.0465-0.0143 2.3311 0.38096 3.786 0.84524 5.8437 1.8649 2.4577 1.2178 3.3104 1.9174 8.28 6.7927 3.0471 2.9893 5.6221 5.3531 5.7223 5.253 0.10015-0.10015 0.9537-3.9296 1.8968-8.5098 10.473-50.863 24.306-94.171 37.882-118.6 3.5804-6.442 6.923-11.458 13.232-19.855 23.186-30.86 39.722-43.755 61.189-47.713 3.7003-0.6823 12.694-0.91688 17.286-0.45088 7.4697 0.75802 15.214 2.5613 24.047 5.5998 2.8452 0.97865 5.4208 1.7794 5.7236 1.7794s3.8068-1.3115 7.7869-2.9144c15.773-6.3525 29.089-10.108 42.596-12.013 5.7486-0.81075 19.452-0.80695 24.8 0.006876 4.8299 0.73506 12.514 2.6695 16.661 4.1944 11.684 4.2963 24.52 12.716 34.395 22.562 12.97 12.931 20.261 28.496 23.237 49.604 0.4423 3.1376 0.56352 6.1732 0.56218 14.08-3e-3 11.128-0.4288 15.648-2.4096 25.513l-0.98132 4.8873 1.774 2.3571c3.8883 5.1663 8.6712 13.834 11.236 20.362 9.7829 24.901 9.0791 50.948-2.0849 77.167-6.3778 14.978-14.441 27.054-25.906 38.796-17.231 17.648-38.878 32.487-68.963 47.272-25.236 12.402-54.506 23.288-83.44 31.033-2.2438 0.60058-4.0798 1.2172-4.08 1.3702-1.9e-4 0.15302 1.2226 1.5633 2.7172 3.134 4.1612 4.3727 6.0543 8.809 6.0543 14.188 0 3.2392-0.51865 5.4133-2.0613 8.64-2.1569 4.5117-6.4989 8.4004-11.262 10.087-2.8276 1.001-8.8693 1.1918-11.608 0.36656zm-18.525-79.264c8.5865-2.3896 21.216-6.6493 29.485-9.9448 31.878-12.704 58.74-29.266 82.075-50.602 11.157-10.202 24.475-25.259 30.534-34.524 6.0947-9.3188 10.589-22.52 12.119-35.598 0.61136-5.2264 0.60397-15.188-0.0144-19.54-1.5153-10.662-5.5608-18.023-11.505-20.933-4.84-2.3699-10.037-2.012-20.329 1.4002-16.976 5.6284-34.146 15.982-51.801 31.237-5.3763 4.6454-20.044 19.246-25.191 25.076-17.442 19.756-33.024 41.15-49.331 67.73-6.4286 10.478-17.997 30.97-17.997 31.879 0 0.38335 15.014 15.591 15.393 15.591 0.10874 0 3.0619-0.79708 6.5625-1.7713z"/>
    </g>
</svg>
