<svg class="h-5 w-5" viewBox="0 0 590.4 402.56" xmlns="http://www.w3.org/2000/svg">
    <g fill="currentColor">
        <path d="m70.72 402.34c-17.625-1.8229-34.507-10.355-45.439-22.963-4.8084-5.5461-22.046-28.108-23.18-30.339-6.5234-12.839 3.0913-28.414 17.581-28.481 1.4306-7e-3 3.3834 0.16746 4.3396 0.38672 2.7614 0.63328 6.7629 2.7068 8.7782 4.5486 1.0047 0.91827 6.0958 7.2124 11.314 13.987 5.2177 6.7746 10.257 13.153 11.198 14.174 3.3926 3.681 7.9808 6.4829 13.399 8.1826l2.8102 0.88154 78.544 0.1746 0.17218-0.72733c1.2986-5.4856 14.884-63.732 14.884-63.815 0-0.062-12.286-0.11282-27.302-0.11282-29.922 0-29.132 0.0472-31.824-1.9034-0.72104-0.52232-1.672-1.5677-2.1132-2.3232-0.44123-0.75536-8.0015-22.685-16.801-48.733s-29.109-86.157-45.134-133.58c-16.025-47.419-29.301-87.059-29.504-88.088-0.20854-1.06-0.29614-3.1515-0.20202-4.8236 0.27331-4.8556 2.2069-9.116 5.7762-12.727 2.28-2.3068 4.7159-3.8169 8.0671-5.0012l2.5569-0.90356 31.2-0.099606c31.461-0.10044 41.502 0.11109 50.88 1.0718 52.019 5.3291 104.01 29.099 142.88 65.32 11.916 11.104 22.145 23.239 31.383 37.228 8.3535 12.649 13.926 23.15 21.736 40.96 10.514 23.977 24.753 39.963 44.784 50.282 14.384 7.4096 29.935 11.234 50.577 12.436 22.82 1.3299 45.002 0.39441 61.44-2.5912 19.392-3.522 34.733-10.868 42.464-20.333 2.5865-3.1667 7.6925-10.955 9.5405-14.553 3.7441-7.289 3.4437-10.44-2.2206-23.292-4.2594-9.6644-5.4641-14.041-5.4641-19.853 0-8.6155 4.0898-15.479 14.287-23.977 3.4818-2.9015 5.7801-4.3323 8.6072-5.3585 9.7019-3.5216 19.008 2.4202 32.137 20.52 4.4261 6.1017 19.312 27.715 21.29 30.911 2.2663 3.6619 4.1264 7.405 5.1887 10.441 0.79197 2.2636 0.87072 2.9061 0.87366 7.1278 3e-3 4.6228-3e-3 4.6546-1.3508 8.595-2.8619 8.3592-7.5669 16.552-22.695 39.52-17.968 27.279-29.517 41.833-47.277 59.58-10.025 10.018-14.054 13.124-21.956 16.923-6.7114 3.2269-14.326 5.2988-23.665 6.439-3.1286 0.38197-8.188 0.57396-18.344 0.69612l-14.024 0.16867 0.21133 0.83929c0.11626 0.46161 3.4405 14.643 7.3872 31.514 3.9467 16.871 7.2636 31.025 7.371 31.452l0.1951 0.77734 25.962-0.10182c25.55-0.10022 25.998-0.11283 28.202-0.79286 1.232-0.38007 3.0932-1.0692 4.136-1.5313 4.481-1.9858 5.9406-3.2624 22.104-19.334 8.624-8.5748 16.256-16.03 16.96-16.567 3.2932-2.5111 7.6712-3.9935 11.862-4.0164 3.3041-0.0179 5.4135 0.47635 8.6945 2.0378 4.7312 2.2516 8.4082 6.4635 10.223 11.711 0.71987 2.0809 0.86189 3.0401 0.86611 5.8491 6e-3 3.8476-0.50704 5.96-2.2918 9.44-1.0305 2.0092-2.7832 3.8833-17.011 18.189-8.7244 8.7721-17.224 17.093-18.887 18.49-9.3998 7.8959-20.131 12.903-32.976 15.387l-3.68 0.71171-219.2 0.0406c-120.56 0.0224-219.7-0.0115-220.32-0.0752zm344.32-40.187c0-0.39795-3.312-14.879-7.36-32.181-4.048-17.302-7.36-31.52-7.36-31.596s-43.776-0.1391-97.28-0.1391-97.28 0.0735-97.28 0.16324c0 0.0898-3.312 14.326-7.36 31.635-4.048 17.31-7.36 31.78-7.36 32.157v0.68477h224z"/>
    </g>
</svg>
