<svg xmlns="http://www.w3.org/2000/svg" xmlns:xlink="http://www.w3.org/1999/xlink" width="22px" height="21px"
     viewBox="0 0 21 21" version="1.1">
    <g fill="currentColor">
        <path d="M 18.457031 3.460938 C 17.660156 3.519531 17.289062 3.558594 17.257812 3.582031 C 17.230469 3.601562 16.242188 4.417969 15.0625 5.394531 C 4.253906 14.328125 4.125 14.433594 4.105469 14.4375 C 4.09375 14.441406 3.867188 14.160156 3.601562 13.804688 L 3.113281 13.167969 L 2.820312 13.320312 C 2.644531 13.410156 2.53125 13.484375 2.539062 13.503906 C 2.554688 13.542969 6.277344 18.371094 6.292969 18.371094 C 6.304688 18.371094 6.6875 17.898438 6.699219 17.863281 C 6.703125 17.851562 6.496094 17.5625 6.234375 17.222656 C 5.972656 16.886719 5.761719 16.59375 5.757812 16.574219 C 5.753906 16.554688 6.800781 15.6875 8.089844 14.648438 C 9.375 13.601562 11.832031 11.609375 13.546875 10.214844 C 15.265625 8.816406 17.1875 7.257812 17.816406 6.746094 C 18.449219 6.234375 18.976562 5.804688 18.984375 5.792969 C 19 5.785156 19.164062 5.246094 19.355469 4.605469 C 19.546875 3.957031 19.707031 3.414062 19.714844 3.398438 C 19.722656 3.378906 19.703125 3.363281 19.667969 3.367188 C 19.636719 3.371094 19.09375 3.410156 18.457031 3.460938 Z M 18.457031 3.460938 "/>
        <path d="M 10.269531 3.632812 C 9.988281 3.828125 9.5 4.101562 9.125 4.265625 C 8.464844 4.5625 7.8125 4.703125 6.894531 4.742188 L 6.511719 4.761719 L 6.457031 4.992188 C 6.320312 5.566406 6.085938 5.964844 5.574219 6.488281 C 5.222656 6.847656 4.882812 7.148438 4.507812 7.421875 L 4.308594 7.570312 L 4.308594 7.71875 C 4.304688 8.097656 4.464844 9.527344 4.617188 10.453125 C 4.707031 11.015625 4.90625 12.046875 4.949219 12.152344 C 4.960938 12.1875 5.035156 12.136719 5.3125 11.90625 C 5.503906 11.75 5.65625 11.605469 5.65625 11.585938 C 5.65625 11.566406 5.605469 11.308594 5.550781 11.015625 C 5.390625 10.199219 5.253906 9.253906 5.175781 8.378906 L 5.140625 8.007812 L 5.449219 7.753906 C 5.625 7.609375 5.949219 7.300781 6.175781 7.0625 C 6.636719 6.585938 6.816406 6.335938 7.027344 5.867188 L 7.152344 5.589844 L 7.46875 5.558594 C 8.101562 5.492188 8.722656 5.351562 9.179688 5.167969 C 9.496094 5.039062 10.011719 4.785156 10.265625 4.632812 C 10.375 4.566406 10.472656 4.511719 10.480469 4.511719 C 10.488281 4.511719 10.496094 5.210938 10.5 6.066406 L 10.507812 7.617188 L 12.132812 6.277344 C 13.027344 5.535156 13.808594 4.886719 13.871094 4.832031 L 13.988281 4.730469 L 13.847656 4.726562 C 13.496094 4.722656 12.757812 4.597656 12.371094 4.46875 C 11.914062 4.320312 11.238281 3.984375 10.808594 3.691406 C 10.6875 3.613281 10.566406 3.53125 10.535156 3.515625 C 10.488281 3.484375 10.457031 3.5 10.269531 3.632812 Z M 10.269531 3.632812 "/>
        <path d="M 16.257812 9.597656 C 16.132812 9.703125 15.320312 10.367188 14.453125 11.070312 C 11.5625 13.417969 10.972656 13.898438 10.734375 14.089844 L 10.496094 14.285156 L 10.496094 17.816406 L 10.246094 17.675781 C 9.652344 17.347656 8.972656 16.882812 8.460938 16.453125 C 8.3125 16.332031 8.175781 16.226562 8.160156 16.21875 C 8.136719 16.210938 7.550781 16.65625 7.515625 16.714844 C 7.484375 16.769531 8.335938 17.453125 8.910156 17.847656 C 9.335938 18.132812 9.695312 18.34375 10.140625 18.574219 L 10.492188 18.757812 L 10.886719 18.554688 C 12.074219 17.941406 13.160156 17.113281 14.121094 16.101562 C 14.644531 15.542969 14.882812 15.21875 15.15625 14.6875 C 15.707031 13.625 16.191406 11.835938 16.453125 9.921875 C 16.480469 9.699219 16.511719 9.492188 16.515625 9.457031 C 16.523438 9.425781 16.519531 9.398438 16.511719 9.402344 C 16.496094 9.402344 16.386719 9.492188 16.257812 9.597656 Z M 16.257812 9.597656 "/>
        <path d="M 2.515625 16.546875 L 1.457031 17.417969 L 1.332031 17.265625 L 1.207031 17.117188 L 0.90625 17.28125 C 0.738281 17.371094 0.601562 17.449219 0.597656 17.449219 C 0.585938 17.460938 0.816406 17.847656 0.976562 18.09375 C 1.261719 18.523438 1.75 19.105469 2.007812 19.328125 L 2.128906 19.433594 L 2.328125 19.199219 C 2.4375 19.070312 2.535156 18.945312 2.542969 18.921875 C 2.550781 18.902344 2.515625 18.816406 2.464844 18.734375 C 2.414062 18.652344 2.371094 18.574219 2.371094 18.566406 C 2.371094 18.554688 2.84375 18.160156 3.417969 17.691406 C 3.988281 17.222656 4.457031 16.828125 4.460938 16.816406 C 4.460938 16.792969 3.609375 15.675781 3.585938 15.675781 C 3.578125 15.675781 3.09375 16.066406 2.515625 16.546875 Z M 2.515625 16.546875 "/>
    </g>
</svg>
