<svg class="h-5 w-5" viewBox="0 0 22 28" xmlns="http://www.w3.org/2000/svg">
    <g fill="currentColor">
        <path d="M 21.308 15.447 L 11.207 0.274 C 11.093 0.103 10.901 0 10.696 0 A 0.614 0.614 0 0 0 10.185 0.273 L 0.07 15.447 A 0.414 0.414 0 0 0 0 15.676 C 0 15.743 0.016 15.811 0.049 15.872 A 0.414 0.414 0 0 0 0.414 16.091 L 5.837 16.091 L 6.14 22.378 A 38.728 38.728 0 0 0 7.448 22.54 C 8.22 22.622 9.058 22.687 9.895 22.714 A 25.068 25.068 0 0 0 10.696 22.727 A 24.664 24.664 0 0 0 11.383 22.717 C 12.242 22.693 13.101 22.628 13.894 22.544 A 39.115 39.115 0 0 0 15.237 22.378 L 15.541 16.091 L 20.964 16.091 A 0.414 0.414 0 0 0 21.329 15.872 A 0.414 0.414 0 0 0 21.378 15.682 C 21.378 15.68 21.378 15.678 21.378 15.676 A 0.414 0.414 0 0 0 21.308 15.447 Z M 6.231 24.686 L 6.322 26.676 A 1.73 1.73 0 0 0 6.373 26.691 C 6.622 26.765 7.781 27.073 9.922 27.135 A 26.514 26.514 0 0 0 10.696 27.146 A 25.995 25.995 0 0 0 11.608 27.131 C 13.934 27.049 15.055 26.676 15.055 26.676 L 15.146 24.686 A 43.426 43.426 0 0 1 13.612 24.857 C 12.916 24.922 12.179 24.973 11.443 24.994 A 25.84 25.84 0 0 1 10.696 25.005 A 25.781 25.781 0 0 1 10.108 24.998 C 9.249 24.979 8.391 24.919 7.592 24.841 A 43.6 43.6 0 0 1 6.231 24.686 Z"/>
    </g>
</svg>
