<svg class="h-5 w-5" viewBox="0 0 19 29" xmlns="http://www.w3.org/2000/svg">
    <g fill="currentColor">
        <path d="M 17.114 9.604 A 2.802 2.802 0 0 0 17.289 8.96 A 1.082 1.082 0 0 1 17.339 8.996 C 17.669 9.247 19.504 10.825 18.221 14.106 A 3.502 3.502 0 0 1 18.08 14.418 C 17.611 15.34 16.864 15.899 17.009 16.97 A 2.356 2.356 0 0 0 17.057 17.222 C 17.936 20.764 16.889 21.516 16.872 21.545 A 25.126 25.126 0 0 0 16.843 21.531 C 8.349 17.366 4.628 21.579 3.589 23.075 A 8.075 8.075 0 0 0 3.362 23.42 C 2.841 23.402 2.288 23.08 1.623 22.282 A 14.009 14.009 0 0 1 1.487 22.117 C 0.827 21.3 0.455 20.635 0.232 19.794 A 7.631 7.631 0 0 1 0.059 18.917 A 5.545 5.545 0 0 1 0.027 18.651 C -0.092 17.385 0.161 15.626 1.189 13.868 A 9.398 9.398 0 0 1 1.445 13.454 A 10.845 10.845 0 0 0 1.772 12.924 C 2.752 11.225 3.188 9.348 2.308 7.856 A 3.731 3.731 0 0 0 1.504 6.913 A 2.664 2.664 0 0 1 1.977 6.74 C 3.173 6.43 4.268 7.069 4.701 7.698 A 1.449 1.449 0 0 1 4.785 7.836 A 2.913 2.913 0 0 0 4.869 7.983 C 5.589 9.159 6.66 8.927 6.93 8.695 A 1.356 1.356 0 0 0 7.119 8.499 C 7.686 7.767 7.018 6.829 6.588 5.678 A 4.463 4.463 0 0 1 6.286 4.366 A 3.862 3.862 0 0 1 6.28 4.151 C 6.28 3.131 6.664 1.69 7.89 0.653 A 4.827 4.827 0 0 1 8.9 0 A 5.606 5.606 0 0 0 8.855 0.132 C 8.579 0.955 8.549 1.696 8.695 2.337 A 3.469 3.469 0 0 0 10.58 4.659 A 1.266 1.266 0 0 0 10.602 4.67 C 11.639 5.165 13.334 4.25 13.253 3.407 A 0.618 0.618 0 0 0 13.186 3.182 C 15.311 4.543 14.895 6.449 14.618 7.333 A 9.119 9.119 0 0 1 14.577 7.463 C 14.265 8.41 13.882 9.831 14.649 10.448 A 1.237 1.237 0 0 0 14.781 10.541 C 15.474 10.962 16.634 10.767 17.114 9.604 Z M 4.687 26.834 L 7.41 26.995 C 6.982 27.392 6.667 27.882 6.959 28.122 A 0.404 0.404 0 0 0 6.998 28.15 C 7.641 28.56 8.361 28.75 9.214 28.75 A 6.119 6.119 0 0 0 9.5 28.744 C 9.896 28.725 10.386 28.308 10.651 27.996 A 9.52 9.52 0 0 0 11.477 28.036 C 12.328 28.037 13.227 27.904 14.009 27.458 C 14.166 27.365 14.315 27.258 14.453 27.138 A 7053.635 7053.635 0 0 0 16.066 27.13 A 0.754 0.754 0 0 0 16.28 27.094 C 17.138 26.833 18.366 25.227 17.268 25.238 C 16.818 25.242 16.368 25.247 15.92 25.252 C 15.97 25.134 15.998 25.019 15.998 24.911 A 0.48 0.48 0 0 0 15.928 24.652 A 0.493 0.493 0 0 0 15.576 24.439 C 15.42 24.411 15.239 24.419 15.063 24.427 A 10.582 10.582 0 0 1 14.93 24.432 C 14.584 24.444 14.238 24.458 13.893 24.473 A 262.045 262.045 0 0 1 13.364 24.494 A 0.035 0.035 0 0 1 13.362 24.494 C 13.292 24.494 13.063 24.293 12.897 24.238 C 12.157 23.996 11.392 23.843 10.616 23.782 C 11.008 23.353 11.245 22.846 10.921 22.626 A 0.503 0.503 0 0 0 10.819 22.574 C 10.232 22.346 8.516 22.373 8.354 22.384 A 0.345 0.345 0 0 0 8.349 22.384 A 0.676 0.676 0 0 0 8.174 22.425 C 7.496 22.67 6.423 23.913 6.976 24.242 A 0.482 0.482 0 0 0 7.088 24.29 A 5.496 5.496 0 0 0 7.563 24.403 C 7.403 24.575 7.267 24.767 7.157 24.975 A 27.892 27.892 0 0 1 5.89 25.002 C 5.193 25.002 3.853 26.785 4.687 26.834 Z"/>
    </g>
</svg>
