<svg xmlns="http://www.w3.org/2000/svg" version="1.1" viewBox="-10 0 910 1000">
  <g transform="matrix(1 0 0 -1 0 800)">
   <path fill="currentColor"
d="M708 586q15 12 32.5 13.5t31 -4.5t27 -17.5t21.5 -21.5t15 -20l-31 -31q-20 -20 -56 -57t-88.5 -91t-90.5 -93q193 -247 206 -265q-21 -20 -64 -40.5t-85.5 -28t-63.5 13.5q-1 2 -135 174q-195 -198 -220 -218q-16 -12 -33 -13.5t-31 4.5t-27 17.5t-21.5 22t-14.5 20.5
q3 2 30 30q24 25 107 110t128 132q-201 259 -206 264q22 20 64.5 40.5t85 28.5t63.5 -14q3 -4 136 -173q195 198 220 217z" />
  </g>
</svg>
