<svg width="24" height="24" xmlns="http://www.w3.org/2000/svg" xmlns:svg="http://www.w3.org/2000/svg">
    <g class="layer">
        <path d="m16.679309,19.510102c-1.631019,0 -2.94043,-1.34759 -2.94043,-3.026176c0,-1.111169 0.597272,-2.080495 1.47022,-2.600613l0,-0.425552c0,-1.513088 -1.47022,-3.026176 -2.94043,-3.026176c-1.217526,0 -2.182349,-0.260064 -2.94043,-0.685617l0,7.163522c0.872937,0.520119 1.47022,1.489444 1.47022,2.600613c0,1.678576 -1.309411,3.026176 -2.94043,3.026176s-2.94043,-1.34759 -2.94043,-3.026176c0,-1.111169 0.597272,-2.080495 1.47022,-2.600613l0,-9.905989c-0.872937,-0.520119 -1.47022,-1.489444 -1.47022,-2.600613c0,-1.678576 1.309411,-3.026176 2.94043,-3.026176s2.94043,1.34759 2.94043,3.026176c0,0.803827 -0.298636,1.513088 -0.781053,2.056851c0.436474,0.543763 1.125631,0.969325 2.251262,0.969325c2.94043,0 5.88086,3.026176 5.88086,6.052352l0,0.425552c0.872937,0.520119 1.47022,1.489444 1.47022,2.600613c0,1.678576 -1.309411,3.026176 -2.94043,3.026176l0,-0.023644l-0.00001,-0.00001zm-8.82129,1.513088c0.804024,0 1.47022,-0.685617 1.47022,-1.513088s-0.666196,-1.513088 -1.47022,-1.513088s-1.47022,0.685617 -1.47022,1.513088s0.666196,1.513088 1.47022,1.513088zm0,-18.157046c-0.804024,0 -1.47022,0.685617 -1.47022,1.513088s0.666196,1.513088 1.47022,1.513088s1.47022,-0.685617 1.47022,-1.513088s-0.666196,-1.513088 -1.47022,-1.513088zm8.82129,12.104694c-0.804024,0 -1.47022,0.685617 -1.47022,1.513088s0.666196,1.513088 1.47022,1.513088s1.47022,-0.685617 1.47022,-1.513088s-0.666196,-1.513088 -1.47022,-1.513088z"
              fill="currentColor" id="svg_1"/>
    </g>
</svg>
