<?xml version="1.0" encoding="UTF-8" standalone="no"?>
<!DOCTYPE svg PUBLIC "-//W3C//DTD SVG 1.1//EN"
"http://www.w3.org/Graphics/SVG/1.1/DTD/svg11.dtd">


<!-- Page 1 -->
<svg x="0" y="0" width="935" height="1210" viewBox="0 0 935 1210" version="1.1" xmlns="http://www.w3.org/2000/svg" xmlns:xlink="http://www.w3.org/1999/xlink"
style="display: block;margin-left: auto;margin-right: auto;">
<defs>
<clipPath id="c_1"><path d="M0,0H935V1210H0Z"/></clipPath>
<clipPath id="c0_1"><path d="M168,870.1V339.9H767V870.1Z"/></clipPath>

<style type="text/css"><![CDATA[

.g0_1{
fill: #241F21;
}

]]></style>

</defs>
<path d="M0,0
L0,1210
L935,1210
L935,0 Z " 
fill="#FFFFFF" stroke="none"/>
<g clip-path="url(#c_1)">
<g clip-path="url(#c0_1)">
<path d="M538.6,688.1c0,0,10.8,98.5,13.1,145.5c15.7,3.1,37,10.7,38.5,21.3c12.1,4.7,22.2,2.1,25.8,0C621.1,819.8,602.3,730.5,631.2,694C660,657.6,732.9,640.9,751.1,597.6C768,557.4,748.3,469.5,760,431.6c.6,-2,-1.9,-3.5,-3.4,-2C716.1,468.3,714.7,542.2,701,557.3c-21,23.4,-105.3,40.1,-145.7,84.4c-13.7,15,-16.7,46.4,-16.7,46.4Z" class="g0_1"/>
<path d="M466,342.2c-11.3,71.5,-66.3,425.7,-56.4,491.4c20.6,3.6,31.8,36.5,58.4,36.5c26.6,0,37.8,-32.9,58.4,-36.5C536.3,767.9,481.3,413.7,470,342.2c-.4,-2.3,-3.6,-2.3,-4,0Z" class="g0_1"/>
</g>
<path d="M397.4,688.1c0,0,-10.8,98.5,-13.1,145.5c-15.8,3.1,-37,10.7,-38.5,21.3c-12.2,4.7,-22.2,2.1,-25.8,0C314.8,819.8,333.6,730.5,304.8,694C276,657.6,203.1,640.9,184.9,597.6C168,557.4,187.7,469.5,176,431.6c-.6,-2,1.9,-3.5,3.4,-2c40.5,38.7,41.9,112.6,55.6,127.7c21,23.4,105.3,40.1,145.7,84.4c13.7,15,16.7,46.4,16.7,46.4Z" class="g0_1"/>

</g>
</svg>
