<?xml version="1.0" encoding="UTF-8" standalone="no"?>
<!DOCTYPE svg PUBLIC "-//W3C//DTD SVG 1.1//EN" "http://www.w3.org/Graphics/SVG/1.1/DTD/svg11.dtd">
<svg xmlns="http://www.w3.org/2000/svg" xmlns:xlink="http://www.w3.org/1999/xlink" version="1.1" width="300pt"
     height="300pt" viewBox="0 0 300 300">
    <g enable-background="new">
        <clipPath id="cp2">
            <path transform="matrix(1,0,0,-1,0,300)" d="M 0 300 L 300 300 L 300 0 L 0 0 Z "/>
        </clipPath>
        <g clip-path="url(#cp2)">
            <path transform="matrix(1,0,0,-1,181.0004,186.3477)"
                  d="M 0 0 C 0 0 4.75 -43.266 5.75 -63.932 C 12.666 -65.266 22 -68.599 22.666 -73.266 C 28 -75.34 32.416 -74.188 34 -73.266 C 36.25 -57.849 28 -18.599 40.666 -2.599 C 53.333 13.401 85.333 20.734 93.333 39.735 C 100.762 57.377 92.095 96.001 97.224 112.639 C 97.494 113.514 96.396 114.167 95.734 113.534 C 77.95 96.521 77.336 64.053 71.333 57.401 C 62.083 47.151 25.083 39.818 7.333 20.364 C 1.307 13.76 0 0 0 0 "
                  fill="#5E7EBD"/>
            <path transform="matrix(1,0,0,-1,149.1196,34.472688)"
                  d="M 0 0 C -4.969 -31.395 -29.127 -186.918 -24.786 -215.807 C -15.703 -217.391 -10.786 -231.807 .881 -231.807 C 12.547 -231.807 17.464 -217.391 26.547 -215.807 C 30.888 -186.918 6.729 -31.395 1.761 0 C 1.603 1.003 .159 1.003 0 0 "
                  fill="#5E7EBD"/>
            <path transform="matrix(1,0,0,-1,119.0004,186.3477)"
                  d="M 0 0 C 0 0 -4.75 -43.266 -5.75 -63.932 C -12.667 -65.266 -22 -68.599 -22.667 -73.266 C -28 -75.34 -32.417 -74.188 -34 -73.266 C -36.25 -57.849 -28 -18.599 -40.667 -2.599 C -53.334 13.401 -85.334 20.734 -93.334 39.735 C -100.763 57.377 -92.096 96.001 -97.225 112.639 C -97.495 113.514 -96.397 114.167 -95.735 113.534 C -77.951 96.521 -77.337 64.053 -71.334 57.401 C -62.084 47.151 -25.084 39.818 -7.334 20.364 C -1.308 13.76 0 0 0 0 "
                  fill="#5E7EBD"/>
        </g>
    </g>
</svg>
