<?xml version="1.0" encoding="UTF-8" standalone="no"?>
<!DOCTYPE svg PUBLIC "-//W3C//DTD SVG 1.1//EN"
"http://www.w3.org/Graphics/SVG/1.1/DTD/svg11.dtd">


<!-- Page 10 -->
<svg x="0" y="0" width="935" height="1210" viewBox="0 0 935 1210" version="1.1" xmlns="http://www.w3.org/2000/svg" xmlns:xlink="http://www.w3.org/1999/xlink"
style="display: block;margin-left: auto;margin-right: auto;">
<defs>
<clipPath id="c_10"><path d="M0,0H935V1210H0Z"/></clipPath>
<clipPath id="c0_10"><path d="M162.3,902.3V307.7H772.7V902.3Z"/></clipPath>

<style type="text/css"><![CDATA[

.g0_10{
fill: #241F21;
}

]]></style>

</defs>
<path d="M0,0
L0,1210
L935,1210
L935,0 Z " 
fill="#FFFFFF" stroke="none"/>
<g clip-path="url(#c_10)">
<g clip-path="url(#c0_10)">
<path d="M534.2,605.7C534.2,708.6,450.8,792,347.9,792C245,792,161.6,708.6,161.6,605.7C161.6,502.8,245,419.4,347.9,419.4c102.9,0,186.3,83.4,186.3,186.3Z" class="g0_10"/>
<path d="M474.6,307.6c-75.5,0,-144.5,28.2,-197,74.5c35.5,-19,76.1,-29.8,119.2,-29.8c139.9,0,253.4,113.5,253.4,253.4c0,140,-113.5,253.4,-253.4,253.4c-43.1,0,-83.7,-10.8,-119.2,-29.7c52.5,46.3,121.5,74.4,197,74.4c164.6,0,298.1,-133.4,298.1,-298.1C772.7,441.1,639.2,307.6,474.6,307.6Z" class="g0_10"/>
</g>

</g>
</svg>
