<?xml version="1.0" encoding="UTF-8" standalone="no"?>
<!DOCTYPE svg PUBLIC "-//W3C//DTD SVG 1.1//EN"
"http://www.w3.org/Graphics/SVG/1.1/DTD/svg11.dtd">


<!-- Page 11 -->
<svg x="0" y="0" width="935" height="1210" viewBox="0 0 935 1210" version="1.1" xmlns="http://www.w3.org/2000/svg" xmlns:xlink="http://www.w3.org/1999/xlink"
style="display: block;margin-left: auto;margin-right: auto;">
<defs>
<clipPath id="c_11"><path d="M0,0H935V1210H0Z"/></clipPath>
<clipPath id="c0_11"><path d="M309.9,909.5v-609H625.1v609Z"/></clipPath>

<style type="text/css"><![CDATA[

.g0_11{
fill: #241F21;
}

]]></style>

</defs>
<path d="M0,0
L0,1210
L935,1210
L935,0 Z " 
fill="#FFFFFF" stroke="none"/>
<g clip-path="url(#c_11)">
<g clip-path="url(#c0_11)">
<path d="M625.3,485.3c1.2,-5.6,-15.7,-13.5,-19.1,-19.1c-3.4,-5.7,11.3,-35,4.5,-48.5c-6.8,-13.5,-9.1,-34.8,-24.8,-58.6c-38.7,-58.7,-108.2,-54,-117.7,-54c-9.6,0,-79,-4.7,-117.8,54c-15.7,23.8,-18,45.1,-24.8,58.6c-6.7,13.5,7.9,42.8,4.6,48.5c-3.4,5.6,-20.3,13.5,-19.2,19.1c1.1,5.7,23.7,32.7,24.8,41.7c1.1,9,-5.6,33.3,1.1,51.8c25.9,-24.7,42.1,-34.9,47.3,-41.6c-5,-6.8,-9,-11.3,-5.6,-21.5c3.4,-10.1,11,-25.6,14.6,-28.1c7,-5,50.7,9.1,50.7,13.5c0,13.5,-22.5,28.2,-54,55.2c-31.6,27.1,-71,60.9,-69.9,67.6c1.1,6.8,66.5,135.8,64.2,156.1c-2.2,20.2,-14.6,58.5,-14.6,58.5c0,0,24.8,35,30.4,31.6c5.6,-3.4,4.5,-6.8,1.1,-16.9c-3.3,-10.1,-11.2,-25.9,-11.2,-31.5c0,-5.7,20.2,-32.7,20.2,-32.7c0,0,-5,-31.9,-6.1,-37.5c-1.1,-5.6,-7.4,-12.1,-10.8,-20C389.9,723.6,353.8,623.9,353.8,623.9L391,599.1c0,0,10.1,14.7,19.1,19.2c9.1,4.5,-10.1,50.1,-10.1,54.6c0,4.5,43.9,93.5,42.8,100.3c-1.1,6.8,-21.4,75.5,-20.3,83.4c1.2,7.9,19.2,21.4,20.3,27c1.1,5.7,5.7,25.9,11.3,23.7c5.6,-2.3,8.5,-13.2,.8,-30.4C449.6,865,441.7,860,442.8,848.7c1.1,-11.3,24.8,-56.3,20.3,-76.6c-4.5,-20.3,-31.9,-77.5,-31.9,-85.2c0,-7.6,8.4,-50.4,11.1,-57.2c3.1,-7.8,11.6,-19.4,14.6,-22.9c4.7,-5.4,11.3,5.3,11.3,5.3c0,0,6.5,-10.7,11.2,-5.3c3.1,3.5,11.6,15.1,14.6,22.9c2.7,6.8,11.2,49.6,11.2,57.2c0,7.7,-27.5,64.9,-31.9,85.2c-4.6,20.3,19.1,65.3,20.2,76.6c1.1,11.3,-6.8,16.3,-12.1,28.2c-7.7,17.2,-4.8,28.1,.9,30.4c5.6,2.2,10.1,-18,11.2,-23.7c1.1,-5.6,19.2,-19.1,20.3,-27c1.1,-7.9,-19.2,-76.6,-20.3,-83.4c-1.1,-6.8,42.8,-95.8,42.8,-100.3c0,-4.5,-19.1,-50.1,-10.1,-54.6c9,-4.5,19.1,-19.2,19.1,-19.2l37.2,24.8c0,0,-36,99.7,-39.4,107.6c-3.4,7.9,-9.6,14.4,-10.7,20c-1.2,5.6,-6.2,37.5,-6.2,37.5c0,0,20.3,27,20.3,32.7c0,5.6,-7.9,21.4,-11.3,31.5c-3.4,10.1,-4.5,13.5,1.1,16.9c5.7,3.4,30.5,-31.6,30.5,-31.6c0,0,-12.4,-38.3,-14.7,-58.5c-2.2,-20.3,63.1,-149.3,64.2,-156.1c1.2,-6.7,-38.3,-40.5,-69.8,-67.6c-31.6,-27,-54.1,-39.4,-54.1,-55.2c0,-4.4,43.7,-18.5,50.7,-13.5c3.6,2.5,11.3,18,14.6,28.1c3.4,10.2,-.5,14.7,-5.6,21.5c5.3,6.7,21.4,16.9,47.3,41.6c6.8,-18.5,0,-42.8,1.2,-51.8c1.1,-9,23.6,-36,24.7,-41.7M492.6,568.1c-3.4,6.8,-12,9.6,-24.4,9.6c-12.4,0,-21.1,-2.8,-24.4,-9.6c-3.4,-6.7,12.9,-37.7,24.4,-37.7c11.4,0,27.8,31,24.4,37.7Z" class="g0_11"/>
</g>

</g>
</svg>
