<?xml version="1.0" encoding="UTF-8" standalone="no"?>
<!DOCTYPE svg PUBLIC "-//W3C//DTD SVG 1.1//EN" "http://www.w3.org/Graphics/SVG/1.1/DTD/svg11.dtd">
<svg xmlns="http://www.w3.org/2000/svg" xmlns:xlink="http://www.w3.org/1999/xlink" version="1.1" width="300pt"
     height="300pt" viewBox="0 0 300 300">
    <g enable-background="new">
        <clipPath id="cp10">
            <path transform="matrix(1,0,0,-1,0,300)" d="M 0 300 L 300 300 L 300 0 L 0 0 Z "/>
        </clipPath>
        <g clip-path="url(#cp10)">
            <path transform="matrix(1,0,0,-1,150.0004,213.4135)"
                  d="M 0 0 C -35.022 0 -63.414 28.392 -63.414 63.413 C -63.414 98.436 -35.022 126.827 0 126.827 C 35.022 126.827 63.413 98.436 63.413 63.413 C 63.413 28.392 35.022 0 0 0 M 77.21 42.725 L 128.266 63.413 L 77.21 84.102 L 111.081 127.547 L 56.521 119.936 L 64.133 174.495 L 20.688 140.624 L 0 191.68 L -20.688 140.624 L -64.134 174.495 L -56.522 119.936 L -111.082 127.547 L -77.211 84.102 L -128.267 63.413 L -77.211 42.725 L -111.082 -.72 L -56.522 6.892 L -64.134 -47.668 L -20.688 -13.797 L 0 -64.853 L 20.688 -13.797 L 64.133 -47.668 L 56.521 6.892 L 111.081 -.72 Z "
                  fill="currentColor"/>
            <path transform="matrix(1,0,0,-1,189.8598,150.0004)"
                  d="M 0 0 C 0 -22.014 -17.846 -39.859 -39.859 -39.859 C -61.874 -39.859 -79.72 -22.014 -79.72 0 C -79.72 22.015 -61.874 39.86 -39.859 39.86 C -17.846 39.86 0 22.015 0 0 "
                  fill="currentColor"/>
        </g>
    </g>
</svg>
