<?xml version="1.0" encoding="UTF-8" standalone="no"?>
<!DOCTYPE svg PUBLIC "-//W3C//DTD SVG 1.1//EN"
"http://www.w3.org/Graphics/SVG/1.1/DTD/svg11.dtd">


<!-- Page 12 -->
<svg x="0" y="0" width="935" height="1210" viewBox="0 0 935 1210" version="1.1" xmlns="http://www.w3.org/2000/svg" xmlns:xlink="http://www.w3.org/1999/xlink"
style="display: block;margin-left: auto;margin-right: auto;">
<defs>
<clipPath id="c_12"><path d="M0,0H935V1210H0Z"/></clipPath>
<clipPath id="c0_12"><path d="M226.1,909.3V300.7H708.9V909.3Z"/></clipPath>

<style type="text/css"><![CDATA[

.g0_12{
fill: #241F21;
}

]]></style>

</defs>
<path d="M0,0
L0,1210
L935,1210
L935,0 Z " 
fill="#FFFFFF" stroke="none"/>
<g clip-path="url(#c_12)">
<g clip-path="url(#c0_12)">
<path d="M291.1,546.4L226.6,763.7c-.5,1.6,.9,3.1,2.5,2.8l63.1,-10.8c1.2,-.2,2.3,.6,2.5,1.8l27.1,127.9c.5,2.6,4.2,2.3,4.4,-.3L338.1,705c0,-1.4,-1.2,-2.6,-2.6,-2.4l-57.1,8.9c-1.5,.2,-2.7,-1,-2.6,-2.5L295.5,547.3c.3,-2.8,-3.6,-3.6,-4.4,-.9Z" class="g0_12"/>
<path d="M618.6,302.6L326.8,602.4c-1.4,1.4,-.4,3.8,1.6,3.8H493.2c1.7,0,2.8,1.8,2,3.3L349.4,905.3c-1.1,2.4,2,4.5,3.7,2.6L694.6,544.8c1.3,-1.4,.4,-3.7,-1.5,-3.8L513.8,529c-1.6,-.1,-2.6,-1.9,-1.8,-3.3L622.2,305.2c1.2,-2.4,-1.8,-4.5,-3.6,-2.6Z" class="g0_12"/>
<path d="M705.2,679.5l-174.8,83c-1.5,.7,-1.8,2.8,-.4,3.9l37.9,29c1.3,.9,1.2,2.8,-.1,3.7L407.1,903.4c-2.3,1.5,-.4,5.1,2.1,4L655.9,800.1c1.7,-.7,1.9,-3,.3,-4L612.8,767.4c-1.3,-.8,-1.4,-2.6,-.2,-3.6l95.1,-80.5c2,-1.8,-.1,-5,-2.5,-3.8Z" class="g0_12"/>
</g>

</g>
</svg>
