<?xml version="1.0" encoding="UTF-8" standalone="no"?>
<!DOCTYPE svg PUBLIC "-//W3C//DTD SVG 1.1//EN" "http://www.w3.org/Graphics/SVG/1.1/DTD/svg11.dtd">
<svg xmlns="http://www.w3.org/2000/svg" xmlns:xlink="http://www.w3.org/1999/xlink" version="1.1" width="300pt"
     height="300pt" viewBox="0 0 300 300">
    <g enable-background="new">
        <clipPath id="cp6">
            <path transform="matrix(1,0,0,-1,0,300)" d="M 0 300 L 300 300 L 300 0 L 0 0 Z "/>
        </clipPath>
        <g clip-path="url(#cp6)">
            <path transform="matrix(1,0,0,-1,174.513,150)"
                  d="M 0 0 C 0 -37.611 -30.489 -68.101 -68.1 -68.101 C -105.711 -68.101 -136.2 -37.611 -136.2 0 C -136.2 37.611 -105.711 68.1 -68.1 68.1 C -30.489 68.1 0 37.611 0 0 "
                  fill="currentColor"/>
            <path transform="matrix(1,0,0,-1,152.7269,41.03961)"
                  d="M 0 0 C -27.61 0 -52.804 -10.29 -72.006 -27.217 C -59.018 -20.28 -44.19 -16.336 -28.437 -16.336 C 22.717 -16.336 64.187 -57.806 64.187 -108.96 C 64.187 -160.116 22.717 -201.584 -28.437 -201.584 C -44.19 -201.584 -59.018 -197.64 -72.006 -190.704 C -52.804 -207.631 -27.61 -217.921 0 -217.921 C 60.177 -217.921 108.961 -169.138 108.961 -108.96 C 108.961 -48.783 60.177 0 0 0 "
                  fill="currentColor"/>
        </g>
    </g>
</svg>
