<?xml version="1.0" encoding="UTF-8" standalone="no"?>
<!DOCTYPE svg PUBLIC "-//W3C//DTD SVG 1.1//EN" "http://www.w3.org/Graphics/SVG/1.1/DTD/svg11.dtd">
<svg xmlns="http://www.w3.org/2000/svg" xmlns:xlink="http://www.w3.org/1999/xlink" version="1.1" width="300pt" height="300pt" viewBox="0 0 300 300">
<g enable-background="new">
<clipPath id="cp12">
<path transform="matrix(1,0,0,-1,0,300)" d="M 0 300 L 300 300 L 300 0 L 0 0 Z "/>
</clipPath>
<g clip-path="url(#cp12)">
<path transform="matrix(1,0,0,-1,249.8075,202.56491)" d="M 0 0 L -16.72 135.098 C -16.834 136.022 -17.277 136.85 -18 137.437 C -22.515 141.112 -41.526 153.614 -88.889 151.107 C -128.795 148.994 -146.861 133.695 -151.497 129.01 C -152.307 128.192 -152.645 127.047 -152.455 125.913 L -134.437 18.062 L -134.41 18.031 C -144.7 21.488 -158.119 20.639 -171 14.717 C -192.743 4.721 -204.643 -15.841 -197.577 -31.209 C -190.513 -46.576 -167.158 -50.931 -145.415 -40.935 C -126.745 -32.352 -115.373 -15.985 -116.991 -1.8 L -116.8 -2.019 L -132.22 84.318 C -132.22 84.318 -119.514 97.676 -81.069 100.934 C -42.625 104.191 -28.29 97.676 -28.29 97.676 L -18.413 20.338 L -18.392 20.314 C -28.574 23.469 -41.646 22.507 -54.2 16.735 C -75.943 6.739 -87.843 -13.822 -80.778 -29.189 C -73.713 -44.558 -50.359 -48.912 -28.615 -38.916 C -9.949 -30.334 1.422 -13.973 -.191 .211 Z " fill="#231f20"/>
</g>
</g>
</svg>
