<?xml version="1.0" encoding="UTF-8" standalone="no"?>
<!DOCTYPE svg PUBLIC "-//W3C//DTD SVG 1.1//EN"
"http://www.w3.org/Graphics/SVG/1.1/DTD/svg11.dtd">


<!-- Page 14 -->
<svg x="0" y="0" width="935" height="1210" viewBox="0 0 935 1210" version="1.1" xmlns="http://www.w3.org/2000/svg" xmlns:xlink="http://www.w3.org/1999/xlink"
style="display: block;margin-left: auto;margin-right: auto;">
<defs>
<clipPath id="c_14"><path d="M0,0H935V1210H0Z"/></clipPath>
<clipPath id="c0_14"><path d="M168.4,910.6V299.4H766.6V910.6Z"/></clipPath>

<style type="text/css"><![CDATA[

.g0_14{
fill: #241F21;
}

]]></style>

</defs>
<path d="M0,0
L0,1210
L935,1210
L935,0 Z " 
fill="#FFFFFF" stroke="none"/>
<g clip-path="url(#c_14)">
<path d="M519.5,783h-104c-15.9,0,-31.6,6.1,-44.9,17.5l-25.3,21.8v66.2c0,0,54.8,22.1,122,22.1h.4c67.2,0,122,-22.1,122,-22.1V822.3L564.4,800.5C551.1,789.1,535.4,783,519.5,783Z" class="g0_14"/>
<g clip-path="url(#c0_14)">
<path d="M739.9,624.5c0,0,22.8,-152.1,1.9,-181.6c3.9,-21.4,4.3,-56.9,-4.1,-75.1c-12,-6.6,-55.1,14.7,-77.4,25.7C650.2,372.7,632.9,343.4,616.5,328.8c-21.8,.4,-64.4,23.9,-87,36.1C513.6,349.3,488,308.2,467.7,299.6v-.1q-.1,0,-.2,0q-.1,0,-.2,0v.1c-20.3,8.6,-46,49.8,-61.8,65.3c-22.6,-12.2,-65.2,-35.7,-87,-36.1c-16.4,14.6,-33.7,43.9,-43.8,64.7c-22.3,-11,-65.4,-32.3,-77.4,-25.7c-8.4,18.2,-8,53.7,-4.1,75.1c-21,29.5,1.9,181.6,1.9,181.6l-26.7,29.4l33.7,60.7c6.8,12.2,89.3,52.7,126.1,70.3c7.3,3.5,15.5,-2.8,14,-10.7l-3.9,-21.5c-2.7,-14.5,-.8,-29.4,5.2,-42.8L372.8,645c3.7,-13.1,-2.9,-27.3,-13.6,-29.4l-84,-15.7V553.8c0,-10.7,10,-18.5,20.4,-15.9L414.5,568c9.8,0,16.7,12.3,13.6,24.3l-18.3,95.6c-4.3,16.9,5.4,34.3,19.2,34.3h77c13.8,0,23.5,-17.4,19.2,-34.3L506.8,592.3c-3,-12,3.9,-24.3,13.7,-24.3L639.4,537.9c10.3,-2.6,20.4,5.2,20.4,15.9v46.1l-84,15.7c-10.7,2.1,-17.3,16.3,-13.6,29.4l29.3,64.8c6.1,13.5,7.9,28.5,5.2,43l-3.9,21.4c-1.5,7.9,6.7,14.2,14,10.7c36.8,-17.6,119.3,-58.1,126.1,-70.3l33.7,-60.7Z" class="g0_14"/>
</g>

</g>
</svg>
