<?xml version="1.0" encoding="UTF-8" standalone="no"?>
<!DOCTYPE svg PUBLIC "-//W3C//DTD SVG 1.1//EN" "http://www.w3.org/Graphics/SVG/1.1/DTD/svg11.dtd">
<svg xmlns="http://www.w3.org/2000/svg" xmlns:xlink="http://www.w3.org/1999/xlink" version="1.1" width="300pt"
     height="300pt" viewBox="0 0 300 300">
    <g enable-background="new">
        <clipPath id="cp15">
            <path transform="matrix(1,0,0,-1,0,300)" d="M 0 300 L 300 300 L 300 0 L 0 0 Z "/>
        </clipPath>
        <g clip-path="url(#cp15)">
            <path transform="matrix(1,0,0,-1,156.333,289.5287)"
                  d="M 0 0 L -12.666 0 L -12.666 144 C -12.666 146.394 -10.727 148.334 -8.333 148.334 L -4.333 148.334 C -1.939 148.334 0 146.394 0 144 Z "
                  fill="#CE8D4A"/>
            <path transform="matrix(1,0,0,-1,150.5508,90.9438)"
                  d="M 0 0 L 6.956 -45.279 C 6.998 -45.551 7.231 -45.752 7.507 -45.752 L 18.671 -45.752 C 19.012 -45.752 19.272 -45.447 19.221 -45.11 L 0 80 C -.097 80.63 -1.004 80.63 -1.102 80 L -20.322 -45.11 C -20.374 -45.447 -20.113 -45.752 -19.772 -45.752 L -8.607 -45.752 C -8.333 -45.752 -8.1 -45.551 -8.058 -45.279 L -1.102 0 C -1.004 .63 -.097 .63 0 0 "
                  fill="#CE8D4A"/>
            <path transform="matrix(1,0,0,-1,105.667,283.5287)"
                  d="M 0 0 L -12.667 0 L -12.667 119.5 C -12.667 121.894 -10.727 123.834 -8.334 123.834 L -4.334 123.834 C -1.94 123.834 0 121.894 0 119.5 Z "
                  fill="#CE8D4A"/>
            <path transform="matrix(1,0,0,-1,99.8838,109.4438)"
                  d="M 0 0 L 6.956 -45.279 C 6.998 -45.551 7.231 -45.752 7.507 -45.752 L 18.671 -45.752 C 19.012 -45.752 19.272 -45.447 19.221 -45.11 L 0 80 C -.097 80.63 -1.004 80.63 -1.101 80 L -20.322 -45.11 C -20.374 -45.447 -20.113 -45.752 -19.771 -45.752 L -8.607 -45.752 C -8.333 -45.752 -8.099 -45.551 -8.058 -45.279 L -1.101 0 C -1.004 .63 -.097 .63 0 0 "
                  fill="#CE8D4A"/>
            <path transform="matrix(1,0,0,-1,207,283.5287)"
                  d="M 0 0 L -12.667 0 L -12.667 119.5 C -12.667 121.894 -10.727 123.834 -8.333 123.834 L -4.333 123.834 C -1.94 123.834 0 121.894 0 119.5 Z "
                  fill="#CE8D4A"/>
            <path transform="matrix(1,0,0,-1,201.2168,109.4438)"
                  d="M 0 0 L 6.957 -45.279 C 6.998 -45.551 7.232 -45.752 7.507 -45.752 L 18.671 -45.752 C 19.013 -45.752 19.273 -45.447 19.222 -45.11 L 0 80 C -.097 80.63 -1.004 80.63 -1.101 80 L -20.321 -45.11 C -20.373 -45.447 -20.112 -45.752 -19.771 -45.752 L -8.607 -45.752 C -8.332 -45.752 -8.099 -45.551 -8.057 -45.279 L -1.101 0 C -1.004 .63 -.097 .63 0 0 "
                  fill="#CE8D4A"/>
        </g>
    </g>
</svg>
