<?xml version="1.0" encoding="UTF-8" standalone="no"?>
<!DOCTYPE svg PUBLIC "-//W3C//DTD SVG 1.1//EN"
"http://www.w3.org/Graphics/SVG/1.1/DTD/svg11.dtd">


<!-- Page 15 -->
<svg x="0" y="0" width="935" height="1210" viewBox="0 0 935 1210" version="1.1" xmlns="http://www.w3.org/2000/svg" xmlns:xlink="http://www.w3.org/1999/xlink"
style="display: block;margin-left: auto;margin-right: auto;">
<defs>
<clipPath id="c_15"><path d="M0,0H935V1210H0Z"/></clipPath>
<clipPath id="c0_15"><path d="M162.2,764.7V445.3H772.8V764.7Z"/></clipPath>

<style type="text/css"><![CDATA[

.g0_15{
fill: #241F21;
}

]]></style>

</defs>
<path d="M0,0
L0,1210
L935,1210
L935,0 Z " 
fill="#FFFFFF" stroke="none"/>
<g clip-path="url(#c_15)">
<g clip-path="url(#c0_15)">
<path d="M179,589.6l403.7,-115L637,665.3L548.2,619.8l18.1,65.7L477.2,639.3l18.4,66.3L405.9,657.5L425,725.8L335.6,679.6l18.7,66.3L264.4,700.7L283.6,766L194.2,720.6L164.7,615c-3,-10.9,3.3,-22.3,14.3,-25.4Z" class="g0_15"/>
<path d="M768,563.1L748.3,494.7c-4.9,-16.7,-15.9,-30.6,-31.2,-39c-15.3,-8.4,-32.9,-10.4,-49.6,-5.6l-61.2,17.6l16.6,58.9l61.6,-17.8c.3,-.1,.7,-.1,1.1,-.1c.8,0,1.5,.2,1.9,.5c.7,.4,1.6,1.1,2,2.4L709.2,580c.4,1.3,0,2.4,-.3,3.1c-.5,.7,-1.2,1.6,-2.5,2l-62,17.8L661,661.8l62.4,-18c16.7,-4.8,30.5,-15.9,39,-31.1c8.4,-15.3,10.4,-32.9,5.6,-49.6Z" class="g0_15"/>
</g>

</g>
</svg>
