<?xml version="1.0" encoding="UTF-8" standalone="no"?>
<!DOCTYPE svg PUBLIC "-//W3C//DTD SVG 1.1//EN"
"http://www.w3.org/Graphics/SVG/1.1/DTD/svg11.dtd">


<!-- Page 16 -->
<svg x="0" y="0" width="935" height="1210" viewBox="0 0 935 1210" version="1.1" xmlns="http://www.w3.org/2000/svg" xmlns:xlink="http://www.w3.org/1999/xlink"
style="display: block;margin-left: auto;margin-right: auto;">
<defs>
<clipPath id="c_16"><path d="M0,0H935V1210H0Z"/></clipPath>
<clipPath id="c0_16"><path d="M162.2,869.5v-529H772.8v529Z"/></clipPath>

<style type="text/css"><![CDATA[

.g0_16{
fill: #241F21;
}

]]></style>

</defs>
<path d="M0,0
L0,1210
L935,1210
L935,0 Z " 
fill="#FFFFFF" stroke="none"/>
<g clip-path="url(#c_16)">
<g clip-path="url(#c0_16)">
<path d="M472.3,865.5L612.5,622.8c2.5,-4.4,-.7,-9.9,-5.7,-9.9H326.5c-5.1,0,-8.3,5.5,-5.8,9.9L460.9,865.5c2.5,4.4,8.9,4.4,11.4,0L612.5,622.8c2.5,-4.4,-.7,-9.9,-5.7,-9.9H326.5c-5.1,0,-8.3,5.5,-5.8,9.9L460.9,865.5c2.5,4.4,8.9,4.4,11.4,0Z" class="g0_16"/>
</g>
<path d="M462.8,409.2l-93.6,162c-1.7,2.9,.5,6.6,3.9,6.6H560.2c3.3,0,5.5,-3.7,3.8,-6.6l-93.6,-162c-1.7,-3,-5.9,-3,-7.6,0l-93.6,162c-1.7,2.9,.5,6.6,3.9,6.6H560.2c3.3,0,5.5,-3.7,3.8,-6.6l-93.6,-162c-1.7,-3,-5.9,-3,-7.6,0Z" class="g0_16"/>
<g clip-path="url(#c0_16)">
<path d="M630.1,593.1L770.3,350.4c2.5,-4.4,-.7,-9.9,-5.7,-9.9H484.2c-5,0,-8.2,5.5,-5.7,9.9L618.7,593.1c2.5,4.4,8.9,4.4,11.4,0L770.3,350.4c2.5,-4.4,-.7,-9.9,-5.7,-9.9H484.2c-5,0,-8.2,5.5,-5.7,9.9L618.7,593.1c2.5,4.4,8.9,4.4,11.4,0Z" class="g0_16"/>
<path d="M315.8,593.1L455.9,350.4c2.6,-4.4,-.6,-9.9,-5.7,-9.9H169.9c-5,0,-8.2,5.5,-5.7,9.9L304.4,593.1c2.5,4.4,8.9,4.4,11.4,0L455.9,350.4c2.6,-4.4,-.6,-9.9,-5.7,-9.9H169.9c-5,0,-8.2,5.5,-5.7,9.9L304.4,593.1c2.5,4.4,8.9,4.4,11.4,0Z" class="g0_16"/>
</g>

</g>
</svg>
