<?xml version="1.0" encoding="UTF-8" standalone="no"?>
<!DOCTYPE svg PUBLIC "-//W3C//DTD SVG 1.1//EN"
"http://www.w3.org/Graphics/SVG/1.1/DTD/svg11.dtd">


<!-- Page 17 -->
<svg x="0" y="0" width="935" height="1210" viewBox="0 0 935 1210" version="1.1" xmlns="http://www.w3.org/2000/svg" xmlns:xlink="http://www.w3.org/1999/xlink"
style="display: block;margin-left: auto;margin-right: auto;">
<defs>
<clipPath id="c_17"><path d="M0,0H935V1210H0Z"/></clipPath>
<clipPath id="c0"><path d="M160.4,885.9V324.1H774.6V885.9Z"/></clipPath>

<style type="text/css"><![CDATA[

.g0_17{
fill: #241F21;
}

]]></style>

</defs>
<path d="M0,0
L0,1210
L935,1210
L935,0 Z " 
fill="#FFFFFF" stroke="none"/>
<g clip-path="url(#c_17)">
<g clip-path="url(#c0)">
<path d="M315.5,330.6c-7.7,-6.5,-46.5,52.6,-40.5,87c-.6,12.1,34.4,54.6,50.6,52.6c16.2,-2,38.5,-18.5,44.5,-34.7C376.2,419.4,348,358.1,315.5,330.6Z" class="g0_17"/>
<path d="M620.3,330.6c7.7,-6.5,46.5,52.6,40.4,87c.7,12.1,-34.4,54.6,-50.6,52.6c-16.1,-2,-38.4,-18.5,-44.5,-34.7c-6,-16.1,22.1,-77.4,54.7,-104.9Z" class="g0_17"/>
<path d="M768.6,540.4c-20.9,30.4,-66.1,40.5,-66.1,40.5c0,0,15.5,-27,37.8,-68.1C752.4,464.9,720.7,425.1,705.9,417C643.2,516.1,512.4,566.7,505.6,559.3c-6.7,-7.4,43.2,-94.9,45.2,-98.4c2,-3.6,-29,-35.8,-29,-35.8c0,0,-43.1,-41.2,-53.9,-41.2c-10.8,0,-54.7,41.1,-54.7,41.1c0,0,-31,32.2,-28.9,35.7c2,3.6,51.9,91.1,45.1,98.5C422.7,566.6,291.9,516,229.2,416.9c-14.8,8.1,-46.5,47.9,-34.4,95.8c22.2,41.1,37.8,68.1,37.8,68.1c0,0,-45.2,-10.2,-66.1,-40.5c-6.1,33.7,0,85.6,0,85.6c0,0,31,59.4,92.4,63.4c-36.5,23.6,-63.4,43.8,-62.8,48.5c.7,4.8,76.2,36.5,130.2,27c-6.8,15.5,-24.3,31.7,-23.6,33.7c.7,2.1,44.5,20.9,59.3,22.3c9,15.5,33.7,57.3,41.1,58.6c-4,-20.9,-7.4,-37.7,-1.3,-56.6c-9.5,-27,-38.9,-79,-47.2,-98.4C333,720.3,298.9,713,289.9,695.4c-7.2,-14,30.9,-37.8,32.8,-37.8c6.3,0,27.5,29.4,44.8,44.6c23,-29,71.2,-72,99.7,-72.6c28.4,0,77.1,43.5,100.3,72.7c17.3,-15.2,38.6,-44.6,44.9,-44.6c1.9,0,39.9,23.8,32.8,37.8c-9.1,17.6,-43.2,24.9,-64.7,29c-8.3,19.4,-37.8,71.4,-47.2,98.4c6,18.9,2.7,35.7,-1.4,56.6c7.4,-1.3,32.2,-43.1,41.2,-58.6c14.8,-1.4,58.6,-20.2,59.3,-22.3c.7,-2,-16.9,-18.2,-23.6,-33.7c53.9,9.5,129.4,-22.2,130.1,-26.9c.7,-4.8,-26.3,-25,-62.7,-48.6c61.4,-4,92.4,-63.4,92.4,-63.4c0,0,6,-51.9,0,-85.6Z" class="g0_17"/>
</g>
<path d="M534,756.7c0,0,17.5,-31,16.1,-35.7C548.8,716.3,507,668.4,467.9,668.4c-39.1,0,-81,47.9,-82.3,52.6c-1.3,4.7,16.2,35.7,16.2,35.7c0,0,33,-8.7,43.1,-7.4c-8.1,13.5,-31.7,21.6,-36.4,22.9c2,10.1,12.8,31.7,12.8,31.7c0,0,19.6,-10.1,46.6,-10.1c26.9,0,46.5,10.1,46.5,10.1c0,0,10.8,-21.6,12.8,-31.7c-4.7,-1.3,-28.3,-9.4,-36.4,-22.9c10.1,-1.3,43.2,7.4,43.2,7.4Z" class="g0_17"/>
<g clip-path="url(#c0)">
<path d="M509.1,826.8c0,0,-14.2,-10.7,-41.2,-10.7c-27,0,-41.2,10.7,-41.2,10.7c0,0,-5.4,17.6,0,29.7c10.1,-8.1,18.9,-12.1,25.7,-5.4c6.7,6.8,10.1,20.9,0,28.3c6.7,6.1,8.1,7.4,15.5,7.4c7.4,0,8.8,-1.3,15.5,-7.4c-10.1,-7.4,-6.7,-21.5,0,-28.3c6.7,-6.7,15.5,-2.7,25.7,5.4c5.4,-12.1,0,-29.7,0,-29.7Z" class="g0_17"/>
</g>

</g>
</svg>
