<?xml version="1.0" encoding="UTF-8" standalone="no"?>
<!DOCTYPE svg PUBLIC "-//W3C//DTD SVG 1.1//EN"
"http://www.w3.org/Graphics/SVG/1.1/DTD/svg11.dtd">


<!-- Page 2 -->
<svg x="0" y="0" width="935" height="1210" viewBox="0 0 935 1210" version="1.1" xmlns="http://www.w3.org/2000/svg" xmlns:xlink="http://www.w3.org/1999/xlink"
style="display: block;margin-left: auto;margin-right: auto;">
<defs>
<clipPath id="c_2"><path d="M0,0H935V1210H0Z"/></clipPath>
<clipPath id="c0_2"><path d="M162.9,909.6V300.4H772.1V909.6Z"/></clipPath>

<style type="text/css"><![CDATA[

.g0_2{
fill: #241F21;
}

]]></style>

</defs>
<path d="M0,0
L0,1210
L935,1210
L935,0 Z " 
fill="#FFFFFF" stroke="none"/>
<g clip-path="url(#c_2)">
<path d="M574.9,433.3L473.2,402.9c-8.3,-2.5,-13,-10.1,-10.2,-16.2L499.8,308c2.4,-5.2,9.5,-7.6,16.5,-5.5l77.5,23.2c7,2.1,11.7,8,10.9,13.7l-12.5,85.9c-1,6.7,-9.1,10.5,-17.3,8Z" class="g0_2"/>
<path d="M421.8,408.1l-93.4,50.5c-7.6,4,-16.3,2.1,-18.6,-4.3L280.1,372.7c-1.9,-5.4,1.4,-12.2,7.9,-15.6l71.1,-38.5c6.5,-3.4,14,-2.6,17.4,2l52,69.7c4,5.4,.9,13.7,-6.7,17.8Z" class="g0_2"/>
<path d="M295.8,498.6L265.4,600.3c-2.5,8.3,-10.1,13,-16.2,10.1L170.5,573.7c-5.2,-2.4,-7.6,-9.6,-5.5,-16.6l23.2,-77.4c2.1,-7.1,8,-11.7,13.7,-10.9l86,12.4c6.7,1,10.4,9.1,7.9,17.4Z" class="g0_2"/>
<path d="M270.7,651.6l50.4,93.5c4.1,7.6,2.1,16.3,-4.3,18.6l-81.6,29.7c-5.4,1.9,-12.1,-1.4,-15.6,-7.9L181.1,714.3c-3.4,-6.4,-2.6,-13.9,2.1,-17.3l69.6,-52c5.4,-4,13.7,-.9,17.9,6.6Z" class="g0_2"/>
<g clip-path="url(#c0_2)">
<path d="M361.1,777.7l101.7,30.4c8.3,2.5,13,10,10.2,16.1L436.2,903c-2.4,5.2,-9.6,7.5,-16.6,5.4L342.2,885.3c-7.1,-2.1,-11.7,-8,-10.9,-13.7l12.5,-86c.9,-6.7,9,-10.4,17.3,-7.9Z" class="g0_2"/>
</g>
<path d="M514.2,802.8l93.4,-50.4c7.6,-4.1,16.3,-2.1,18.6,4.3l29.7,81.6c1.9,5.4,-1.4,12.1,-7.9,15.6l-71.2,38.4c-6.4,3.5,-13.9,2.6,-17.3,-2l-52,-69.6c-4,-5.4,-.9,-13.8,6.7,-17.9Z" class="g0_2"/>
<g clip-path="url(#c0_2)">
<path d="M640.2,712.4L670.6,610.6c2.5,-8.2,10,-13,16.2,-10.1l78.7,36.7c5.2,2.5,7.5,9.6,5.5,16.6l-23.2,77.5c-2.1,7,-8,11.7,-13.7,10.9l-86,-12.5c-6.7,-1,-10.4,-9.1,-7.9,-17.3Z" class="g0_2"/>
</g>
<path d="M665.3,559.3L614.9,465.8c-4.1,-7.5,-2.1,-16.2,4.3,-18.5l81.6,-29.7c5.4,-2,12.1,1.4,15.6,7.9l38.4,71.1c3.5,6.5,2.6,13.9,-2,17.4l-69.6,51.9c-5.4,4.1,-13.8,1,-17.9,-6.6Z" class="g0_2"/>
<path d="M514.6,449.7C428.7,424.1,337.9,473,312.2,558.9c-25.6,85.9,23.4,176.7,109.2,202.3C507.3,786.9,598.1,737.9,623.7,652C649.4,566.1,600.4,475.4,514.6,449.7m-77.8,260C379.2,692.5,346.5,631.9,363.7,574.3C380.9,516.8,441.6,484,499.2,501.2c57.6,17.2,90.3,77.9,73.1,135.4c-17.2,57.6,-77.9,90.3,-135.5,73.1Z" class="g0_2"/>
<path d="M533.7,385.5C412.3,349.2,284.4,418.3,248.1,539.7c-36.4,121.5,32.7,249.4,154.2,285.7C523.7,861.7,651.6,792.7,687.9,671.2C724.2,549.8,655.2,421.9,533.7,385.5M412.8,790.1C311,759.6,253,652.1,283.4,550.3C313.9,448.5,421.4,390.5,523.2,420.9c101.7,30.4,159.8,138,129.4,239.7C622.2,762.4,514.6,820.5,412.8,790.1Z" class="g0_2"/>

</g>
</svg>
