<?xml version="1.0" encoding="UTF-8" standalone="no"?>
<!DOCTYPE svg PUBLIC "-//W3C//DTD SVG 1.1//EN"
"http://www.w3.org/Graphics/SVG/1.1/DTD/svg11.dtd">


<!-- Page 3 -->
<svg x="0" y="0" width="935" height="1210" viewBox="0 0 935 1210" version="1.1" xmlns="http://www.w3.org/2000/svg" xmlns:xlink="http://www.w3.org/1999/xlink"
style="display: block;margin-left: auto;margin-right: auto;">
<defs>
<clipPath id="c_3"><path d="M0,0H935V1210H0Z"/></clipPath>
<clipPath id="c0_3"><path d="M162.6,909.6V300.5H772.4V909.6Z"/></clipPath>

<style type="text/css"><![CDATA[

.g0_3{
fill: #241F21;
}

]]></style>

</defs>
<path d="M0,0
L0,1210
L935,1210
L935,0 Z " 
fill="#FFFFFF" stroke="none"/>
<g clip-path="url(#c_3)">
<g clip-path="url(#c0_3)">
<path d="M772.7,685.1c-77.3,17.7,-163.6,-2.2,-225.5,-53c88.5,-28.8,157,-101.7,192.4,-185.7C697.5,512.7,622.4,559.1,542.8,568c39.8,-84,42,-183.5,4.4,-267.5c17.7,77.4,-2.2,163.6,-53,225.5C465.5,437.5,392.5,369,308.5,333.7c66.3,42,112.7,117.1,121.6,196.7c-84,-39.8,-183.5,-42,-267.5,-4.4c77.4,-17.7,163.6,2.2,225.5,53C299.7,607.8,231.2,680.7,195.8,764.7C237.8,698.4,312.9,652,392.5,643.1c-39.8,84,-42,183.5,-4.4,267.5c-17.7,-77.4,2.2,-163.6,53,-225.5C469.9,773.5,542.8,842,626.8,877.4C560.5,835.4,514.1,760.3,505.2,680.7c84,39.8,183.5,42,267.5,4.4m-305,-50.8c-6.7,26.5,-2.2,55.2,13.2,77.4C458.8,689.5,443.4,658.6,447.8,625.4c-4.4,4.4,-8.9,6.7,-15.5,11.1c-17.7,13.2,-26.5,30.9,-28.7,53c0,-30.9,11,-64.1,35.3,-84c-26.5,-6.6,-55.2,-2.2,-77.3,13.3c22.1,-22.1,53,-37.6,86.2,-33.2c-4.4,-4.4,-6.7,-8.8,-11.1,-15.4c-13.3,-17.7,-30.9,-26.5,-53,-28.8c30.9,0,64.1,11.1,84,35.4c6.6,-26.5,2.2,-55.3,-13.3,-77.3c22.1,22,37.6,53,33.2,86.1c4.4,-4.4,8.8,-6.6,15.4,-11c17.7,-13.3,26.5,-30.9,28.8,-53.1c0,31,-11.1,64.1,-35.4,84c26.5,6.7,55.3,2.3,77.4,-13.2c-22.1,22.1,-53.1,37.5,-86.2,33.1c4.4,4.4,6.6,8.9,11,15.5c13.3,17.7,30.9,26.5,53.1,28.7c-31,0,-64.1,-11,-84,-35.3Z" class="g0_3"/>
</g>

</g>
</svg>
