<?xml version="1.0" encoding="UTF-8" standalone="no"?>
<!DOCTYPE svg PUBLIC "-//W3C//DTD SVG 1.1//EN" "http://www.w3.org/Graphics/SVG/1.1/DTD/svg11.dtd">
<svg xmlns="http://www.w3.org/2000/svg" xmlns:xlink="http://www.w3.org/1999/xlink" version="1.1" width="300pt"
     height="300pt" viewBox="0 0 300 300">
    <g enable-background="new">
        <clipPath id="cp3">
            <path transform="matrix(1,0,0,-1,0,300)" d="M 0 300 L 300 300 L 300 0 L 0 0 Z "/>
        </clipPath>
        <g clip-path="url(#cp3)">
            <path transform="matrix(1,0,0,-1,169.504,216.8105)"
                  d="M 0 0 L -.167 0 L -19.421 0 L -19.588 0 L -38.841 0 L -39.008 0 C -45.007 0 -50.871 -2.285 -55.862 -6.567 L -65.379 -14.732 L -65.379 -39.592 C -65.379 -39.592 -44.81 -47.879 -19.588 -47.879 C -19.56 -47.879 -19.532 -47.878 -19.504 -47.878 C -19.477 -47.878 -19.448 -47.879 -19.421 -47.879 C 5.802 -47.879 26.371 -39.592 26.371 -39.592 L 26.371 -14.732 L 16.854 -6.567 C 11.862 -2.285 5.998 0 0 0 "
                  fill="currentColor"/>
            <path transform="matrix(1,0,0,-1,252.2326,157.3066)"
                  d="M 0 0 C 0 0 8.587 57.086 .716 68.136 C 2.185 76.163 2.351 89.496 -.815 96.329 C -5.322 98.829 -21.482 90.829 -29.851 86.684 C -33.649 94.496 -40.149 105.496 -46.315 110.996 C -54.482 110.829 -70.482 101.996 -78.973 97.436 C -84.93 103.292 -94.523 118.727 -102.149 121.923 L -102.149 121.996 C -102.177 121.984 -102.205 121.971 -102.232 121.959 C -102.26 121.971 -102.288 121.984 -102.316 121.996 L -102.316 121.923 C -109.941 118.727 -119.575 103.243 -125.492 97.436 C -133.982 101.996 -149.982 110.829 -158.149 110.996 C -164.316 105.496 -170.816 94.496 -174.614 86.684 C -182.982 90.829 -199.143 98.829 -203.649 96.329 C -206.816 89.496 -206.649 76.163 -205.181 68.136 C -213.052 57.086 -204.466 0 -204.466 0 L -214.482 -11.049 L -201.846 -33.815 C -199.292 -38.416 -168.323 -53.616 -154.515 -60.224 C -151.771 -61.536 -148.703 -59.184 -149.251 -56.193 L -150.731 -48.12 C -151.727 -42.697 -151.045 -37.1 -148.777 -32.073 L -137.79 -7.715 C -136.385 -2.79 -138.856 2.552 -142.892 3.308 L -174.415 9.208 L -174.415 26.52 C -174.415 30.532 -170.638 33.471 -166.749 32.486 L -122.113 21.178 C -118.447 21.178 -115.854 16.563 -117.004 12.083 L -123.892 -23.812 C -125.518 -30.146 -121.851 -36.673 -116.667 -36.673 L -87.799 -36.673 C -82.614 -36.673 -78.948 -30.146 -80.573 -23.812 L -87.461 12.083 C -88.61 16.563 -86.019 21.178 -82.353 21.178 L -37.716 32.486 C -33.827 33.471 -30.051 30.532 -30.051 26.52 L -30.051 9.208 L -61.573 3.308 C -65.608 2.552 -68.081 -2.79 -66.675 -7.715 L -55.675 -32.047 C -53.396 -37.09 -52.713 -42.708 -53.718 -48.15 L -55.202 -56.183 C -55.755 -59.175 -52.685 -61.532 -49.94 -60.219 C -36.126 -53.608 -5.173 -38.415 -2.62 -33.815 L 10.018 -11.049 Z "
                  fill="currentColor"/>
        </g>
    </g>
</svg>
