<?xml version="1.0" encoding="UTF-8" standalone="no"?>
<!DOCTYPE svg PUBLIC "-//W3C//DTD SVG 1.1//EN"
"http://www.w3.org/Graphics/SVG/1.1/DTD/svg11.dtd">


<!-- Page 4 -->
<svg x="0" y="0" width="935" height="1210" viewBox="0 0 935 1210" version="1.1" xmlns="http://www.w3.org/2000/svg" xmlns:xlink="http://www.w3.org/1999/xlink"
style="display: block;margin-left: auto;margin-right: auto;">
<defs>
<clipPath id="c_4"><path d="M0,0H935V1210H0Z"/></clipPath>
<clipPath id="c0_4"><path d="M182.6,909.5v-609H752.4v609Z"/></clipPath>

<style type="text/css"><![CDATA[

.g0_4{
fill: #241F21;
}

]]></style>

</defs>
<path d="M0,0
L0,1210
L935,1210
L935,0 Z " 
fill="#FFFFFF" stroke="none"/>
<g clip-path="url(#c_4)">
<path d="M627,368.1c-.8,-.2,-1.8,-.1,-2.6,.6L341.1,607.5c-1.8,1.6,-2.8,4,-2.5,6.4l10.6,77.3c.4,2.7,-.3,5.3,-2,7.4l-39.5,52.1l12.2,9.3L499.7,536.8c.4,-.5,1.1,.1,.7,.6L425.1,642.5L528.8,590.9L629,372.2c.8,-1.9,-.4,-3.6,-2,-4.1Z" class="g0_4"/>
<path d="M279.6,772.9l-2.2,-.8l12.8,4.7c1.7,-.9,3.5,-1.7,5.2,-2.5l6.7,-18.2c-5.7,-.9,-11.4,-.9,-16.9,0Z" class="g0_4"/>
<path d="M291.2,737.8c5.3,-.1,10.5,.3,15.8,1.3l2.4,-3.3l7,-19.2c.9,-2.4,2.7,-4.4,5.1,-5.6L332,706.1L341.2,694c.4,-.5,.6,-1.1,.5,-1.7L331.4,616.8Z" class="g0_4"/>
<g clip-path="url(#c0_4)">
<path d="M271.4,700.3l-18.3,50.4c6.4,-4.5,13.5,-7.9,20.9,-10L369,500.6c.2,-.6,1,-.3,.8,.3L336.5,601.6l77.3,-65.3L443.6,305c.4,-3.1,-3.7,-4.6,-5.4,-1.9L238.6,615.2c-1.4,2,-1.5,4.6,-.5,6.8l33,70.7c1.1,2.4,1.2,5.2,.3,7.6Z" class="g0_4"/>
<path d="M749.4,490.5c-.6,-.2,-1.3,-.2,-2,.2l-331.8,165c-2.2,1.1,-3.6,3.2,-3.9,5.6l-8,77.6c-.3,2.7,-1.6,5.1,-3.7,6.8l-50.7,41.2l9.6,11.9L586.4,624.5c.5,-.4,1.1,.3,.6,.7L369.7,812.1l9.7,11.9l50.8,-41.2c2,-1.7,4.7,-2.5,7.3,-2.2l77.6,8c2.4,.3,4.8,-.7,6.3,-2.6L751,495.1c1.4,-1.8,.3,-4.1,-1.6,-4.6Z" class="g0_4"/>
</g>
<path d="M301.9,860.9c4.3,-5.3,7.9,-11.5,10.3,-18.3c6.4,-17.6,4.5,-36.2,-3.8,-51.5c-6.5,1.9,-12.7,5,-18.1,9.4c-1,.7,-1.8,1.6,-2.7,2.4c5,9.4,6.1,20.8,2.2,31.5c-3.1,8.6,-8.9,15.4,-16.1,19.8c.4,1.3,.9,2.6,1.4,3.9c1.6,.6,3.2,1.1,4.9,1.6c7.3,1.9,14.7,2.3,21.9,1.2Z" class="g0_4"/>
<path d="M274,788.1c1.1,-1.1,2.3,-2.2,3.6,-3.2C283,780.5,289,777,295.3,774.4c-5.8,-5.4,-12.8,-9.7,-20.8,-12.6c-1.2,-.4,-2.5,-.8,-3.7,-1.2c-7.4,3.6,-14,8.9,-19.2,15.7c-1.5,2,-2.8,4,-3.9,6.1c6.1,-.9,12.5,-.4,18.7,1.9c2.7,1,5.2,2.3,7.6,3.8Z" class="g0_4"/>
<g clip-path="url(#c0_4)">
<path d="M258,869.3c-2.4,-1.4,-4.7,-3,-6.9,-4.6c-2.3,-1.7,-4.3,-3.5,-6.3,-5.4c-1.7,-.4,-3.5,-.8,-5.1,-1.4C219.3,850.5,208.9,828,216.2,807.7c2,-5.2,4.8,-9.7,8.4,-13.5c2.1,-10.2,6.5,-19.9,13,-28.5c1.9,-2.5,3.9,-4.8,6.1,-7c-22.1,3.4,-41.7,18.4,-49.9,40.9c-11.9,32.7,5,68.8,37.7,80.7c11.5,4.2,23.5,4.8,34.6,2.4c-3.3,-4.2,-6,-8.7,-8.1,-13.4Z" class="g0_4"/>
</g>
<path d="M340.6,771.5c3,.9,6,2,8.9,3.1l35.8,-47c1.6,-2.1,4,-3.5,6.6,-3.9l5.8,-.8l5.1,-49.3l-69.1,96.5c2.3,.3,4.6,.8,6.9,1.4Z" class="g0_4"/>
<path d="M328,789.6c7.3,13.1,6.6,29.8,-3.1,42.5c-12.7,16.7,-36.1,20.3,-53.3,8.5c.3,10.5,3.6,20.9,10.4,29.8c22.8,4.3,47,-4.1,62,-23.8c9.9,-13,13.9,-28.7,12.6,-43.8c-6,-5.6,-13.3,-9.7,-21.3,-11.8c-2.4,-.7,-4.8,-1.1,-7.3,-1.4Z" class="g0_4"/>
<path d="M255.5,816.3c-2.2,-10.7,.1,-22.2,7.2,-31.5c10.2,-13.5,27.5,-18.4,42.7,-13.7c11.5,-2.7,23.5,-2.7,35.2,.5c1.9,.4,3.7,1,5.5,1.7c-3.7,-5.6,-8.5,-10.7,-14.1,-15c-27.8,-21.1,-67.3,-15.7,-88.4,12c-20.5,27,-15.9,65.3,10,86.7c-3.3,-13.5,-2.6,-27.7,1.9,-40.7Z" class="g0_4"/>
<g clip-path="url(#c0_4)">
<path d="M273.2,879.5c21.9,27,61.6,31.1,88.6,9.1C388.9,866.7,393,827,371,800c-21.9,-27,-61.6,-31.1,-88.6,-9.2c-27,21.9,-31.2,61.6,-9.2,88.7m79.3,-64.4c13.6,16.8,11,41.4,-5.7,55c-16.8,13.6,-41.5,11,-55.1,-5.7c-13.6,-16.8,-11,-41.4,5.8,-55.1c16.7,-13.6,41.4,-11,55,5.8Z" class="g0_4"/>
</g>

</g>
</svg>
