<?xml version="1.0" encoding="UTF-8" standalone="no"?>
<!DOCTYPE svg PUBLIC "-//W3C//DTD SVG 1.1//EN" "http://www.w3.org/Graphics/SVG/1.1/DTD/svg11.dtd">
<svg xmlns="http://www.w3.org/2000/svg" xmlns:xlink="http://www.w3.org/1999/xlink" version="1.1" width="300pt" height="300pt" viewBox="0 0 300 300">
<g enable-background="new">
<clipPath id="cp4">
<path transform="matrix(1,0,0,-1,0,300)" d="M 0 300 L 300 300 L 300 0 L 0 0 Z "/>
</clipPath>
<g clip-path="url(#cp4)">
<path transform="matrix(1,0,0,-1,152.0292,256.9463)" d="M 0 0 L 56.118 97.2 C 57.134 98.96 55.864 101.159 53.832 101.159 L -58.404 101.159 C -60.437 101.159 -61.706 98.96 -60.69 97.2 L -4.571 0 C -3.556 -1.76 -1.017 -1.76 0 0 L 56.118 97.2 C 57.134 98.96 55.864 101.159 53.832 101.159 L -58.404 101.159 C -60.437 101.159 -61.706 98.96 -60.69 97.2 L -4.571 0 C -3.556 -1.76 -1.017 -1.76 0 0 " fill="#030404"/>
<path transform="matrix(1,0,0,-1,148.2176,74.2271)" d="M 0 0 L -37.459 -64.88 C -38.137 -66.055 -37.289 -67.523 -35.934 -67.523 L 38.984 -67.523 C 40.341 -67.523 41.188 -66.055 40.51 -64.88 L 3.051 0 C 2.373 1.174 .678 1.174 0 0 L -37.459 -64.88 C -38.137 -66.055 -37.289 -67.523 -35.934 -67.523 L 38.984 -67.523 C 40.341 -67.523 41.188 -66.055 40.51 -64.88 L 3.051 0 C 2.373 1.174 .678 1.174 0 0 " fill="#030404"/>
<path transform="matrix(1,0,0,-1,215.2137,147.8931)" d="M 0 0 L 56.118 97.2 C 57.134 98.959 55.864 101.159 53.832 101.159 L -58.404 101.159 C -60.437 101.159 -61.706 98.959 -60.69 97.2 L -4.571 0 C -3.556 -1.759 -1.017 -1.759 0 0 L 56.118 97.2 C 57.134 98.959 55.864 101.159 53.832 101.159 L -58.404 101.159 C -60.437 101.159 -61.706 98.959 -60.69 97.2 L -4.571 0 C -3.556 -1.759 -1.017 -1.759 0 0 " fill="#030404"/>
<path transform="matrix(1,0,0,-1,89.3583,147.8931)" d="M 0 0 L 56.118 97.2 C 57.134 98.959 55.864 101.159 53.832 101.159 L -58.404 101.159 C -60.437 101.159 -61.706 98.959 -60.69 97.2 L -4.571 0 C -3.556 -1.759 -1.017 -1.759 0 0 L 56.118 97.2 C 57.134 98.959 55.864 101.159 53.832 101.159 L -58.404 101.159 C -60.437 101.159 -61.706 98.959 -60.69 97.2 L -4.571 0 C -3.556 -1.759 -1.017 -1.759 0 0 " fill="#030404"/>
</g>
</g>
</svg>
