<?xml version="1.0" encoding="UTF-8" standalone="no"?>
<!DOCTYPE svg PUBLIC "-//W3C//DTD SVG 1.1//EN"
"http://www.w3.org/Graphics/SVG/1.1/DTD/svg11.dtd">


<!-- Page 6 -->
<svg x="0" y="0" width="935" height="1210" viewBox="0 0 935 1210" version="1.1" xmlns="http://www.w3.org/2000/svg" xmlns:xlink="http://www.w3.org/1999/xlink"
style="display: block;margin-left: auto;margin-right: auto;">
<defs>
<clipPath id="c_6"><path d="M0,0H935V1210H0Z"/></clipPath>
<clipPath id="c0_6"><path d="M161.5,869.1V340.9h612V869.1Z"/></clipPath>

<style type="text/css"><![CDATA[

.g0_6{
fill: #241F21;
}

]]></style>

</defs>
<path d="M0,0
L0,1210
L935,1210
L935,0 Z " 
fill="#FFFFFF" stroke="none"/>
<g clip-path="url(#c_6)">
<g clip-path="url(#c0_6)">
<path d="M337.7,870.1c0,0,48.1,-28.9,67.4,-67.4c19.3,-38.6,13.3,-56.6,13.3,-56.6c0,0,34.9,0,40.3,-36.1c17.4,14.4,43.3,18.6,61.4,7.8c15,10.8,61.5,10,77,-16.3c17.5,-29.4,7.4,-45.1,4.2,-52.3c10.3,3,18.1,1.2,29.5,-3.6c11.5,6.6,57.1,24.1,93.9,-1.8c16.3,-11.5,30.7,-30.1,30.7,-53c18.1,-25.3,3,-100.5,-33.7,-114.3c0,-15.7,-48.7,-54.8,-75.8,-54.2C636.2,405.4,614.6,385,586.9,385C564.6,360.9,523.7,349.4,487,354.8c-27.7,-13.8,-53.6,-6.6,-69.9,-.3c-27,-6.9,-47.5,-1.4,-61.3,4c-36.2,5.4,-56.6,17.4,-65,33.7c-43.4,17.5,-74.7,49.9,-75.9,87.8c-24,21.7,-31.3,45.2,-26.5,62.6c-19.8,18.7,-27.6,50,-8.4,66c-7.2,36.4,16.9,59.3,48.2,60.4C165,712.4,282.3,794.2,353.9,789.4c1.2,15.1,-1.7,56.6,-16.2,80.7Z" class="g0_6"/>
</g>

</g>
</svg>
