<?xml version="1.0" encoding="UTF-8" standalone="no"?>
<!DOCTYPE svg PUBLIC "-//W3C//DTD SVG 1.1//EN" "http://www.w3.org/Graphics/SVG/1.1/DTD/svg11.dtd">
<svg xmlns="http://www.w3.org/2000/svg" xmlns:xlink="http://www.w3.org/1999/xlink" version="1.1" width="300pt"
     height="300pt" viewBox="0 0 300 300">
    <g enable-background="new">
        <clipPath id="cp7">
            <path transform="matrix(1,0,0,-1,0,300)" d="M 0 300 L 300 300 L 300 0 L 0 0 Z "/>
        </clipPath>
        <g clip-path="url(#cp7)">
            <path transform="matrix(1,0,0,-1,160.833,133.1055)"
                  d="M 0 0 C -1.5 -3 -5.333 -4.25 -10.833 -4.25 C -16.333 -4.25 -20.166 -3 -21.666 0 C -23.166 3 -15.916 16.75 -10.833 16.75 C -5.75 16.75 1.5 3 0 0 M 58.917 36.75 C 59.417 39.25 51.917 42.75 50.417 45.25 C 48.917 47.75 55.417 60.75 52.417 66.75 C 49.417 72.75 48.393 82.187 41.417 92.75 C 24.217 118.796 -6.583 116.75 -10.833 116.75 C -15.083 116.75 -45.883 118.796 -63.083 92.75 C -70.06 82.187 -71.083 72.75 -74.083 66.75 C -77.083 60.75 -70.583 47.75 -72.083 45.25 C -73.583 42.75 -81.083 39.25 -80.583 36.75 C -80.083 34.25 -70.083 22.25 -69.583 18.25 C -69.083 14.25 -72.083 3.5 -69.083 -4.75 C -57.583 6.25 -50.42 10.753 -48.083 13.75 C -50.333 16.75 -52.083 18.75 -50.583 23.25 C -49.083 27.75 -45.689 34.613 -44.095 35.75 C -40.985 37.967 -21.583 31.683 -21.583 29.75 C -21.583 23.75 -31.583 17.25 -45.583 5.25 C -59.583 -6.75 -77.083 -21.75 -76.583 -24.75 C -76.083 -27.75 -47.083 -85 -48.083 -94 C -49.083 -103 -54.583 -120 -54.583 -120 C -54.583 -120 -43.583 -135.5 -41.083 -134 C -38.583 -132.5 -39.083 -131 -40.583 -126.5 C -42.083 -122 -45.583 -115 -45.583 -112.5 C -45.583 -110 -36.583 -98 -36.583 -98 C -36.583 -98 -38.819 -83.873 -39.319 -81.373 C -39.819 -78.873 -42.583 -76 -44.083 -72.5 C -45.583 -69 -61.583 -24.75 -61.583 -24.75 L -45.083 -13.75 C -45.083 -13.75 -40.583 -20.25 -36.583 -22.25 C -32.583 -24.25 -41.083 -44.5 -41.083 -46.5 C -41.083 -48.5 -21.583 -88 -22.083 -91 C -22.583 -94 -31.583 -124.5 -31.083 -128 C -30.583 -131.5 -22.564 -137.5 -22.073 -140 C -21.583 -142.5 -19.583 -151.5 -17.083 -150.5 C -14.583 -149.5 -13.295 -144.654 -16.709 -137 C -19.058 -131.733 -22.583 -129.5 -22.083 -124.5 C -21.583 -119.5 -11.083 -99.5 -13.083 -90.5 C -15.083 -81.5 -27.258 -56.115 -27.258 -52.713 C -27.258 -49.311 -23.49 -30.346 -22.308 -27.325 C -20.958 -23.877 -17.179 -18.728 -15.833 -17.167 C -13.75 -14.75 -10.833 -19.5 -10.833 -19.5 C -10.833 -19.5 -7.916 -14.75 -5.833 -17.167 C -4.487 -18.728 -.708 -23.877 .642 -27.325 C 1.824 -30.346 5.592 -49.311 5.592 -52.713 C 5.592 -56.115 -6.583 -81.5 -8.583 -90.5 C -10.583 -99.5 -.083 -119.5 .417 -124.5 C .917 -129.5 -2.608 -131.733 -4.957 -137 C -8.371 -144.654 -7.083 -149.5 -4.583 -150.5 C -2.083 -151.5 -.083 -142.5 .407 -140 C .898 -137.5 8.917 -131.5 9.417 -128 C 9.917 -124.5 .917 -94 .417 -91 C -.083 -88 19.417 -48.5 19.417 -46.5 C 19.417 -44.5 10.917 -24.25 14.917 -22.25 C 18.917 -20.25 23.417 -13.75 23.417 -13.75 L 39.917 -24.75 C 39.917 -24.75 23.917 -69 22.417 -72.5 C 20.917 -76 18.152 -78.873 17.652 -81.373 C 17.152 -83.873 14.917 -98 14.917 -98 C 14.917 -98 23.917 -110 23.917 -112.5 C 23.917 -115 20.417 -122 18.917 -126.5 C 17.417 -131 16.917 -132.5 19.417 -134 C 21.917 -135.5 32.917 -120 32.917 -120 C 32.917 -120 27.417 -103 26.417 -94 C 25.417 -85 54.417 -27.75 54.917 -24.75 C 55.417 -21.75 37.917 -6.75 23.917 5.25 C 9.917 17.25 -.083 22.75 -.083 29.75 C -.083 31.683 19.319 37.967 22.429 35.75 C 24.023 34.613 27.417 27.75 28.917 23.25 C 30.417 18.75 28.667 16.75 26.417 13.75 C 28.754 10.753 35.917 6.25 47.417 -4.75 C 50.417 3.5 47.417 14.25 47.917 18.25 C 48.417 22.25 58.417 34.25 58.917 36.75 "
                  fill="currentColor"/>
        </g>
    </g>
</svg>
