<?xml version="1.0" encoding="UTF-8" standalone="no"?>
<!DOCTYPE svg PUBLIC "-//W3C//DTD SVG 1.1//EN"
"http://www.w3.org/Graphics/SVG/1.1/DTD/svg11.dtd">


<!-- Page 8 -->
<svg x="0" y="0" width="935" height="1210" viewBox="0 0 935 1210" version="1.1" xmlns="http://www.w3.org/2000/svg" xmlns:xlink="http://www.w3.org/1999/xlink"
style="display: block;margin-left: auto;margin-right: auto;">
<defs>
<clipPath id="c_8"><path d="M0,0H935V1210H0Z"/></clipPath>
<clipPath id="c0_8"><path d="M314.2,908.4V301.6H620.8V908.4Z"/></clipPath>

<style type="text/css"><![CDATA[

.g0_8{
fill: #241F21;
}

]]></style>

</defs>
<path d="M0,0
L0,1210
L935,1210
L935,0 Z " 
fill="#FFFFFF" stroke="none"/>
<g clip-path="url(#c_8)">
<g clip-path="url(#c0_8)">
<path d="M481.4,909.3H453.8V595.9c0,-5.2,4.3,-9.5,9.5,-9.5H472c5.2,0,9.4,4.3,9.4,9.5Z" class="g0_8"/>
</g>
<path d="M468.8,477.1L484,575.6c.1,.6,.6,1,1.2,1h24.3c.7,0,1.3,-.6,1.2,-1.3L468.8,302.9c-.2,-1.3,-2.2,-1.3,-2.4,0L424.6,575.3c-.1,.7,.5,1.3,1.2,1.3h24.3c.6,0,1.1,-.4,1.2,-1l15.1,-98.5c.2,-1.4,2.2,-1.4,2.4,0Z" class="g0_8"/>
<path d="M371.1,896.3H343.6V636.2c0,-5.3,4.2,-9.5,9.4,-9.5h8.7c5.2,0,9.4,4.2,9.4,9.5Z" class="g0_8"/>
<path d="M358.5,517.3l15.2,98.6c.1,.6,.6,1,1.2,1h24.3c.7,0,1.3,-.6,1.2,-1.4L358.5,343.2c-.2,-1.4,-2.1,-1.4,-2.3,0L314.3,615.5c-.1,.8,.5,1.4,1.2,1.4h24.3c.6,0,1.1,-.4,1.2,-1l15.2,-98.6c.2,-1.3,2.1,-1.3,2.3,0Z" class="g0_8"/>
<path d="M591.7,896.3H564.1V636.2c0,-5.3,4.3,-9.5,9.5,-9.5h8.7c5.2,0,9.4,4.2,9.4,9.5Z" class="g0_8"/>
<g clip-path="url(#c0_8)">
<path d="M579.1,517.3l15.2,98.6c.1,.6,.6,1,1.2,1h24.3c.7,0,1.3,-.6,1.2,-1.4L579.1,343.2c-.2,-1.4,-2.2,-1.4,-2.4,0L534.9,615.5c-.1,.8,.4,1.4,1.2,1.4h24.3c.6,0,1.1,-.4,1.2,-1l15.1,-98.6c.2,-1.3,2.2,-1.3,2.4,0Z" class="g0_8"/>
</g>

</g>
</svg>
