<?xml version="1.0" encoding="UTF-8" standalone="no"?>
<!DOCTYPE svg PUBLIC "-//W3C//DTD SVG 1.1//EN"
"http://www.w3.org/Graphics/SVG/1.1/DTD/svg11.dtd">


<!-- Page 9 -->
<svg x="0" y="0" width="935" height="1210" viewBox="0 0 935 1210" version="1.1" xmlns="http://www.w3.org/2000/svg" xmlns:xlink="http://www.w3.org/1999/xlink"
style="display: block;margin-left: auto;margin-right: auto;">
<defs>
<clipPath id="c_9"><path d="M0,0H935V1210H0Z"/></clipPath>
<clipPath id="c0_9"><path d="M162.7,908.4v-610H772.3v610Z"/></clipPath>

<style type="text/css"><![CDATA[

.g0_9{
fill: #241F21;
}

]]></style>

</defs>
<path d="M0,0
L0,1210
L935,1210
L935,0 Z " 
fill="#FFFFFF" stroke="none"/>
<g clip-path="url(#c_9)">
<path d="M467.1,359.1c-134.9,0,-244.8,109.8,-244.8,244.8c0,135,109.9,244.8,244.8,244.8C602.1,848.7,712,738.9,712,603.9C712,468.9,602.1,359.1,467.1,359.1m11.8,416c27.8,-15.7,46.6,-45.5,46.6,-79.6C525.5,645,484.5,604,434.1,604c-34.7,0,-65,19.4,-80.5,48c5,-58.4,54,-104.3,113.5,-104.3c62.9,0,114.1,51.1,114.1,114c0,58.9,-44.9,107.5,-102.3,113.4M374.2,695.5c0,-33,26.9,-59.9,59.9,-59.9c32.9,0,59.8,26.9,59.8,59.9c0,32.9,-26.9,59.8,-59.8,59.8c-33,0,-59.9,-26.9,-59.9,-59.8M467.1,516c-80.3,0,-145.7,65.3,-145.7,145.7c0,58.2,34.4,108.4,83.9,131.7C326.5,779.7,266.4,711,266.4,628.4c0,-92.5,75.2,-167.7,167.7,-167.7c82.9,0,151.8,60.6,165.1,139.9C576.1,550.7,525.7,516,467.1,516m42.3,296.8c72.7,-29.8,124,-101.2,124,-184.4C633.4,518.4,544,429,434.1,429c-62,0,-117.5,28.5,-154.1,73C316.2,435.8,386.5,390.8,467.1,390.8c117.6,0,213.2,95.6,213.2,213.1c0,103.1,-73.5,189.2,-170.9,208.9Z" class="g0_9"/>
<g clip-path="url(#c0_9)">
<path d="M467.1,298.4c-168.4,0,-305.5,137,-305.5,305.5c0,168.5,137.1,305.6,305.5,305.6c168.5,0,305.6,-137.1,305.6,-305.6C772.7,435.4,635.6,298.4,467.1,298.4m0,579.4c-151,0,-273.8,-122.9,-273.8,-273.9C193.3,452.9,316.1,330,467.1,330C618.2,330,741,452.9,741,603.9c0,151,-122.8,273.9,-273.9,273.9Z" class="g0_9"/>
</g>

</g>
</svg>
