<?xml version="1.0" encoding="UTF-8" standalone="no"?>
<!DOCTYPE svg PUBLIC "-//W3C//DTD SVG 1.1//EN" "http://www.w3.org/Graphics/SVG/1.1/DTD/svg11.dtd">
<svg xmlns="http://www.w3.org/2000/svg" xmlns:xlink="http://www.w3.org/1999/xlink" version="1.1" width="300pt"
     height="300pt" viewBox="0 0 300 300">
    <g enable-background="new">
        <clipPath id="cp14">
            <path transform="matrix(1,0,0,-1,0,300)" d="M 0 300 L 300 300 L 300 0 L 0 0 Z "/>
        </clipPath>
        <g clip-path="url(#cp14)">
            <path transform="matrix(1,0,0,-1,25.1302,142.5717)"
                  d="M 0 0 L 174.854 49.818 L 198.393 -32.799 L 159.925 -13.063 L 167.777 -41.521 L 129.182 -21.516 L 137.163 -50.244 L 98.277 -29.399 L 106.548 -58.967 L 67.857 -38.987 L 75.934 -67.689 L 36.992 -48.089 L 45.318 -76.412 L 6.614 -56.744 L -6.16 -11.001 C -7.482 -6.264 -4.73 -1.348 0 0 "
                  fill="currentColor"/>
            <path transform="matrix(1,0,0,-1,280.2473,131.0668)"
                  d="M 0 0 L -8.542 29.62 C -10.629 36.855 -15.421 42.852 -22.036 46.506 C -28.651 50.159 -36.279 51.023 -43.514 48.937 L -70.038 41.287 L -62.85 15.797 L -36.175 23.489 C -36.005 23.538 -35.842 23.558 -35.689 23.556 C -35.342 23.552 -35.049 23.437 -34.841 23.322 C -34.542 23.157 -34.151 22.843 -33.989 22.282 L -25.447 -7.339 C -25.285 -7.899 -25.448 -8.374 -25.614 -8.673 C -25.779 -8.973 -26.094 -9.363 -26.654 -9.524 L -53.524 -17.273 L -46.337 -42.765 L -19.315 -34.972 L -19.316 -34.972 C -12.081 -32.886 -6.085 -28.093 -2.431 -21.478 C 1.223 -14.862 2.086 -7.234 0 0 "
                  fill="currentColor"/>
        </g>
    </g>
</svg>
