<?xml version="1.0" standalone="no"?>
<!DOCTYPE svg PUBLIC "-//W3C//DTD SVG 20010904//EN" "http://www.w3.org/TR/2001/REC-SVG-20010904/DTD/svg10.dtd">
<svg version="1.0" xmlns="http://www.w3.org/2000/svg"
     width="291.000000pt" height="279.000000pt" viewBox="0 0 291.000000 279.000000"
     preserveAspectRatio="xMidYMid meet">

    <g transform="translate(0.000000,279.000000) scale(0.100000,-0.100000)"
       fill="#ffffff" stroke="none">
        <path d="M1185 1885 c-189 -33 -389 -109 -561 -211 -59 -35 -109 -64 -111 -64
-2 0 -22 13 -44 30 -23 16 -45 27 -50 24 -16 -9 -10 -30 16 -54 34 -32 32 -43
-15 -75 -66 -46 -48 -65 36 -40 l56 16 161 -158 c266 -261 464 -402 653 -465
60 -20 89 -23 224 -23 144 0 161 2 237 28 45 16 119 51 165 79 189 117 200
119 381 97 49 -6 100 -8 113 -5 33 9 32 45 -2 77 -15 13 -50 60 -79 104 -170
260 -396 488 -575 580 -105 53 -174 67 -355 71 -116 2 -195 -1 -250 -11z m52
-159 c-78 -32 -122 -68 -156 -127 -27 -48 -41 -54 -41 -18 0 10 -5 21 -12 25
-8 5 -10 -9 -6 -53 16 -176 198 -354 418 -409 84 -21 208 -15 271 13 65 29
128 89 155 147 22 48 23 49 32 25 5 -13 12 -33 15 -44 3 -11 5 12 3 50 -1 48
-9 84 -24 115 l-22 44 36 -34 c20 -19 63 -68 95 -108 l59 -73 -73 -38 c-39
-21 -107 -59 -149 -83 -118 -69 -221 -99 -353 -105 -92 -5 -123 -2 -188 16
-186 51 -368 169 -661 428 -56 49 -68 39 134 116 162 62 293 102 402 122 113
20 131 18 65 -9z m318 -67 c50 -19 102 -63 124 -106 6 -12 11 -42 11 -67 0
-36 -6 -52 -30 -80 -27 -30 -109 -79 -119 -71 -2 2 6 17 18 33 11 16 26 50 33
75 17 66 -4 107 -74 144 -46 24 -65 28 -138 28 -72 0 -91 -4 -128 -25 -45 -26
-73 -63 -96 -126 l-14 -39 -7 47 c-9 61 -2 90 35 132 55 62 143 89 264 80 38
-3 92 -14 121 -25z m-187 -165 c-15 -31 -28 -72 -28 -90 0 -96 165 -167 296
-129 70 20 129 75 140 130 9 52 22 52 29 0 6 -36 3 -54 -16 -92 -34 -69 -102
-104 -212 -110 -143 -9 -260 33 -307 109 -29 48 -27 122 5 163 20 27 95 75
116 75 3 0 -7 -25 -23 -56z m158 11 c15 -24 15 -28 0 -69 -21 -56 -46 -78 -83
-74 -24 3 -28 8 -31 37 -4 42 14 86 46 111 33 26 48 25 68 -5z"/>
    </g>
</svg>
