<?xml version="1.0" encoding="UTF-8" standalone="no"?>
<!DOCTYPE svg PUBLIC "-//W3C//DTD SVG 1.1//EN" "http://www.w3.org/Graphics/SVG/1.1/DTD/svg11.dtd">
<svg xmlns="http://www.w3.org/2000/svg" xmlns:xlink="http://www.w3.org/1999/xlink" version="1.1" width="300pt"
     height="300pt" viewBox="0 0 300 300">
    <g enable-background="new">
        <clipPath id="cp8">
            <path transform="matrix(1,0,0,-1,0,300)" d="M 0 300 L 300 300 L 300 0 L 0 0 Z "/>
        </clipPath>
        <g clip-path="url(#cp8)">
            <path transform="matrix(1,0,0,-1,150,161.77)"
                  d="M 0 0 C -2.716 -10.864 -.905 -22.634 5.433 -31.687 C -3.622 -22.634 -9.959 -9.959 -8.148 3.622 C -9.959 1.811 -11.77 .905 -14.486 -.905 C -21.729 -6.337 -25.35 -13.58 -26.255 -22.634 C -26.255 -9.959 -21.729 3.622 -11.77 11.77 C -22.634 14.486 -34.404 12.676 -43.458 6.338 C -34.404 15.392 -21.729 21.729 -8.148 19.918 C -9.959 21.729 -10.864 23.54 -12.675 26.256 C -18.107 33.499 -25.35 37.12 -34.404 38.025 C -21.729 38.025 -8.148 33.499 0 23.54 C 2.716 34.404 .905 46.174 -5.432 55.228 C 3.621 46.174 9.959 33.499 8.148 19.918 C 9.959 21.729 11.77 22.635 14.485 24.445 C 21.729 29.877 25.351 37.12 26.256 46.174 C 26.256 33.499 21.729 19.918 11.77 11.77 C 22.634 9.054 34.404 10.864 43.457 17.202 C 34.404 8.148 21.729 1.811 8.148 3.622 C 9.959 1.811 10.864 0 12.675 -2.716 C 18.107 -9.959 25.351 -13.58 34.404 -14.485 C 21.729 -14.485 8.148 -9.959 0 0 M 124.94 -20.823 C 93.253 -28.066 57.943 -19.918 32.593 .905 C 68.808 12.676 96.874 42.553 111.359 76.956 C 94.158 49.795 63.375 30.782 30.782 27.161 C 47.079 61.565 47.984 102.307 32.593 136.71 C 39.836 105.022 31.687 69.713 10.864 44.363 C -.905 80.577 -30.782 108.644 -65.186 123.13 C -38.025 105.928 -19.013 75.146 -15.391 42.553 C -49.795 58.849 -90.536 59.754 -124.94 44.363 C -93.252 51.605 -57.943 43.458 -32.593 22.635 C -68.808 10.864 -96.874 -19.013 -111.36 -53.416 C -94.158 -26.255 -63.375 -7.242 -30.782 -3.621 C -47.079 -38.025 -47.984 -78.767 -32.593 -113.17 C -39.836 -81.482 -31.687 -46.173 -10.864 -20.823 C .905 -57.038 30.782 -85.104 65.187 -99.59 C 38.025 -82.388 19.013 -51.605 15.392 -19.013 C 49.795 -35.309 90.536 -36.214 124.94 -20.823 "
                  fill="#B081B1"/>
        </g>
    </g>
</svg>
