<?xml version="1.0" encoding="UTF-8"?>
<!-- Created with Inkscape (http://www.inkscape.org/) -->
<svg width="300" height="300" version="1.1" viewBox="0 0 300 300" xmlns="http://www.w3.org/2000/svg">
 <path d="m25 224.68c0-21.821 0.06131-26.705 0.33812-26.935 0.18596-0.15434 21.28-14.102 46.875-30.994l46.537-30.714-0.0673-14.892c-0.0442-9.7726 0.0179-14.716 0.18059-14.382 0.13636 0.28062 2.3835 10.096 4.9936 21.811 2.6101 11.716 4.8248 21.372 4.9214 21.459 0.0967 0.0868 6.059 2.0286 13.25 4.315 8.1656 2.5964 13.074 4.2781 13.074 4.4793 0 0.40238-4.7733 33.576-5.007 34.798l-0.17078 0.89286-0.18732-0.89286c-0.10303-0.49107-0.6257-5.743-1.1615-11.671-0.77523-8.5769-1.0468-10.778-1.3296-10.778-0.19547 0-27.602 17.967-60.904 39.926-33.302 21.959-60.727 39.995-60.945 40.078-0.35749 0.13718-0.39684-2.4906-0.39684-26.502zm124.87 9.1014c-0.2779-4.8181 0.0103-15.874 0.48487-18.599 0.59327-3.4069 1.1132-4.9137 2.025-5.8691 1.1068-1.1597 1.7492-1.3041 2.5869-0.58145 2.0821 1.7961 1.2922 8.8488-2.4651 22.012-2.1695 7.6004-2.3561 7.8158-2.6317 3.0374zm34.933-13.174c-4.852-4.9731-7.9355-8.595-10.293-12.09-2.6887-3.9866-3.3267-6.2316-2.1426-7.54 1.6851-1.862 5.3484 1.7877 10.15 10.112 2.4619 4.2682 6.8275 13.195 6.5759 13.447-0.13846 0.13845-1.8618-1.4398-4.2908-3.9292zm23.874-25.966c-5.5766-1.1321-10.042-2.2486-13.316-3.3296-2.543-0.83957-6.6338-2.7442-7.4828-3.4838-1.9976-1.7402-1.7934-3.6991 0.42263-4.0553 2.0229-0.32518 7.3588 1.5519 13.871 4.8795 3.8604 1.9726 10.712 5.8012 11.189 6.2525 0.70458 0.66604-0.41689 0.603-4.6843-0.26332zm-38.861-21.987c-0.0929-5.7928-0.17138-13.115-0.17445-16.272l-6e-3 -5.7398-14.417-4.7101c-12.319-4.0247-14.432-4.7857-14.518-5.2296-0.18566-0.95414-2.9934-44.199-2.9009-44.68 0.0501-0.26029 1.5313 4.7478 3.2915 11.129 2.7648 10.023 3.2619 11.592 3.6523 11.523 0.24856-0.0437 5.6606-3.5163 12.027-7.7168s11.678-7.6374 11.803-7.6374c0.16653 0 17.399 27.069 23.587 37.05l0.44802 0.7227-6.4429 4.2274c-3.5436 2.325-6.5221 4.3013-6.6189 4.3917-0.0968 0.0904-2.2086 7.5687-4.6929 16.618-2.4843 9.0498-4.5962 16.544-4.6931 16.655s-0.25215-4.5389-0.34503-10.332zm36.908-25.471c-0.61773-0.30577-1.3556-0.97094-1.7685-1.5942-1.4793-2.2331-36.191-56.73-36.754-57.702-1.0905-1.8854-0.71274-3.8924 1.0189-5.4128 1.5785-1.3859 3.922-1.3182 5.4108 0.15635 1.0994 1.0889 38.103 59.025 38.287 59.946 0.24626 1.2313-0.11803 2.516-0.99745 3.5176-1.4469 1.6479-3.2888 2.0341-5.1968 1.0896zm-6.9592-38.02c-4.2326-6.608-7.661-12.113-7.6188-12.234 0.11339-0.32359 63.917-41.055 65.211-41.629 1.9217-0.8535 3.5856-0.87216 6.0579-0.06794 5.5619 1.8093 9.0116 5.833 10.696 12.476 1.4827 5.8471 1.001 10.679-1.5795 15.842-1.0133 2.0275-3.2077 5.103-3.8042 5.3319-0.21893 0.08401-1.5653 0.15425-2.992 0.1561-4.2648 0.0055-8.8553 1.222-12.642 3.3502-0.75618 0.42495-11.235 7.0764-23.287 14.781-12.051 7.7046-22.009 14.008-22.129 14.008s-3.6801-5.4066-7.9127-12.015zm-101.67-8.3684c-3.5182-1.0312-8.2357-3.2735-14.725-6.9991-5.1161-2.9371-7.0859-4.1918-7.0859-4.5136 0-0.36971 0.18743-0.34033 5.7228 0.89724 11.189 2.5015 19.113 5.5553 20.7 7.977 0.63048 0.96223 0.57457 2.0803-0.13265 2.653-0.73723 0.59697-2.4108 0.59154-4.4785-0.0145zm17.728-16.147c-2.7864-1.0308-7.301-7.9376-12.535-19.177-1.968-4.2263-2.2432-5.0071-1.7651-5.0071 0.27964 0 6.4022 6.5455 9.0676 9.6939 4.6323 5.4718 7.53 10.221 7.53 12.342 0 1.7498-0.95696 2.6446-2.2978 2.1486zm19.061-7.7979c-1.4296-1.5797-1.0466-6.3735 1.2175-15.238 1.3407-5.2491 3.7319-12.68 4.1223-12.81 0.39226-0.13075 0.70097 7.33 0.49004 11.843-0.43605 9.3288-1.3779 14.116-3.139 15.954-0.79013 0.82491-2.064 0.94372-2.6909 0.25098z" fill="#02a9d1" stroke-width=".2551"/>
</svg>
