<?xml version="1.0" encoding="UTF-8"?>
<svg width="300" height="300" version="1.1" viewBox="0 0 300 300" xmlns="http://www.w3.org/2000/svg">
 <path fill="#fcd26f" d="m148.21 273.61c-2.2081-4.1048-4.4157-10.559-6.5739-19.22-0.99765-4.0034-1.0591-4.3836-0.89929-5.5664 0.0943-0.69824 0.29523-2.456 0.44648-3.9062l0.275-2.6367-11.003-73.047c-11.778-78.19-11.002-73.472-12.726-77.344-0.94979-2.1328-2.7214-5.2989-4.2699-7.6308l-1.2879-1.9395-0.0227-16.602c-0.0228-16.647 0.10691-21.77 0.7489-29.59 0.31383-3.8225 0.90619-8.3669 1.3238-10.156l0.25074-1.0742 0.40426 0.78125c2.4921 4.816 7.5389 21.953 11.274 38.281 2.0416 8.9256 3.6605 17.481 3.6773 19.434 0.0113 1.318-0.89441 4.4615-2.765 9.5963l-1.3574 3.726 3.2139 22.685c6.5446 46.194 13.204 93.364 14.922 105.69l1.7688 12.695 3.6948 7.5063 0.3416 2.9851c0.5099 4.4559 0.49901 18.28-0.018 22.809-0.20232 1.7725-0.42904 3.3901-0.5038 3.5948-0.10885 0.29796-0.29093 0.084-0.91395-1.0742zm34.189-57.182c-7.9443-5.5948-14.618-17.609-18.513-33.327-1.7185-6.9346-2.1494-10.285-2.16-16.797-0.012-7.3662 0.82019-13.123 2.775-19.196l0.52067-1.6176 0.59248 0.12375c1.142 0.23852 7.4526 2.3854 9.9231 3.3759 3.1581 1.2662 6.7456 3.0104 9.1281 4.4383 1.0196 0.61101 1.8895 1.1423 1.9332 1.1806 0.18162 0.1594-1.3393 5.8818-3.2381 12.183-2.8747 9.5401-3.7596 13.059-4.5923 18.262-0.37403 2.3369-0.3128 9.8981 0.10834 13.379 0.85571 7.0727 2.6482 14.26 4.4451 17.822 0.31154 0.61767 0.53501 1.123 0.49659 1.123-0.0384 0-0.67688-0.42752-1.4188-0.95003zm0.79945-70.432c-4.8602-2.4603-7.7109-3.7067-12.504-5.467-10.762-3.9526-21.079-5.9556-30.709-5.9617-2.1643-1e-3 -3.1738-0.0699-3.1738-0.21548 0-0.1174 0.17244-1.0622 0.3832-2.0996 0.99567-4.9007 1.4354-12.184 0.99848-16.535-0.55792-5.5561-2.2896-11.519-4.7833-16.471-0.52349-1.0395-0.63007-1.4096-0.44903-1.5592 0.38436-0.31761 3.0685-0.80207 5.6808-1.0253 8.9009-0.76065 22.238 2.6858 35.683 9.2205l3.6263 1.7626 1.1173 2.0082c4.7193 8.4822 7.8981 19.352 8.7107 29.785 0.29558 3.7952 0.27297 8.8081-0.0396 8.7658-0.13428-0.0181-2.1777-1.0118-4.541-2.2081z"/>
</svg>
