<?xml version="1.0" encoding="UTF-8"?>
<svg width="300" height="300" version="1.1" viewBox="0 0 300 300" xmlns="http://www.w3.org/2000/svg">
 <path fill="#6ebe4c" d="m138.43 274.72c-7.7553-0.54222-16.155-1.6974-24.309-3.3431-7.3486-1.4832-23.269-5.5555-25.112-6.4234-4.6655-2.1971-8.0022-6.7322-8.6833-11.802-0.14416-1.073-0.50818-4.8233-0.80893-8.3339-1.0391-12.129-1.5067-14.658-3.3936-18.351-0.81319-1.5917-1.8048-2.7103-6.8372-7.7128-3.2373-3.2181-6.6423-6.7875-7.5665-7.932-5.1555-6.3841-10.164-15.943-11.602-22.142-0.36367-1.5681-0.36454-1.9054-8e-3 -3.1317 0.60967-2.0972 3.1396-5.6695 7.7102-10.887 2.2797-2.6023 4.325-5.0797 4.5451-5.5054 1.1786-2.2792-0.30844-18.536-4.1603-45.481-1.88-13.152-1.7106-20.517 0.68736-29.873 2.4589-9.594 7.5191-19.824 14.221-28.75 7.2817-9.6985 16.764-18.41 27.23-25.017l2.8697-1.8115 0.81081 0.77095c1.3102 1.2458 5.8179 6.907 8.1316 10.212 3.7072 5.2962 6.603 10.46 8.9858 16.024l0.99663 2.3271-0.74756 0.99734c-1.7365 2.3167-4.1498 5.1835-6.8289 8.112-1.5725 1.7189-2.859 3.2949-2.859 3.5022 0 0.9433 0.58899 1.3705 4.4271 3.2107 9.8565 4.7258 17.624 10.017 22.484 15.316 2.1657 2.3616 2.6908 2.6548 3.2277 1.8021 0.77757-1.2349-4.1849-13.467-8.6237-21.257l-0.84408-1.4813 2.8064-4.2368c1.5436-2.3302 3.3688-5.3123 4.056-6.6269 1.5145-2.897 1.5184-2.8038-0.4012-9.5779-2.4578-8.6731-7.0574-21.803-9.9405-28.377-0.23717-0.54071-0.34084-1.039-0.23039-1.1072 0.11044-0.06826 1.6353-0.42591 3.3886-0.79478 19.309-4.0624 39.004-1.5271 57.481 7.3995 5.3631 2.591 8.5346 4.4125 13.263 7.6173 19.175 12.996 33.448 32.293 38.425 51.952 1.5257 6.0264 1.9669 9.5224 1.9483 15.437-0.0144 4.5728-0.1444 5.9761-1.3674 14.761-3.9652 28.481-5.2733 42.291-4.2323 44.681 0.22305 0.51197 2.0467 2.7859 4.0526 5.0532 4.5477 5.1403 6.6062 7.8524 7.7714 10.239 0.77467 1.5869 0.8899 2.0626 0.78048 3.2224-0.34544 3.6617-4.2631 12.512-8.1094 18.32-2.988 4.512-5.7003 7.6361-11.231 12.936-3.1523 3.0208-5.2596 5.2766-6.095 6.5246-1.2801 1.9122-2.3776 4.7534-2.9105 7.534-0.2948 1.5384-1.114 9.7009-1.6283 16.223-0.16723 2.121-0.47018 4.6036-0.67324 5.5168-0.60059 2.7013-2.0632 5.2708-4.2385 7.4464-3.0938 3.0942-4.9246 3.7743-19.476 7.2349-12.631 3.0038-19.34 4.1751-29.987 5.2357-4.7916 0.47727-22.346 0.6992-27.394 0.34631zm21.194-76.471c3.2603-1.1587 6.1378-3.0627 7.1586-4.7366 1.0429-1.7103 0.42039-5.063-2.304-12.409-4.1983-11.319-9.61-21.344-12.48-23.118-3.2087-1.9831-7.7652 2.1974-12.354 11.334-2.7087 5.3936-5.4702 13.026-6.5312 18.051-0.8705 4.1228-0.30633 6.4458 1.9062 7.849 2.205 1.3984 3.5798 1.5696 10.59 1.3194 2.9175-0.10415 2.935-0.10105 6.383 1.1263 1.9016 0.67689 3.959 1.2406 4.5719 1.2526 0.61296 0.012 1.9893-0.28898 3.0585-0.66897zm-50.322-32.287c1.8397-0.3489 5.0363-1.9704 8.2103-4.1649 8.7271-6.0339 19.183-16.381 19.188-18.987 1e-3 -0.64295-0.13938-0.70935-2.7249-1.2881-8.1346-1.8207-14.948-4.8265-22.272-9.8253-4.0309-2.7513-5.9133-3.7673-6.9796-3.7673-2.3529 0-11.813 6.3268-16.703 11.17-6.7252 6.6619-6.4029 9.9964 1.7155 17.748 5.0086 4.782 10.78 8.145 15.602 9.091 1.6487 0.32348 2.3631 0.32784 3.964 0.0242zm87.315-0.44421c6.6656-1.9662 16.177-9.5369 19.206-15.287 1.9333-3.67 1.1148-6.1519-3.5889-10.883-3.7805-3.8024-9.3189-7.9084-13.975-10.361-3.1096-1.6377-3.6707-1.5123-8.721 1.9492-8.265 5.6649-14.259 8.3984-22.875 10.432-1.8241 0.43049-3.2082 0.89511-3.2883 1.1038-0.42627 1.1108 2.0792 4.3452 7.2803 9.398 7.4781 7.265 15.123 12.717 19.579 13.962 1.6036 0.44833 4.2371 0.31857 6.3834-0.31454z"/>
</svg>
