<?xml version="1.0" encoding="UTF-8"?>
<svg xmlns="http://www.w3.org/2000/svg" xmlns:xlink="http://www.w3.org/1999/xlink" width="300px" height="300px"
     viewBox="0 0 300 300" version="1.1">
    <g fill="#D39382">
        <path d="M 151.644531 131.164062 L 151.644531 235.738281 L 149.253906 235.738281 L 149.234375 131.386719 C 149.214844 73.992188 149.171875 27.015625 149.132812 26.996094 C 149.113281 26.957031 146.988281 30.328125 144.433594 34.496094 L 139.792969 42.035156 L 139.792969 94.507812 L 139.773438 146.957031 L 138.609375 145.710938 C 137.976562 145.039062 134.542969 141.402344 131.007812 137.640625 C 116.335938 122.050781 106.507812 111.242188 99.132812 102.515625 C 84.726562 85.496094 74.777344 71.582031 69.28125 60.730469 C 66.726562 55.683594 66.5 55.601562 65.398438 59.445312 C 62.167969 70.683594 63.335938 84.167969 68.585938 96.488281 C 72.691406 106.09375 78.535156 114.53125 87.648438 124.03125 C 94.597656 131.265625 109.453125 146.550781 117.828125 155.109375 C 132.4375 169.984375 135.402344 173.050781 135.460938 173.316406 C 135.484375 173.4375 129.128906 179.894531 121.324219 187.679688 C 113.515625 195.445312 107.082031 201.902344 107.019531 202.003906 C 106.9375 202.128906 107.121094 202.679688 107.40625 203.25 C 108.203125 204.824219 108.59375 206.765625 108.59375 209.175781 C 108.59375 213.261719 107.101562 217.59375 104.097656 222.152344 C 102.382812 224.746094 101.03125 226.320312 96.96875 230.570312 C 95.003906 232.613281 93.410156 234.429688 93.410156 234.617188 C 93.410156 234.800781 94.453125 236.046875 95.71875 237.394531 C 97.519531 239.292969 98.132812 239.824219 98.539062 239.824219 C 98.988281 239.824219 102.6875 236.210938 119.441406 219.371094 L 139.792969 198.9375 L 139.792969 235.738281 L 133.867188 235.738281 L 133.867188 238.601562 L 139.550781 238.640625 L 145.207031 238.703125 L 145.269531 253.984375 C 145.3125 270.558594 145.371094 269.800781 144.226562 271.027344 C 143.839844 271.476562 143.839844 271.496094 144.207031 271.621094 C 144.410156 271.699219 145.660156 272.171875 146.945312 272.683594 C 150.195312 273.929688 150.625 273.90625 154.242188 272.519531 L 157.140625 271.414062 L 156.550781 270.761719 C 156.242188 270.394531 155.875 269.800781 155.753906 269.414062 C 155.609375 268.964844 155.527344 263.691406 155.488281 253.71875 L 155.425781 238.703125 L 161.25 238.601562 L 167.070312 238.496094 L 167.070312 235.839844 L 164.070312 235.78125 L 161.042969 235.71875 L 161.042969 198.859375 L 181.539062 219.351562 C 195.390625 233.207031 202.15625 239.824219 202.441406 239.824219 C 202.933594 239.824219 207.632812 235.167969 207.632812 234.675781 C 207.632812 234.492188 205.933594 232.59375 203.851562 230.445312 C 199.582031 226.011719 197.886719 223.949219 196.066406 220.90625 C 194.65625 218.554688 193.820312 216.675781 193 213.957031 C 192.492188 212.34375 192.429688 211.8125 192.429688 209.175781 C 192.429688 206.089844 192.492188 205.722656 193.757812 202.679688 L 194.042969 201.984375 L 182.375 190.417969 C 175.960938 184.042969 169.484375 177.566406 167.992188 176.035156 L 165.253906 173.214844 L 172.199219 166.226562 C 184.339844 153.945312 209.46875 128.117188 215.171875 122.03125 C 221.566406 115.207031 226.757812 107.953125 230.3125 100.882812 C 235.074219 91.359375 237.300781 82.535156 237.300781 72.992188 C 237.300781 67.453125 236.585938 62.425781 235.175781 58.28125 C 234.765625 57.03125 234.644531 56.847656 234.171875 56.789062 C 233.683594 56.726562 233.539062 56.910156 232.191406 59.6875 C 225.734375 72.949219 211.105469 92.566406 191.101562 114.777344 C 184.847656 121.722656 168.054688 139.765625 163.148438 144.8125 L 161.066406 146.957031 L 161.042969 94.425781 L 161.042969 41.871094 L 156.710938 34.863281 C 154.34375 31 152.238281 27.546875 152.011719 27.222656 C 151.664062 26.628906 151.644531 29.652344 151.644531 131.164062 Z M 151.644531 131.164062 "/>
        <path d="M 77.679688 248.324219 C 70.589844 255.292969 66.460938 259.195312 65.929688 259.460938 C 65.480469 259.664062 64.765625 259.851562 64.355469 259.851562 L 63.601562 259.851562 L 64.824219 262.648438 C 66.339844 266.164062 66.683594 266.511719 70.160156 268.085938 C 71.589844 268.71875 72.816406 269.25 72.875 269.25 C 72.9375 269.25 72.980469 268.964844 72.980469 268.59375 C 72.980469 267.105469 73.550781 266.449219 84.789062 255.355469 L 95.761719 244.523438 L 92.289062 241.050781 C 90.386719 239.152344 88.773438 237.578125 88.710938 237.597656 C 88.652344 237.597656 83.683594 242.441406 77.679688 248.324219 Z M 77.679688 248.324219 "/>
        <path d="M 208.59375 241.011719 L 205.179688 244.421875 L 216.214844 255.457031 C 222.28125 261.523438 227.390625 266.796875 227.574219 267.164062 C 227.738281 267.53125 227.941406 268.167969 228.003906 268.554688 C 228.0625 268.941406 228.1875 269.230469 228.269531 269.207031 C 230.945312 268.125 233.601562 266.757812 234.195312 266.183594 C 234.785156 265.589844 236.15625 262.832031 237.199219 260.09375 C 237.28125 259.929688 237.074219 259.851562 236.5625 259.851562 C 236.15625 259.851562 235.5 259.726562 235.113281 259.5625 C 234.683594 259.378906 230.128906 255.070312 223.34375 248.429688 C 217.253906 242.460938 212.207031 237.578125 212.148438 237.578125 C 212.066406 237.578125 210.472656 239.109375 208.59375 241.011719 Z M 208.59375 241.011719 "/>
    </g>
</svg>
