<?xml version="1.0" encoding="UTF-8" standalone="no"?>
<!DOCTYPE svg PUBLIC "-//W3C//DTD SVG 1.1//EN" "http://www.w3.org/Graphics/SVG/1.1/DTD/svg11.dtd">
<svg xmlns="http://www.w3.org/2000/svg" xmlns:xlink="http://www.w3.org/1999/xlink" version="1.1" width="300pt"
     height="300pt" viewBox="0 0 300 300">
    <g enable-background="new">
        <clipPath id="cp0">
            <path transform="matrix(1,0,0,-1,0,300)" d="M 0 300 L 300 300 L 300 0 L 0 0 Z "/>
        </clipPath>
        <g clip-path="url(#cp0)">
            <path transform="matrix(1,0,0,-1,87.4585,35.70459)"
                  d="M 0 0 C -3.18 2.682 -19.136 -21.631 -16.64 -35.775 C -16.903 -40.767 -2.496 -58.239 4.16 -57.407 C 10.816 -56.575 19.982 -49.817 22.478 -43.161 C 24.974 -36.505 13.392 -11.291 0 0 "
                  fill="#A77766"/>
            <path transform="matrix(1,0,0,-1,212.8262,35.70459)"
                  d="M 0 0 C 3.181 2.682 19.136 -21.631 16.64 -35.775 C 16.903 -40.767 2.496 -58.239 -4.16 -57.407 C -10.815 -56.575 -19.982 -49.817 -22.479 -43.161 C -24.974 -36.505 -13.392 -11.291 0 0 "
                  fill="#A77766"/>
            <path transform="matrix(1,0,0,-1,273.8311,122.002)"
                  d="M 0 0 C -8.598 -12.48 -27.179 -16.64 -27.179 -16.64 C -27.179 -16.64 -20.8 -5.546 -11.648 11.37 C -6.656 31.061 -19.69 47.423 -25.792 50.751 C -51.583 9.983 -105.385 -10.816 -108.158 -7.766 C -110.932 -4.715 -90.401 31.266 -89.577 32.725 C -88.753 34.183 -101.502 47.423 -101.502 47.423 C -101.502 47.423 -119.251 64.389 -123.688 64.389 C -128.126 64.389 -146.16 47.472 -146.16 47.472 C -146.16 47.472 -158.91 34.231 -158.085 32.773 C -157.261 31.315 -136.731 -4.666 -139.504 -7.717 C -142.277 -10.767 -196.079 10.032 -221.871 50.799 C -227.972 47.472 -241.006 31.109 -236.014 11.419 C -226.862 -5.498 -220.484 -16.591 -220.484 -16.591 C -220.484 -16.591 -239.065 -12.431 -247.662 .048 C -250.158 -13.818 -247.662 -35.172 -247.662 -35.172 C -247.662 -35.172 -234.905 -59.577 -209.668 -61.241 C -224.644 -70.947 -235.737 -79.268 -235.459 -81.208 C -235.182 -83.149 -204.122 -96.184 -181.935 -92.302 C -184.708 -98.68 -191.919 -105.336 -191.642 -106.168 C -191.365 -107 -173.338 -114.765 -167.237 -115.319 C -163.554 -121.698 -153.371 -138.893 -150.32 -139.447 C -151.984 -130.851 -153.371 -123.917 -150.875 -116.151 C -154.757 -105.059 -166.881 -83.663 -170.288 -75.662 C -179.162 -73.998 -193.188 -70.995 -196.911 -63.736 C -199.853 -58.001 -184.189 -48.206 -183.415 -48.206 C -180.826 -48.206 -172.079 -60.277 -164.958 -66.557 C -155.496 -54.622 -135.706 -36.948 -123.974 -36.673 L -123.974 -36.696 C -112.277 -36.696 -92.24 -54.577 -82.704 -66.605 C -75.584 -60.326 -66.836 -48.255 -64.247 -48.255 C -63.474 -48.255 -47.81 -58.05 -50.751 -63.785 C -54.474 -71.044 -68.5 -74.047 -77.375 -75.711 C -80.782 -83.712 -92.905 -105.107 -96.788 -116.2 C -94.292 -123.966 -95.679 -130.899 -97.342 -139.496 C -94.292 -138.941 -84.108 -121.747 -80.426 -115.368 C -74.324 -114.813 -56.298 -107.049 -56.021 -106.217 C -55.743 -105.385 -62.954 -98.729 -65.727 -92.351 C -43.541 -96.232 -12.479 -83.198 -12.203 -81.257 C -11.926 -79.316 -23.019 -70.996 -37.994 -61.289 C -12.758 -59.626 0 -35.221 0 -35.221 C 0 -35.221 2.496 -13.866 0 0 "
                  fill="#A77766"/>
            <path transform="matrix(1,0,0,-1,177.3281,210.9756)"
                  d="M 0 0 C 0 0 7.21 12.757 6.656 14.698 C 6.102 16.64 -11.094 36.33 -27.186 36.33 C -43.279 36.33 -60.473 16.64 -61.028 14.698 C -61.582 12.757 -54.372 0 -54.372 0 C -54.372 0 -40.783 3.605 -36.623 3.051 C -39.951 -2.496 -49.657 -5.824 -51.599 -6.379 C -50.767 -10.538 -46.329 -19.413 -46.329 -19.413 C -46.329 -19.413 -38.271 -15.253 -27.186 -15.253 C -16.101 -15.253 -8.042 -19.413 -8.042 -19.413 C -8.042 -19.413 -3.605 -10.538 -2.773 -6.379 C -4.715 -5.824 -14.421 -2.496 -17.749 3.051 C -13.589 3.605 0 0 0 0 "
                  fill="#A77766"/>
            <path transform="matrix(1,0,0,-1,167.0781,239.8174)"
                  d="M 0 0 C 0 0 -5.835 4.437 -16.936 4.437 C -28.037 4.437 -33.872 0 -33.872 0 C -33.872 0 -36.102 -7.211 -33.872 -12.203 C -29.701 -8.875 -26.087 -7.211 -23.318 -9.984 C -20.549 -12.758 -19.155 -18.581 -23.318 -21.632 C -20.549 -24.128 -19.979 -24.683 -16.936 -24.683 C -13.893 -24.683 -13.323 -24.128 -10.554 -21.632 C -14.717 -18.581 -13.323 -12.758 -10.554 -9.984 C -7.784 -7.211 -4.171 -8.875 0 -12.203 C 2.23 -7.211 0 0 0 0 "
                  fill="#A77766"/>
        </g>
    </g>
</svg>
