<?xml version="1.0" encoding="UTF-8"?>
<svg width="300" height="300" version="1.1" viewBox="0 0 300 300" xmlns="http://www.w3.org/2000/svg">
 <path fill="#59c0a2" d="m143.09 274.83c-39.642-1.1336-66.329-5.2559-81.167-12.537-4.4872-2.2021-5.8988-3.2953-6.1251-4.7437-0.13394-0.85714 0.11964-1.4974 1.8609-4.6986 6.9782-12.829 12.313-25.957 13.642-33.567 0.47565-2.7251 0.8519-7.6753 1.2726-16.743 0.33034-7.1204 0.76438-10.42 1.8263-13.881 0.4115-1.3415 0.69719-2.4794 0.63487-2.5288-0.06232-0.0494-1.98-0.72626-4.2615-1.5041-7.3479-2.5052-11.788-4.6973-18.396-9.0827-9.5948-6.3671-18.284-15.096-22.034-22.135-1.6012-3.0058-2.8323-6.8334-3.0309-9.4239-0.26363-3.4384 0.84101-6.8083 3.0838-9.4079 2.3188-2.6876 5.1539-3.4162 8.613-2.2132 3.2397 1.1267 6.2112 3.3012 11.498 8.4142 2.6476 2.5606 6.1128 5.6667 7.7006 6.9025 8.3091 6.4674 15.978 10.512 19.496 10.283 2.0303-0.13222 2.0942-0.55519 0.49628-3.288-4.9657-8.4928-7.4033-17.75-9.4942-36.056-0.46712-4.0896-1.1091-8.6896-1.4266-10.222-1.7096-8.252-5.0587-14.671-10.459-20.047-2.5057-2.4941-3.4923-3.2997-8.9999-7.3488-6.9649-5.1204-11.477-12.373-11.477-18.448 0-5.0799 3.9133-9.2419 8.9878-9.5592 7.2509-0.45334 16.952 5.8745 31.118 20.298 9.3282 9.4978 12.947 14.141 18.292 23.468 5.2202 9.1092 12.277 25.585 15.871 37.058 1.3727 4.3811 1.8882 4.8044 3.6204 2.9729 2.5273-2.6722 5.0105-7.4939 9.0972-17.665 4.4169-10.992 8.1749-18.115 12.822-24.302 2.5054-3.3353 4.9949-6.1999 10.695-12.306 5.3755-5.7588 7.0256-7.7376 9.1094-10.924 3.611-5.5212 4.5341-8.9375 5.0959-18.858 0.73084-12.907 1.1226-15.83 2.5298-18.874 1.4044-3.0388 3.8911-4.7427 6.8682-4.7061 5.3759 0.06612 10.33 7.3594 12.578 18.517 2.8629 14.211 0.59057 29.175-5.832 38.407-0.67515 0.97048-2.5879 3.2777-4.2506 5.1271-14.783 16.443-24.198 34.793-27.27 53.148-0.71106 4.2488-0.7191 13.911-0.0144 17.256 0.83416 3.9596 1.8248 6.5804 4.3097 11.402l2.3844 4.6267 2.5581 5e-3c2.0198 4e-3 2.5581-0.0766 2.5581-0.38458 0-0.21452-0.63792-1.8012-1.4176-3.526-3.2707-7.2353-4.2379-10.664-4.0641-14.408 0.23133-4.9822 2.0497-6.6374 15.714-14.303 12.156-6.8193 16.985-10.144 22.504-15.491 6.1739-5.9822 9.6169-11.506 12.464-19.998 2.5124-7.4934 5.723-14.394 10.254-22.039 10.397-17.543 24.019-32.356 29.754-32.356 2.4202 0 5.9999 2.4665 7.3821 5.0864 0.69312 1.3138 0.74406 1.6445 0.72872 4.7311-0.0142 2.8687-0.12184 3.6369-0.79354 5.6666-2.1165 6.3954-6.3039 13.184-12.029 19.501-6.2782 6.9278-9.5873 14.274-11.21 24.887-0.49229 3.219-1.169 15.007-0.90147 15.704 0.33071 0.86181 1.85 0.554 5.0599-1.0251 4.9444-2.4324 8.0704-5.2431 9.8663-8.8709 0.99557-2.0111 1.234-2.8798 2.0116-7.3295 2.52-14.42 6.3931-21.118 13.451-23.262 2.6186-0.79538 5.5228-0.66516 6.967 0.3124 3.0675 2.0764 4.3148 7.1206 3.9316 15.898-0.3112 7.1271-0.94694 11.098-2.7949 17.459-3.0509 10.501-7.9603 19.176-14.162 25.025-3.4724 3.2748-5.5377 4.4887-13.19 7.7526-8.7145 3.7169-16.358 7.5763-20.758 10.482-3.1656 2.0901-4.5652 3.2506-7.6742 6.3632-2.3027 2.3053-3.8025 4.0211-3.8025 4.35 0 0.50521 0.27544 0.5569 3.9454 0.74036l3.9454 0.19723 2.6226-2.6082c4.9328-4.9056 8.644-6.8723 18.905-10.018 12.944-3.9684 19.452-6.7177 25.378-10.72 5.9298-4.0053 9.3161-4.7681 11.736-2.6435 3.2694 2.8706 3.363 9.1693 0.22514 15.154-1.3798 2.6314-3.3676 5.1478-6.1829 7.8269-6.8005 6.4716-17.885 11.466-27.215 12.261l-2.1767 0.18554 0.18632 1.4093c0.6168 4.6655 0.69516 7.6571 0.3991 15.237-0.37799 9.6774-0.21589 15.025 0.57227 18.878 1.5579 7.6169 5.6235 18.472 11.46 30.597 2.7812 5.7782 2.8905 6.3965 1.383 7.8183-1.1776 1.1106-6.2266 3.6218-9.3704 4.6605-11.932 3.9422-30.267 6.4194-56.278 7.6034-6.2355 0.28384-35.233 0.55228-41.206 0.38147zm11.059-132.58c-0.43306-0.80918 0.1273-5.4043 1.1589-9.5032 2.0226-8.0367 6.6721-17.353 11.052-22.145 0.77075-0.84332 2.7262-2.5508 4.3454-3.7944 7.5605-5.8067 14.757-12.662 18.299-17.433 6.228-8.3871 8.865-16.606 11.736-36.581 0.9801-6.8184 1.0077-6.9341 2.0046-8.3901 2.4444-3.5704 5.5432-4.57 9.1495-2.9516 4.873 2.1869 7.2141 8.1969 7.2384 18.582l9e-3 3.6454-2.164 2.5769c-5.1165 6.0927-9.2316 12.321-12.747 19.293-2.4355 4.8309-3.5577 7.5943-6.4073 15.778-2.0143 5.785-4.1036 10.557-5.96 13.613-1.5136 2.4917-6.0792 8.1057-8.1938 10.075-3.5625 3.3184-10.072 7.8497-16.519 11.5-3.5465 2.0077-12.013 6.2938-12.432 6.2938-0.14854 0-0.40483-0.25178-0.56952-0.55952zm-90.908-5.1191c-2.9339-1.1123-7.1458-3.4129-10.103-5.5188-13.874-9.8785-25.929-25.665-26.933-35.27-0.59634-5.7055 4.4053-9.5451 9.2322-7.0872 1.8889 0.96184 3.9993 3.4483 8.5482 10.072 5.2233 7.6053 8.8472 11.065 15.716 15.004 1.2633 0.72453 2.3629 1.5656 2.547 1.948 0.17814 0.37016 0.58762 3.2864 0.90996 6.4805 0.63039 6.2467 1.1302 9.6839 1.8427 12.673 0.25622 1.0747 0.34564 1.9873 0.2077 2.1198-0.13322 0.12793-1.0183-0.0616-1.9669-0.42126zm50.042-15.856c-0.50369-0.31142-1.6816-4.5311-4.3592-15.616-3.9898-16.518-4.8981-19.426-9.3862-30.051-4.6892-11.101-5.6756-14.548-6.2387-21.799-0.65451-8.4284 0.79044-17.041 3.7461-22.328 4.1607-7.4431 12.581-8.7594 15.43-2.412 1.291 2.8768 1.5781 5.613 1.586 15.118 0.012 14.498 0.22929 15.592 5.1143 25.752 2.9062 6.0443 3.7946 8.1458 4.9256 11.652 1.0403 3.2252 2.2411 8.57 2.5518 11.359 0.19083 1.7129 0.18843 1.7207-1.1899 3.8717-2.0903 3.2619-3.8985 7.0583-6.5586 13.77-2.2423 5.6577-4.1647 9.771-4.9389 10.568-0.18394 0.18933-0.48121 0.23979-0.68185 0.11574zm21.635-41.45c-0.99883-2.3712-1.2767-4.197-1.5259-10.025-0.31358-7.3351-0.54185-8.908-2.075-14.299-1.8708-6.5778-2.1911-8.3662-2.169-12.112 0.037-6.2667 1.0499-9.6196 3.7094-12.279 1.9728-1.9728 3.5407-2.6545 6.1053-2.6545 1.7757 0 2.2507 0.10521 3.1217 0.69137 2.7418 1.8452 5.2153 8.0059 6.4062 15.956 0.58189 3.8847 0.85483 15.403 0.44386 18.731-0.34874 2.8246-0.54598 3.191-3.8279 7.1105-2.4565 2.9336-9.1559 9.9168-9.5139 9.9168-0.13082 0-0.43444-0.46668-0.6747-1.0371z"/>
</svg>
