<?xml version="1.0" encoding="UTF-8"?>
<svg width="300" height="300" version="1.1" viewBox="0 0 300 300" xmlns="http://www.w3.org/2000/svg">
 <path fill="#c1ada1" d="m69.881 274.5c-6.5986-1.7283-12.93-7.805-12.972-12.45-0.02522-2.8068 1.4195-4.768 8.7972-11.942 7.4822-7.276 10.234-10.32 12.773-14.129 2.8167-4.2257 8.2148-14.852 8.2148-16.171 0-0.20677-0.50953-0.92068-1.1323-1.5865-1.4341-1.5332-2.4367-3.6433-2.2136-4.659 0.18929-0.86183 1.2528-1.8298 2.4414-2.2221 0.46336-0.15292 1.7061-0.35763 2.7616-0.45489l1.9191-0.17685 0.49312-1.2388c1.6192-4.0678 10.349-29.049 10.349-29.615 0-0.17272-0.50809-0.85722-1.1291-1.5211-3.5231-3.7664-2.5115-6.7959 2.3679-7.0915l1.8583-0.11257 2.8074-8.0847c1.544-4.4466 4.0899-11.625 5.6574-15.952l2.8501-7.8668-1.3324-1.4724c-3.0842-3.4081-3.2203-5.9807-0.37404-7.0677 0.58024-0.2216 1.9926-0.48123 3.1386-0.57696l2.0836-0.17406 0.44017-1.115c3.1357-7.9429 6.824-17.085 8.7394-21.662 1.3075-3.1244 2.3773-5.7908 2.3773-5.9254 0-0.13459-0.67025-0.94271-1.4894-1.7958-1.3511-1.407-2.7141-3.6737-2.7202-4.5239-1e-3 -0.18382 0.1726-0.70304 0.38651-1.1538 0.60533-1.2756 2.3316-1.9103 5.5789-2.0512l2.623-0.11377 1.5566-3.3767c3.3814-7.3349 8.2415-16.26 12.065-22.157 0.86556-1.3349 1.5738-2.5054 1.5738-2.6012 0-0.09578-0.46433-1.0899-1.0318-2.2092-0.70903-1.3984-1.0666-2.4534-1.1427-3.3722-0.0996-1.2016-0.039-1.4175 0.59825-2.1287 0.89829-1.0026 2.1265-1.2929 4.1358-0.97754 0.84081 0.13195 1.9771 0.30109 2.5251 0.37586l0.99633 0.13596 2.2245-2.6894c4.4061-5.3269 11.199-11.702 16.472-15.459 1.7957-1.2795 6.6518-4.3135 7.1928-4.4938 0.14571-0.04857 0.37938-0.92269 0.51927-1.9425 0.41965-3.0593 1.6719-5.2373 3.2046-5.574 0.94762-0.20813 2.3867 0.57 3.9555 2.1388l1.2724 1.2724 3.6349-0.90318c4.3904-1.0909 8.2102-1.6263 11.65-1.6328 4.2-0.0079 5.0977 0.72093 5.5174 4.4797 0.72908 6.5302 3.6513 11.831 7.6291 13.839 2.8413 1.4343 4.8336 1.8212 9.5781 1.86 3.9425 0.03229 4.2805 0.07184 5.0017 0.58539 1.2184 0.86761 2.3166 4.5223 3.0284 10.078 0.15712 1.2265 0.36219 2.3001 0.45573 2.3858 0.0935 0.08574 0.61606 0.29427 1.1612 0.46338 1.7202 0.5337 3.3388 1.5422 3.8797 2.4174 0.46741 0.75629 0.49062 0.951 0.2207 1.8519-0.37168 1.2406-2.1359 3.0129-3.9931 4.0116-0.74034 0.3981-1.4146 0.82627-1.4984 0.9515-0.0838 0.12522-0.22602 1.026-0.31609 2.0017-0.25055 2.7142-1.5097 8.5827-2.6392 12.3-1.3555 4.4618-3.3384 9.4223-5.715 14.297-1.0755 2.2061-1.9554 4.1284-1.9554 4.2719 0 0.14345 0.39753 0.78161 0.88339 1.4181 0.98834 1.2948 1.9341 3.0785 2.1854 4.1216 0.26552 1.1021-0.45046 2.294-1.7585 2.9272-1.0227 0.49509-1.3688 0.52955-3.9362 0.39197l-2.8149-0.15086-1.9681 2.9019c-4.0251 5.935-9.8466 13.301-14.887 18.837-1.9153 2.1034-2.7366 3.1807-2.6445 3.4688 0.0734 0.22983 0.52689 1.4213 1.0076 2.6478 1.7104 4.3634 0.94452 6.5684-2.2802 6.5645-1.403-2e-3 -2.6684-0.32531-4.5733-1.1697l-1.4258-0.63205-10.839 10.98c-7.8342 7.9366-10.827 11.123-10.796 11.494 0.0234 0.2823 0.32714 1.2937 0.67497 2.2476 0.87051 2.3874 0.85356 3.8472-0.0565 4.8657-1.1548 1.2924-3.3962 1.239-7.0086-0.16708l-1.1444-0.44542-5.6693 5.3088c-3.1181 2.9198-8.1757 7.5934-11.239 10.386-3.0633 2.7924-6.0539 5.5247-6.6457 6.0718l-1.076 0.99472 0.63725 1.8983c1.0912 3.2506 0.75475 4.7861-1.2133 5.5377-0.9648 0.36846-1.3215 0.38681-2.6061 0.13408-0.81856-0.16104-1.8753-0.45451-2.3483-0.65215-0.47301-0.19764-1.0636-0.35934-1.3125-0.35934-0.81613 0-24.093 21.334-24.093 22.082 7e-5 0.18774 0.22635 0.93655 0.50285 1.664 1.2057 3.1722 1.1519 4.9328-0.18267 5.9826-0.92733 0.72944-3.0526 0.66667-5.5672-0.16443l-2.0086-0.66386-0.89404 1.0112c-0.49172 0.55615-2.0647 2.3328-3.4956 3.9481-6.786 7.6606-9.1454 11.485-12.747 20.66-1.0409 2.6518-2.6255 6.6868-3.5213 8.9667-1.7572 4.4721-3.5843 7.7397-4.8806 8.7284-1.8677 1.4246-4.1505 1.6957-7.3097 0.86826z"/>
</svg>
