<?xml version="1.0" encoding="UTF-8"?>
<svg width="300" height="300" version="1.1" viewBox="0 0 300 300" xmlns="http://www.w3.org/2000/svg">
 <path fill="#c190c2" d="m170.3 274.83c-0.6865-0.0872-0.7805-0.22987-1.5793-2.3978-3.162-8.5813-5.4059-18.002-6.5211-27.376-0.5661-4.7588-0.56408-14.42 4e-3 -18.536 1.393-10.095 4.2536-17.793 9.1847-24.715 0.88455-1.2417 3.3372-4.1653 5.4502-6.4969 15.209-16.782 24.916-30.278 32.069-44.589 5.5376-11.078 8.6838-20.937 10.165-31.851 0.61859-4.5588 0.61764-15.004-2e-3 -19.368-0.50648-3.5686-1.1435-6.8185-1.854-9.4581-0.38567-1.4329-0.58663-1.8367-0.88554-1.7795-0.33489 0.0641-0.40928 0.71003-0.55561 4.8241-0.76613 21.54-5.5525 36.908-15.781 50.672-2.3528 3.1658-3.6696 4.6998-9.8453 11.469-10.236 11.22-14.678 17.005-20.367 26.523-10.044 16.806-16.934 33.559-19.635 47.74-1.2422 6.5221-1.9325 15.128-1.6541 20.621 0.11971 2.3619 0.0837 2.9627-0.19133 3.191-0.60866 0.50514-0.91939-0.0451-1.3788-2.4415-4.9161-25.645 1.6998-58.061 17.331-84.918 3.8949-6.6919 7.8126-12.443 17.538-25.744 10.054-13.75 15.365-21.3 17.693-25.154 4.1778-6.9154 7.5833-15.983 9.5662-25.471 1.6128-7.7173 2.2612-13.761 2.4657-22.985 0.18204-8.2088 0.19093-8.2251 2.3669-4.3518 7.5776 13.488 12.148 28.91 13.578 45.818 0.36395 4.3025 0.30257 14.893-0.11168 19.27-1.7262 18.241-8.0237 33.115-21.951 51.844-1.5387 2.0693-5.1504 6.7523-8.026 10.407-10.477 13.314-12.948 17.146-15.677 24.302-6.3737 16.717-6.9568 36.465-1.6456 55.738 0.46284 1.6795 0.84153 3.1032 0.84153 3.1637 0 0.0605-0.67327 0.41523-1.4962 0.78836-2.578 1.1689-6.0426 1.6495-9.096 1.2618zm-37.055-1.5895c-0.52281-0.16535-1.2822-0.47355-1.6876-0.68489-0.76551-0.39909-2.2335-1.9202-2.2335-2.3142 0-0.12413-0.0553-2.0186-0.12293-4.2099-0.75979-24.627-7.2361-49.478-18.627-71.475-3.6021-6.9562-6.5213-11.673-12.502-20.2-19.928-28.413-26.566-41.838-28.966-58.579-0.97227-6.7837-1.101-18.837-0.27656-25.903 1.9919-17.074 7.1968-34.663 14.873-50.261 3.0123-6.1211 8.0353-14.615 8.6428-14.615 0.67487 0 0.75565 0.48667 0.46314 2.7904-2.7196 21.419 0.39017 49.34 8.0798 72.543 3.4172 10.312 6.6502 16.417 20.007 37.784 9.3658 14.983 13.567 22.25 17.242 29.824 2.8996 5.976 4.4954 9.9191 4.2163 10.418-0.46249 0.82643-1.0672 0.38703-2.9727-2.1599-5.1129-6.8342-9.3113-11.378-22.547-24.401-12.977-12.769-15.692-15.793-20.17-22.46-6.1885-9.215-10.814-20.317-12.827-30.788-1.0318-5.3672-1.2-7.4659-1.2-14.971 0-7.4791 0.14864-9.3495 1.1872-14.938 0.47246-2.5425 0.4548-3.0037-0.11504-3.0037-0.38366 0-0.64334 0.55501-1.5288 3.2676-4.0243 12.328-5.5839 21.595-5.3093 31.547 0.37629 13.637 4.4425 24.224 14.993 39.038 6.5937 9.2578 12.38 16.674 21.181 27.146 11.179 13.302 13.574 16.579 16.854 23.051 4.3897 8.6632 6.1766 16.127 7.425 31.012 0.53188 6.3422 0.61285 28.405 0.12689 34.577-0.52675 6.6903-1.5464 15.419-2.075 17.764-0.13873 0.6153-0.66696 0.66545-2.1315 0.20228zm56.651-3.3992c-0.59058-0.0912-0.62774-0.18386-0.7732-1.928-0.63527-7.6174-0.67858-15.173-0.12558-21.907 0.51226-6.2373 3.6581-16.031 7.4559-23.212 4.4323-8.3806 9.9847-15.322 19.737-24.673 9.5016-9.1107 11.054-10.736 12.909-13.52 7.3041-10.958 9.9392-26.785 7.7251-46.4-0.21285-1.8857-0.31436-3.5012-0.22557-3.5899 0.34901-0.349 1.0033 0.44559 2.7991 3.399 6.9707 11.465 10.181 21.988 10.168 33.329-9e-3 7.4506-1.3613 14.042-4.3661 21.277-2.6654 6.4179-6.0103 11.631-12.126 18.897-7.4015 8.7947-9.8389 12.039-12.606 16.781-5.341 9.1522-8.7478 20.519-10.501 35.036l-0.41341 3.4234-1.6763 0.76979c-3.7069 1.7023-8.1527 2.4975-13.677 2.4462-2.0259-0.0188-3.9626-0.0773-4.3039-0.13001zm-73.049-4.926c-14.356-2.2955-25.589-12.623-33.11-30.44-4.0263-9.5379-6.561-20.025-8.0113-33.146-1.3915-12.589-5.457-22.428-13.286-32.153-2.0049-2.4904-5.9398-6.836-7.2228-7.9768-0.34759-0.30903-1.5661-1.4715-2.7077-2.5832-2.8084-2.7347-2.6119-2.9953 1.195-1.5849 9.2602 3.431 18.833 10.12 26.495 18.513 7.7578 8.4982 12.978 17.751 15.62 27.685 1.537 5.7801 2.2027 8.0531 3.1262 10.675 3.8132 10.826 10.014 20.027 18.26 27.091 0.97943 0.83911 1.8471 1.6946 1.9282 1.9011 0.0811 0.20652 0.37497 2.1934 0.6531 4.4154 0.62781 5.0157 0.99835 12.299 0.78581 15.447l-0.16047 2.3764-0.83175 0.0413c-0.45746 0.0228-1.6873-0.0955-2.7329-0.26269zm33.562-104.28c-3.0552-9.4602-4.445-20.702-3.7536-30.361 0.56253-7.8586 1.3965-13.485 3.8219-25.784 2.4228-12.286 2.9609-15.939 3.3222-22.556 0.3813-6.9822-0.15106-13.714-1.8058-22.834-2.0133-11.097-3.8886-16.061-9.6889-25.649-2.0227-3.3436-2.9306-5.0528-2.7695-5.2139 0.29099-0.291 1.2479 0.1388 3.9923 1.7931 14.755 8.8945 24.638 25.928 29.619 51.052 2.2105 11.149 3.2597 22.843 3.3159 36.956l0.0331 8.3197-0.98721 1.6613c-1.6828 2.8318-3.8366 5.6982-8.3756 11.147-7.9788 9.5776-11.013 14.039-14.52 21.351l-1.3402 2.7944z"/>
</svg>
