<?xml version="1.0" encoding="UTF-8"?>
<svg width="300" height="300" version="1.1" viewBox="0 0 300 300" xmlns="http://www.w3.org/2000/svg">
 <path fill="#adc8e8" d="m142.28 274.83c-5.3479-0.2745-12.943-1.3974-17.857-2.6401-25.067-6.3393-41.66-23.602-46.7-48.586-3.8095-18.882-0.83653-39.369 8.386-57.786 2.785-5.5616 5.3769-9.852 12.183-20.166 5.3032-8.0366 6.8217-10.569 9.0101-15.026 1.9266-3.9242 3.216-7.5921 3.9906-11.351 0.44328-2.1514 0.49127-3.0174 0.38367-6.9233-0.12471-4.5267-0.13954-4.6355-1.9541-14.326-1.1351-6.0617-1.4136-9.219-1.2803-14.511 0.21418-8.5009 1.5513-13.619 5.0961-19.505 1.9055-3.1644 3.1816-4.8674 8.7428-11.668 2.516-3.0765 5.2005-6.4631 5.9656-7.5257 4.3666-6.0647 6.6869-11.774 7.1043-17.481l0.17308-2.3664 1.1572 0.76748c2.6938 1.7867 4.8619 4.6523 5.824 7.6978 1.008 3.191 1.216 6.1707 0.83416 11.953-0.18406 2.7872-0.32532 7.4566-0.31392 10.376 0.0192 4.9248 0.0663 5.4796 0.65138 7.6683 1.4899 5.5739 4.8134 10.74 10.136 15.754 1.2228 1.152 4.6647 4.0633 7.6487 6.4694 6.0141 4.8495 9.7959 8.355 11.6 10.753 2.0041 2.6632 2.986 4.858 4.5444 10.158 4.8103 16.358 9.3241 25.611 16.218 33.245 0.98296 1.0885 3.8476 3.8781 6.3659 6.1991 2.5183 2.321 5.3851 5.1176 6.3707 6.2146 7.594 8.4528 13.704 20.827 15.938 32.279 1.0709 5.4897 1.3178 8.307 1.3322 15.203 0.0141 6.7359-0.14488 8.8673-1.0981 14.72-3.1557 19.376-12.597 35.778-26.694 46.374-13.608 10.228-32.381 15.127-53.757 14.03zm-12.529-41.432c5.739-1.8467 10.461-7.5135 11.658-13.992 1.2812-6.9306-0.13377-14.286-3.8316-19.917-5.2125-7.9382-13.9-12.333-22.463-11.364-7.8549 0.88948-14.143 6.0787-16.788 13.856-0.58536 1.7206-0.73597 3.0345-0.34787 3.0345 0.12135 0 0.65504-0.89588 1.186-1.9908 2.0266-4.1796 5.7907-7.9938 8.9546-9.074 1.505-0.51382 1.3423 0.0775-0.53887 1.9587-3.1411 3.1411-4.676 7.1122-4.927 12.748-0.28262 6.3446 1.3378 11.732 4.9842 16.571 3.3161 4.4008 7.9658 7.4952 12.924 8.6012 2.5543 0.56975 6.6811 0.37641 9.1888-0.4305zm42.211 0.56521c4.67-0.66536 8.7694-2.858 12.455-6.6617 4.914-5.0717 7.2561-11.501 6.8882-18.909-0.2651-5.3371-1.7762-9.219-4.868-12.506-0.99336-1.0559-1.8061-1.9862-1.8061-2.0672 0-0.36974 1.145-0.0798 2.4666 0.6246 2.9553 1.5752 6.5442 5.6548 7.9426 9.0288 1.108 2.6732 1.6053 1.4461 0.6053-1.4935-2.274-6.6844-7.2711-11.542-13.806-13.42-2.6576-0.76373-7.9892-0.76381-10.79-1.7e-4 -2.2107 0.60266-5.369 2.0395-7.3378 3.3382-3.3383 2.2022-6.9267 6.3189-8.8531 10.157-3.6977 7.3662-3.6906 17.191 0.0169 23.517 1.1103 1.8944 3.9166 4.8519 5.7102 6.0178 3.2576 2.1176 7.2806 2.9568 11.377 2.3731z"/>
</svg>
