<?xml version="1.0" encoding="UTF-8"?>
<svg width="300" height="300" version="1.1" viewBox="0 0 300 300" xmlns="http://www.w3.org/2000/svg">
 <path fill="#8abfe8" d="m140.98 254.18c-9.2328-3.7174-16.904-6.8041-17.048-6.8595-0.26672-0.1028 2.484-27.966 2.845-28.818 0.17008-0.40135 1.4948-0.21071 12.122 1.7445l11.931 2.195 21.615-0.1592 2.902 6.9367c1.5961 3.8152 2.93 6.9742 2.9642 7.0199 0.0343 0.0458 6.9944-1.7166 15.467-3.9163l15.405-3.9995 18.066-15.61c10.617-9.1734 18.122-15.853 18.203-16.2 0.54994-2.3761 9.8992-49.235 10.304-51.645 0.78703-4.6837 0.70996-14.547-0.15177-19.423-1.873-10.599-6.1841-20.259-12.606-28.246-2.7935-3.4745-11.669-12.975-12.244-13.106-0.3126-0.07134-7.4004-1.118-15.751-2.3258l-15.182-2.1961-9.7898-6.7704c-5.3844-3.7237-11.288-7.7907-13.119-9.0377l-3.3296-2.2673-12.927-3.4724c-7.11-1.9098-13.175-3.4724-13.477-3.4724-0.30239 0-13.714 4.3621-29.803 9.6935l-29.253 9.6935-4.7925-0.7251c-2.9334-0.44389-4.8881-0.62532-5.0388-0.46776-0.13543 0.14158-6.0596 12.448-13.165 27.348l-12.919 27.09 1.6969 13.42 1.6969 13.42-9.5442 16.27c-5.2493 8.9486-9.5789 16.239-9.6213 16.201-0.19307-0.17293-11.438-32.707-11.438-33.093 0-0.23955 4.6265-8.9756 10.281-19.413l10.281-18.978 4.703-21.004c2.5867-11.552 4.804-21.243 4.9273-21.534 0.16887-0.39897 1.1682-0.7874 4.0461-1.5727 2.102-0.57359 3.8549-1.0843 3.8953-1.135 0.0404-0.05066 1.4206-5.4174 3.0671-11.926l2.9936-11.834 0.72464 0.24281c0.39855 0.13355 6.7804 2.1245 14.182 4.4244l13.457 4.1816 9.0598-0.54321c5.5299-0.33156 9.3137-0.67499 9.7114-0.88145 0.35842-0.18603 6.2944-3.514 13.191-7.3954l12.539-7.0572 32.08 6.4039 3.8093 3.9616 10.165-3.634c5.5909-1.9987 10.296-3.6673 10.455-3.708 0.15917-0.04068 7.4157 3.0458 16.126 6.8587l15.836 6.9327 0.17765 4.3048c0.0977 2.3677 0.25608 6.1343 0.35194 8.3702l0.17427 4.0654 22.08 24.028 10.744 5.7653c5.9091 3.1709 10.789 5.8105 10.844 5.8658s-0.20376 5.929-0.57567 13.053l-0.67621 12.952-5.2756 8.1637c-3.0917 4.7842-5.3391 8.5437-5.4289 9.0817-0.0843 0.50491-0.35115 7.6484-0.59301 15.874-0.4246 14.442-0.42225 14.979 0.0683 15.599 0.27941 0.35354 1.4542 1.7391 2.6108 3.079l2.1027 2.4362-3.055 19.423c-1.6803 10.683-3.0926 19.473-3.1386 19.534-0.0459 0.061-8.2029 1.6389-18.127 3.5064l-18.043 3.3955-1.5775 1.3493c-0.86764 0.74212-3.5197 3.014-5.8934 5.0486s-4.4683 3.7634-4.6545 3.8417c-0.18624 0.0784-4.321-0.5664-9.1883-1.4328l-8.8497-1.5753-7.1722 1.8465c-3.9447 1.0156-7.3016 1.9227-7.4598 2.0159-0.15819 0.0932-5.1143 3.6426-11.014 7.8877s-10.831 7.7067-10.96 7.6926c-0.12878-0.0141-7.7882-3.067-17.021-6.7844zm22.336-7.4934c3.0522-2.3721 5.7159-4.4781 5.9195-4.68 0.30828-0.30579 0.15503-1.3566-0.91767-6.2923-0.70827-3.2589-1.3166-5.954-1.3517-5.9892-0.13241-0.13241-12.629 0.33467-12.772 0.47736-0.0821 0.0821 0.53145 4.7017 1.3634 10.266s1.5132 10.21 1.514 10.325c4e-3 0.60238 1.1848-0.1741 6.2445-4.1064zm93.55-39.111c0.95297-4.8827 1.739-9.0429 1.7467-9.2448 8e-3 -0.20195-0.16206-0.32681-0.37729-0.27747-0.51422 0.11788-15.61 13.74-15.813 14.27-0.088 0.2294 0.0377 0.48239 0.28727 0.57817 1.6058 0.6162 11.693 3.6353 12.02 3.5979 0.30253-0.0346 0.83784-2.2706 2.1364-8.9237zm-215.22-46.668c4.3585-7.118 4.605-7.5764 4.0743-7.5764-0.36945 0-11.045 3.2711-11.208 3.4344-0.20991 0.2099 2.5625 10.716 2.8273 10.715 0.15585-1e-3 2.0938-2.9588 4.3067-6.5726zm177.52-87.973c2.0176-5.664 4.222-12.081 4.222-12.29 0-0.14619-0.15608-0.26726-0.34684-0.26906-0.19076-0.0018-4.3081 1.7775-9.1497 3.9539-6.2612 2.8146-8.8048 4.087-8.8096 4.4067-4e-3 0.26762 1.0286 1.1097 2.552 2.081l2.5588 1.6315 3.8924 0.59212c5.068 0.77096 4.7662 0.77729 5.081-0.10655zm-131.49-9.6676c7.6473-2.3601 7.7191-2.3879 7.1901-2.7911-0.5732-0.43687-20.14-6.5319-20.644-6.4306-0.46403 0.09328-1.8648 3.3741-1.7187 4.0254 0.12725 0.56738 7.4154 7.3028 7.9021 7.3028 0.24478 0 3.5166-0.94794 7.2708-2.1065zm10.646 176.62c-1.6235-0.32044-3.2435-1.0737-7.1417-3.3206-2.579-1.4866-4.327-2.2481-7.5982-3.3104-10.218-3.318-15.79-7.1368-22.564-15.464-2.2727-2.7938-2.9627-3.4617-3.9753-3.8484-1.1468-0.43798-2.2156-0.44527-3.191-0.0218-0.36099 0.15674-0.41706-0.47305-0.42267-4.7471-0.0052-4.0039-0.09377-5.1232-0.47215-5.9701-0.71769-1.6063-2.3067-1.9374-4.0543-0.84483-0.35661 0.22295-0.69775 0.356-0.75809 0.29566-0.06034-0.0603 0.30774-0.97556 0.81795-2.0338 1.0522-2.1825 3.2446-5.2111 4.2485-5.8688 1.5853-1.0388 2.2518-3.7834 3.1185-12.842 0.53388-5.5804 0.94294-7.467 2.1109-9.7356 1.1087-2.1535 3.3465-5.125 5.6764-7.5375l2.4781-2.5659 0.01687 3.6071c0.08698 18.596 2.497 28.213 8.5885 34.274 2.5185 2.5057 5.6665 4.2225 8.8957 4.8514 1.1446 0.2229 3.3921 0.65173 4.9945 0.95295 3.6062 0.67791 6.9203 2.2533 10.164 4.8313 2.8641 2.2766 4.7963 4.6484 6.3628 7.8101 1.765 3.5626 2.408 6.2288 2.4424 10.128 0.0324 3.6764-0.57636 6.1615-2.0569 8.3967-1.1075 1.672-2.0144 2.3095-4.0337 2.8355-1.7732 0.46187-1.9321 0.4675-3.6467 0.12907zm76.127-33.693c-2.7582-0.57583-4.4752-1.1788-6.8817-2.4168-2.9356-1.5101-3.0968-1.8816-3.2278-7.438-0.0767-3.2523 0.10958-6.6344 0.76391-13.873 0.47589-5.265 0.9847-12.559 1.1307-16.209 0.65561-16.393-1.2557-35.861-4.0514-41.267-0.94875-1.8347-2.1595-1.0399-2.5028 1.6429-0.11179 0.87354-0.21912 11.327-0.23852 23.231-0.035 21.482-0.27377 28.856-1.2758 39.401-1.0556 11.109-4.3884 14.509-15.385 15.695-5.2173 0.56278-10.625-0.0965-13.713-1.6719-3.9286-2.0042-6.6739-6.031-8.3309-12.22-1.8225-6.8067-3.3456-24.15-3.3434-38.072 2e-3 -10.958 0.6094-17.83 2.3764-26.872 1.0778-5.5155 1.1264-6.1514 0.51609-6.7617-1.1086-1.1086-2.9713 0.0218-4.2675 2.5896-1.7024 3.3724-3.544 10.453-4.7343 18.201-1.4591 9.4982-1.0961 24.991 1.0109 43.147 1.1166 9.6216 1.1065 9.0722 0.19872 10.794-1.8622 3.5326-6.317 4.9727-14.386 4.6504-19.391-0.7745-24.076-5.5443-25.413-25.873-0.21868-3.3248-0.26891-8.749-0.15167-16.377 0.18701-12.167 0.14862-12.639-1.1409-14.03-0.8993-0.97041-1.7842-1.166-2.9922-0.6612-0.96229 0.40207-0.98999 0.39554-1.2526-0.29514-1.0242-2.6937-1.0309-5.5536-0.0179-7.5393 0.32252-0.6322 1.293-2.1839 2.1566-3.4483 2.7441-4.0174 4.2165-8.2002 3.8011-10.798-0.24953-1.5605-1.5112-2.9498-3.0533-3.3623-1.3373-0.35767-1.3546-0.47776-0.35468-2.4604 0.86779-1.7207 1.877-2.6826 4.5085-4.2973 4.0535-2.4872 4.2251-2.7022 6.2658-7.8506 1.426-3.5975 3.1254-6.1745 5.5174-8.3667 2.2824-2.0918 3.973-3.0979 8.8137-5.2451 2.067-0.91688 4.4443-2.1224 5.2828-2.679 1.5249-1.0122 2.8858-2.4931 2.8858-3.1404 0-0.18907 0.0936-0.30136 0.20811-0.24953 0.11445 0.05183 1.3943 0.6807 2.8441 1.3975 4.7524 2.3496 10.277 3.4692 14.583 2.9552 1.663-0.1985 2.6665-0.60661 7.3371-2.9839 6.2173-3.1645 11.626-5.5171 16.948-7.3717 3.3076-1.1526 8.7197-2.6453 9.5946-2.6463 0.17714-1.97e-4 0.59741 0.56839 0.93391 1.2635 1.5301 3.1608 4.5072 6.1754 7.4843 7.5786 1.3195 0.62194 1.9768 0.73304 4.8563 0.82076 2.1983 0.06697 4.1788-0.04537 5.8269-0.33051 1.568-0.2713 2.5318-0.33057 2.5911-0.15937 0.052 0.14993 0.60163 1.032 1.2215 1.9603 1.976 2.9592 4.611 4.4387 9.1141 5.1176 8.4706 1.277 10.793 2.4556 17.061 8.6586 2.7462 2.7177 3.6274 3.4197 4.882 3.8891 2.5898 0.96898 4.6693 1.1909 10.695 1.1412 4.5375-0.0375 6.1755 0.0503 7.6827 0.41163 2.1974 0.5268 4.2315 1.5534 5.3116 2.6807l0.74699 0.77969-1.2124 0.32462c-2.8782 0.77064-5.5132 2.6088-5.5132 3.846 0 0.61029 1.0383 1.5728 3.3296 3.0867 4.055 2.6791 6.3605 5.2507 8.0519 8.981 0.45492 1.0033 0.82713 1.8862 0.82713 1.9621 0 0.0758-0.34337 0.0737-0.76304-5e-3 -1.216-0.2272-2.489 0.75808-3.3483 2.5916-0.62927 1.3426-0.74256 1.9528-0.73277 3.9466 0.0147 2.9872 0.38541 4.0928 3.4893 10.405 1.3507 2.747 2.5295 5.3207 2.6196 5.7194 0.14651 0.64892 5e-3 0.8143-1.345 1.5764-0.82979 0.4683-1.9505 1.3676-2.4905 1.9984-0.88944 1.0391-0.9966 1.3475-1.1395 3.2793-0.0867 1.1728-0.14931 4.3798-0.13906 7.1268 0.0469 12.572-2.3059 25.3-6.043 32.689-2.678 5.295-7.0173 9.0396-11.913 10.28-6.1446 1.5569-12.393 1.1716-13.994-0.86278-0.73419-0.93337-0.6968-1.5022 0.27346-4.1608 2.9853-8.18 4.5696-20.51 4.5549-35.448-7e-3 -6.7379-0.12051-9.2493-0.59744-13.18-0.96948-7.9895-2.5855-15.213-3.833-17.134-0.23294-0.35862-0.68621-0.6243-1.0651-0.6243-1.2609 0-1.4254 1.6892-1.2699 13.041 0.0763 5.5702 0.12434 12.625 0.10676 15.677-0.0678 11.76-2.0569 25.699-4.5369 31.793-2.4124 5.928-6.7665 10.119-12.218 11.759-2.1242 0.63931-7.1379 0.79307-9.5358 0.29244z"/>
</svg>
