<?xml version="1.0" encoding="UTF-8"?>
<svg width="300" height="300" version="1.1" viewBox="0 0 300 300" xmlns="http://www.w3.org/2000/svg">
 <path fill="#f27ba3" d="m155.66 274.72c-0.70265-0.43226-1.3623-1.8694-1.1841-2.5795 0.0854-0.34025 1.2545-2.3408 2.598-4.4456 13.325-20.876 22.481-43.664 25.766-64.125 1.3077-8.1475 1.821-18.637 1.2672-25.9-1.0052-13.182-4.3081-28.954-8.5638-40.894-2.6272-7.3709-4.5422-11.798-10.614-24.537-4.7731-10.015-6.3972-13.829-8.1177-19.064-4.2675-12.985-5.1334-27.14-2.694-44.04 0.64728-4.4845 1.708-9.8376 2.3062-11.639 0.49291-1.484 2.2644-3.2729 3.6894-3.7257 0.51219-0.16275 3.0782-0.42695 5.7022-0.58712 9.516-0.58084 18.553-1.436 29.308-2.7735 6.0828-0.75645 7.0494-0.81466 8.9894-0.54141 3.2929 0.46383 5.5399 1.6551 8.6249 4.5725 5.5527 5.2511 12.251 12.713 17.586 19.591 26.213 33.794 40.439 73.089 40.566 112.05l0.024 7.361-1.0053 2.7341c-4.7283 12.86-13.363 26.352-25.647 40.076-4.0542 4.5295-13.528 13.908-17.923 17.743-20.286 17.701-42.278 31.186-64.204 39.37-3.9965 1.4917-5.6772 1.8427-6.4749 1.3519zm35.129-34.3c6.0629-4.002 9.8615-7.0666 14.583-11.764 5.7516-5.7234 9.372-10.49 13.3-17.509 3.0145-5.3875 5.7453-11.682 7.9121-18.239 0.84344-2.5521 0.90452-2.6462 2.3757-3.6594 3.5903-2.4728 6.9114-7.4142 8.8696-13.197 0.91925-2.7147 0.96036-3.4945 0.24803-4.7043-0.84236-1.4306-2.3804-6.3782-2.9076-9.3531-0.41033-2.3155-0.48871-4.5747-0.52019-14.995-0.0389-12.87-0.18422-15.035-1.5099-22.492-5.53-31.106-25.263-56.177-51.152-64.99-5.223-1.7779-9.6969-2.697-16.065-3.3006l-1.6659-0.15788-0.18997 2.588c-0.10448 1.4234-0.10348 4.556 2e-3 6.9613l0.19223 4.3732 2.2089 0.0022c2.7648 0.0028 6.2403 0.38308 10.115 1.1068 12.29 2.2953 22.478 8.054 29.386 16.609 4.8507 6.0077 9.0871 14.937 11.381 23.986 2.0089 7.9264 2.584 13.297 2.5702 24-0.0148 11.411-0.58585 16.86-3.3 31.489-0.69552 3.7486-1.2778 7.6226-1.2939 8.6088-0.0256 1.5695 0.0662 1.9183 0.73625 2.797 0.89916 1.1791 2.0477 1.8108 4.7552 2.6155 1.0871 0.32309 1.9766 0.64109 1.9766 0.70666 0 0.35094-2.3929 1.2574-3.8428 1.4557-3.0484 0.4169-5.4748-0.41089-6.9872-2.3838-1.8783-2.4502-2.1479-5.8211-1.0395-12.997 1.492-9.6593 1.6386-11.652 1.6329-22.204-5e-3 -8.9852-0.0654-10.335-0.62407-13.904-2.354-15.04-7.5347-25.954-16.307-34.351-3.2818-3.1416-6.0071-5.0555-9.7077-6.8176-4.3694-2.0805-6.6281-2.5881-11.517-2.5881-3.8922 0-6.1341 0.34418-6.1341 0.94173 0 0.41281 2.4133 7.2414 3.3285 9.4181l0.91698 2.181 3.2617 0.0426c5.3424 0.0698 9.3822 1.4642 13.727 4.7384 4.7828 3.604 7.8863 8.2921 9.47 14.305 0.98149 3.7269 1.2115 10.047 0.50837 13.968-0.88769 4.9494-2.8395 9.6368-5.066 12.166-0.58578 0.66549-1.0651 1.4507-1.0651 1.7449s0.29902 1.8703 0.66447 3.5023c0.84274 3.7635 1.9128 10.708 2.5156 16.326 0.57758 5.3832 0.65375 18.624 0.1341 23.31-1.734 15.637-5.2798 28.969-11.798 44.358-2.2979 5.4256-2.3855 6.5784-0.57458 7.5611 1.5092 0.81901 2.2014 0.5786 6.4958-2.2561zm-54.624 33.077c-4.0489-1.1195-15.497-6.1868-22.617-10.011-34.313-18.429-62.551-47.574-79.952-82.517-4.123-8.2793-4.4225-9.0495-4.5678-11.746-0.11163-2.0714 0.0077-2.8655 1.1064-7.3653 11.637-47.656 32.558-88.376 64.083-124.73 8.1402-9.3865 9.4697-10.599 12.735-11.615 2.7056-0.84206 4.8674-0.69271 10.043 0.69382 6.0923 1.6321 13.383 3.4375 18.831 4.6628 5.0957 1.1462 5.8073 1.435 6.5541 2.6597 0.71359 1.1703 0.66803 2.2123-0.17528 4.008-3.8764 8.2543-7.5963 20.238-9.2247 29.716-1.0913 6.3526-1.3659 9.5826-1.344 15.812 0.0286 8.1338 0.8893 14.032 3.2408 22.209 2.2084 7.6794 4.2464 12.651 11.515 28.091 2.4707 5.2481 5.1659 11.076 5.9893 12.95 8.6065 19.592 12.368 35.121 13.149 54.277 0.74512 18.295-1.601 30.918-8.8379 47.55-3.8303 8.803-11.605 22.248-13.858 23.967-1.986 1.5148-4.3918 2.0142-6.6692 1.3846zm5.0254-20.482c2.5618-1.0704 4.031-3.4353 6.8602-11.043 2.6425-7.1051 4.2595-13.72 5.0889-20.817 0.53095-4.5432 0.60758-14.721 0.14884-19.766-1.4217-15.635-5.9929-31.575-15.636-54.526-1.5412-3.6681-2.1573-4.8461-2.6649-5.0959-2.5409-1.2503-6.7717-3.6765-8.8391-5.0689-11.713-7.889-22.385-20.736-29.479-35.489l-1.5482-3.2197 0.62399-1.9374c0.93504-2.9032 3.8589-8.4559 5.8378-11.087 3.6278-4.8227 8.7831-9.0908 15.012-12.429l2.9873-1.6008 0.49159-2.4537c0.27038-1.3495 0.9309-4.2111 1.4678-6.3591 0.53692-2.148 0.90554-3.9761 0.81916-4.0625-0.28925-0.28924-6.5384 1.8738-9.5711 3.3128-15.01 7.1222-28.057 22.189-35.787 41.324-3.5066 8.6809-5.6792 17.162-7.0541 27.535-0.50063 3.7774-0.62411 13.147-0.35571 26.99 0.11635 6.0011-0.08586 8.006-1.2615 12.508-0.36728 1.4064-1.0514 3.361-1.5204 4.3436l-0.8526 1.7865 0.6137 1.9268c1.9303 6.0606 5.5705 11.344 9.854 14.301l1.4669 1.0128 6.1427 12.254c7.6916 15.344 9.7971 19.034 14.304 25.068 4.5876 6.1412 8.606 10.06 14.177 13.824 6.4457 4.3561 13.793 7.2802 22.492 8.952 2.7447 0.52747 4.6088 0.47143 6.1818-0.18581zm-27.314-38.757c-0.75168-0.25993-1.9785-0.8286-2.7263-1.2637-1.8086-1.0524-5.0044-4.312-5.9263-6.0445-2.0738-3.8974-1.9746-8.6557 0.21033-10.087 1.0444-0.68431 1.8013-0.0127 2.8584 2.5363 2.354 5.6763 4.0014 7.2451 7.6518 7.2867 1.521 0.0173 1.9641-0.0937 2.9328-0.73458 4.9695-3.2879 5.4471-12.469 1.1282-21.685-2.5254-5.3891-5.5767-7.9574-17.712-14.909-10.625-6.0865-14.981-9.706-17.565-14.596-0.91315-1.728-0.95123-1.9249-1.2656-6.5431-0.4592-6.7452-0.11701-13.864 0.99553-20.71 0.52907-3.2558 2.0131-9.5424 2.2523-9.5408 0.09884 5.5e-4 0.6638 0.94408 1.2555 2.0965 2.7242 5.3062 6.9598 10.968 19.642 26.256 17.589 21.202 19.93 24.317 22.646 30.125 5.009 10.714 4.4806 21.644-1.4824 30.665-1.362 2.0606-3.8919 4.7094-5.4295 5.6849-2.8196 1.7887-6.7625 2.3984-9.4657 1.4636z"/>
</svg>
