<?xml version="1.0" encoding="utf-8"?>
<svg version="1.1" xmlns="http://www.w3.org/2000/svg" x="0px" y="0px"
     viewBox="0 0 512 512" style="enable-background:new 0 0 512 512;" xml:space="preserve">
    <g fill="#552358">
	    <path class="st0"
              d="M472.6,285.8c38.1-154.1-226-213.2-217.4-37.8c-0.7,0.2-1.3,0.3-2.1,0.5C189.6,14.4,567.6,86.1,472.6,285.8z"/>
        <path class="st0"
              d="M261.4,251c-0.7-0.7-0.9-0.9-1.5-1.8C428,75,560.5,435.6,340.8,456.9C492.5,410.4,407.3,153.5,261.4,251z"/>
        <path class="st0"
              d="M178.9,50.4C25.6,90.8,100.8,351,250.4,259.1c0.5,0.4,0.9,0.8,1.4,1.3C77.4,428.9-41.9,63.2,178.9,50.1 C178.9,50.2,178.9,50.3,178.9,50.4z"/>
        <path class="st0"
              d="M38.8,225.9c-36.6,154.6,228,211.2,217.9,35.6c0.4-0.1,0.9-0.3,1.7-0.5C324.8,494.6-54.5,426.6,38.8,225.9z"/>
        <path class="st0"
              d="M394.9,86.7c-112-112.7-300,81.3-145.8,166c-0.1,0.4-0.2,0.9-0.3,1.7C15.5,187,273.7-98.8,394.9,86.7z"/>
        <path class="st0"
              d="M262.3,258C262.3,258,262.3,258.1,262.3,258c156.1,80.4-27.7,279.8-141.8,169 C247.2,613.1,496.7,311.6,262.3,258z"/>
    </g>
</svg>
