<?xml version="1.0" encoding="UTF-8"?>
<svg width="300" height="300" version="1.1" viewBox="0 0 300 300" xmlns="http://www.w3.org/2000/svg">
 <path fill="#eeb833" d="m144.12 274.49c-0.17824-0.28125-1.8533-3.1774-3.7224-6.4359l-3.3983-5.9245-5.9728-28.053c-3.285-15.429-6.0523-28.266-6.1494-28.527-0.13499-0.36245-3.1384-1.7697-12.762-5.9799-6.9222-3.0283-12.691-5.5763-12.82-5.6624-0.12863-0.0861-6.0757-9.7896-13.216-21.564l-12.982-21.407 38.419-62.968c21.13-34.632 38.485-62.965 38.566-62.961 0.14455 0.0066 75.996 124.22 76.585 125.42 0.29186 0.59195-0.11052 1.2915-12.572 21.855-7.0802 11.684-13.045 21.382-13.256 21.552-0.21066 0.16983-6.0521 2.7887-12.981 5.8196l-12.598 5.5108-12.149 56.997-7.3836 12.841h-5.642c-5.6034 0-5.6442-3e-3 -5.966-0.51136zm14.386-98.097c4.5102-7.4849 8.1959-13.749 8.1905-13.92-0.0166-0.52518-16.254-27.126-16.599-27.192-0.45424-0.088-16.459 26.388-16.459 27.228 0 0.71378 15.968 27.472 16.402 27.486 0.14609 4e-3 3.9558-6.1159 8.4659-13.601zm-22.963-40.602c7.9227-13.309 14.468-24.194 14.545-24.189 0.0773 5e-3 6.5327 10.755 14.345 23.888s14.307 24.02 14.432 24.192c0.18982 0.26157 1.1824 0.1452 6.0227-0.70614 3.1875-0.56063 5.8722-1.0196 5.9659-1.0198 0.0937-2.3e-4 0.17045-0.0885 0.17045-0.19614 0-0.42575-40.648-67.422-40.939-67.476-0.19552-0.03628-7.7519 12.254-20.311 33.036-11 18.202-20.146 33.389-20.324 33.749-0.17833 0.36017-0.2793 0.69979-0.22437 0.75473 0.0847 0.0847 11.025 2.0949 11.685 2.147 0.125 0.01 6.7094-10.871 14.632-24.18zm-12.027-25.001c20.534-34.466 26.528-44.363 26.732-44.142 0.14513 0.15664 12.05 20.075 26.454 44.262 14.405 24.188 26.264 44.057 26.355 44.155 0.15856 0.17186 11.799-1.7743 12.037-2.0125 0.0648-0.0648 0.01-0.29209-0.12274-0.50516-0.13227-0.21306-14.636-24.217-32.231-53.342-17.595-29.125-32.174-53.146-32.398-53.38-0.39742-0.41443-0.41623-0.41158-0.75103 0.11364-1.9149 3.004-64.343 106.53-64.422 106.84-0.05855 0.22389-0.01782 0.41207 0.09051 0.41816 0.10833 6e-3 2.6515 0.45356 5.6515 0.99437 3 0.5408 5.608 0.9933 5.7955 1.0055 0.22077 0.0144 9.6685-15.634 26.809-44.404zm51.212 130.8c0.0559-0.1875 1.9106-7.1907 4.1216-15.563 2.211-8.372 4.0394-15.236 4.0632-15.254 0.33257-0.24345 12.56-5.5407 12.686-5.496 0.13379 0.0475-19.661 34.698-20.744 36.312-0.20332 0.30303-0.21744 0.30303-0.1271 0zm-59.273-16.967c-5.3746-9.334-10.108-17.564-10.519-18.288l-0.74655-1.3173 1.0875 0.46112c0.59811 0.25361 3.5371 1.5549 6.5311 2.8917l5.4437 2.4306 4.0332 15.224c2.2183 8.3732 4.0126 15.302 3.9875 15.397-0.0251 0.0949-4.4432-7.4644-9.8178-16.798z"/>
</svg>
