<?xml version="1.0" encoding="UTF-8"?>
<svg width="300" height="300" version="1.1" viewBox="0 0 300 300" xmlns="http://www.w3.org/2000/svg">
 <path fill="#7cc345" d="m148.76 274.55c-0.22453-0.24987-5.8955-12.896-12.602-28.102-6.7066-15.206-12.346-27.977-12.532-28.379-0.21797-0.47133-0.48879-0.69185-0.76194-0.62041-0.23308 0.0609-4.3288 2.9698-9.1015 6.464-4.7728 3.4943-8.9225 6.484-9.2217 6.6439-0.85649 0.45768-1.6628-0.24654-1.6622-1.4517 2.6e-4 -0.52735 0.52524-5.7395 1.1666-11.583s1.1292-10.661 1.0842-10.706c-0.045-0.045-14.078 1.4393-31.184 3.2985-28.632 3.112-31.15 3.3485-31.714 2.9792-0.94587-0.61976-1.049-1.5422-0.29878-2.6732 0.35264-0.5316 8.6685-11.93 18.48-25.33 9.8112-13.4 17.786-24.5 17.723-24.666-0.06384-0.16637-4.5988-2.2704-10.078-4.6756-5.4788-2.4052-10.224-4.5382-10.546-4.74-0.76602-0.4811-0.76602-1.5259 0-2.0103 0.32126-0.20314 5.067-2.3378 10.546-4.7438 5.4791-2.4059 10.015-4.5109 10.079-4.6776 0.06448-0.16675-7.9909-11.382-17.901-24.922-9.9099-13.54-18.226-24.939-18.48-25.331-0.5696-0.87754-0.37645-1.8504 0.47859-2.4107 0.56301-0.3689 1.2343-0.33645 7.8489 0.37939 21.925 2.3728 50.875 5.5157 52.778 5.7298 1.2051 0.13557 2.2266 0.21101 2.2699 0.16766 0.0433-0.04336-0.4459-4.8596-1.0872-10.703-0.64133-5.8431-1.1663-11.055-1.1666-11.583-7.8e-4 -1.2022 0.80465-1.9075 1.6622-1.4558 0.29919 0.15761 4.455 3.1489 9.2351 6.6474 4.7801 3.4985 8.8758 6.4091 9.1015 6.4681 0.25763 0.06737 0.53549-0.16485 0.74649-0.62391 0.18486-0.40218 5.8234-13.173 12.53-28.379 6.7067-15.206 12.379-27.852 12.604-28.102 0.60483-0.66992 2.0435-0.59561 2.5131 0.1298 0.20797 0.32126 5.9569 13.242 12.775 28.713 6.8185 15.471 12.545 28.186 12.725 28.255 0.18003 0.06908 4.4065-2.8612 9.3922-6.5118 4.9857-3.6506 9.2365-6.7033 9.4462-6.7837 0.2097-0.08047 0.64585 0.06792 0.96921 0.32976l0.58792 0.47607-1.2403 11.474c-0.68217 6.3108-1.1822 11.532-1.1112 11.603 0.11403 0.11402 9.0064-0.83171 51.326-5.4587 5.9038-0.64549 10.958-1.1027 11.231-1.016 0.79098 0.25105 1.3532 1.5563 0.97556 2.2649-0.17049 0.31997-8.4313 11.677-18.357 25.239-9.9261 13.561-18.087 24.893-18.136 25.182-0.078 0.46044 1.0338 1.0155 9.0686 4.5279 5.0366 2.2017 9.7666 4.287 10.511 4.634 1.6428 0.76563 1.9792 1.475 1.0701 2.257-0.34551 0.29719-5.1548 2.5237-10.687 4.9477-8.8081 3.8593-10.048 4.472-9.9674 4.9271 0.0504 0.28587 8.2145 11.618 18.142 25.182 9.928 13.564 18.186 24.918 18.352 25.231 0.37271 0.70532-0.016 1.7008-0.83357 2.1348-0.43831 0.23265-7.0929-0.41787-31.558-3.085-17.052-1.8589-31.062-3.321-31.134-3.249-0.10514 0.10514 1.6784 17.64 2.221 21.836 0.11281 0.87234 0.0323 1.1786-0.43165 1.6426-0.31808 0.31808-0.74306 0.50403-0.96089 0.42044-0.21482-0.0824-4.458-3.1288-9.4293-6.7698-4.9713-3.641-9.1965-6.6163-9.3894-6.6118-0.21376 5e-3 -5.2181 11.08-12.812 28.353-6.8536 15.59-12.666 28.553-12.915 28.808-0.58021 0.59169-1.8118 0.59643-2.3397 9e-3zm30.975-75.234c5.5696-0.77682 10.894-2.4996 16.054-5.1946 1.6569-0.86538 3.045-1.7422 3.0847-1.9486 0.0473-0.24531-0.40188-0.54181-1.2975-0.85658-2.137-0.75105-6.7442-3.1147-8.962-4.5977-13.984-9.3511-21.601-25.94-19.422-42.302 2.0629-15.493 12.166-28.838 26.453-34.942 1.4513-0.62004 2.7934-1.1296 2.9823-1.1324 0.18895-3e-3 0.30471-0.20954 0.25726-0.45941-0.13437-0.70747-6.3537-3.7753-10.336-5.0985-5.4492-1.8106-8.3027-2.2872-14.548-2.4299-9.1908-0.21004-15.439 1.0988-23.224 4.8648-17.133 8.2878-27.908 25.579-27.908 44.785 0 11.943 3.9989 22.928 11.719 32.191 7.4927 8.9902 18.845 15.336 30.596 17.102 3.4022 0.51132 10.951 0.52111 14.552 0.0189zm-73.547-38.043c1.8053-0.61794 4.023-2.1151 5.1249-3.4599 0.49035-0.5984 1.2756-1.8991 1.7451-2.8905 0.81745-1.7262 0.85356-1.9343 0.85356-4.9178 0-3.0621-0.0166-3.1499-0.96957-5.1458-4.5242-9.475-18.318-8.9008-21.959 0.91405-3.077 8.2943 3.482 16.894 12.284 16.106 0.8567-0.0767 2.1708-0.34931 2.9202-0.60584z"/>
</svg>
