<?xml version="1.0" encoding="UTF-8"?>
<svg width="300" height="300" version="1.1" viewBox="0 0 300 300" xmlns="http://www.w3.org/2000/svg">
 <path fill="#d3b58f" d="m146.61 274.63c-8.6238-1.0442-19.622-4.2986-26.769-7.9211-22.769-11.54-43.545-39.217-50.852-67.745-1.7824-6.9585-2.5544-12.218-2.7598-18.803-0.45087-14.454 3.2594-26.768 11.004-36.522 5.6063-7.0604 12.9-10.476 19.864-9.3014 2.2475 0.37896 2.6976 0.54578 2.2615 0.83808-0.13503 0.0905-3.1837 2.595-6.7748 5.5655l-6.5293 5.401-0.19568 1.8129c-0.37231 3.4492-0.21662 16.386 0.2424 20.143 3.4718 28.415 16.923 51.722 39.836 69.024 7.1313 5.3851 13.589 8.9187 20.406 11.166 7.5258 2.4811 15.138 2.7655 21.865 0.81711 4.3426-1.2577 10.157-4.7758 10.553-6.3855 0.0961-0.39026 0.83919-3.3022 1.6513-6.471l1.4766-5.7614 0.41418 0.80732c2.0454 3.9868 2.9283 11.619 1.9818 17.13-1.0474 6.099-3.8072 12.5-7.2173 16.738-4.2356 5.2651-10.748 8.6274-18.557 9.5806-2.8195 0.34416-8.5739 0.28917-11.901-0.11372zm29.444-62.554c-6.047-0.5363-13.302-3.0689-19.879-6.9396-9.054-5.3286-19.219-16.204-26.5-28.35-13.925-23.232-16.245-47.298-6.5281-67.731 1.7339-3.6461 3.0907-5.7384 5.1073-7.8761 3.9175-4.1527 9.1764-6.197 15.068-5.8573 4.3987 0.25364 4.4114 0.02994-0.22031 3.8666l-4.0139 3.3249-0.62739 2.5768c-1.3732 5.6399-1.8272 9.7605-1.8272 16.583 0 8.9058 1.0816 15.465 3.9094 23.709 4.0103 11.691 12.006 23.366 22.136 32.326 8.1374 7.1966 14.91 10.494 21.553 10.494 2.5312 0 4.4192-0.41764 6.4457-1.4258 2.6645-1.3256 2.4987-1.0135 4.3018-8.0927 0.88614-3.479 1.6738-6.3261 1.7505-6.3269 0.2804-3e-3 1.8925 5.3213 2.4602 8.1248 1.9358 9.5607 0.84106 17.619-3.2042 23.585-2.1914 3.232-6.1093 5.9838-10.21 7.1711-1.8024 0.52186-6.1214 1.1516-7.2448 1.0563-0.21386-0.0182-1.3288-0.11635-2.4777-0.21824zm22.727-69.779c-6.3983-0.93723-15.37-6.6236-20.865-13.225-3.229-3.879-6.6035-9.3576-8.8868-14.428-8.845-19.641-7.6493-37.091 3.242-47.311 3.2949-3.092 7.2518-4.6656 11.162-4.4393 3.0492 0.17651 3.0444 0.23753-0.22523 2.9059-1.576 1.2862-3.016 2.5682-3.1999 2.849-1.2304 1.8778-2.7811 8.1452-3.1738 12.827-1.0386 12.383 4.0963 25.431 13.844 35.179 3.549 3.549 7.3558 5.9484 10.87 6.8516 2.4279 0.62391 6.6912 0.41383 7.5591-0.37247 0.11967-0.10841 0.82178-2.5685 1.5602-5.4668l1.3427-5.2697 0.48421 0.9466c0.61354 1.1994 1.8441 5.2035 2.2169 7.2133 0.15683 0.84556 0.27997 2.8678 0.27365 4.4939-0.0225 5.7983-2.0501 10.855-5.7122 14.245-2.8482 2.6369-6.2782 3.6178-10.492 3.0005zm14.367-49.388c-3.2989-0.96497-6.4846-3.0442-9.3265-6.0873-5.4404-5.8255-8.0784-13.041-8.0738-22.083 3e-3 -5.7353 0.77005-10.422 2.0095-12.276 0.5656-0.84629 4.5456-4.0087 17.958-14.269 14.702-11.247 17.297-13.146 17.68-12.941 0.2469 0.13214 0.44891 0.39145 0.44891 0.57624 0 0.32284-12.186 59.599-12.919 62.843-0.46106 2.0398-1.3504 3.2632-2.9525 4.0616-1.4753 0.73516-2.7494 0.78124-4.8239 0.17444z"/>
</svg>
