<?xml version="1.0" encoding="UTF-8"?>
<svg width="300" height="300" version="1.1" viewBox="0 0 300 300" xmlns="http://www.w3.org/2000/svg">
 <path fill="#c0c8e7" d="m188.63 266.73c-3.1615-1.6737-5.4269-3.9762-7.1349-7.2516-1.3001-2.4932-1.8442-4.6421-1.991-7.8633-0.17639-3.8703 0.55113-23.95 0.94101-25.972 1.1797-6.119 5.1152-11.326 10.745-14.216 0.93272-0.47883 1.6963-0.95342 1.6968-1.0546s-0.61489-3.3031-1.3676-7.1152-1.3686-6.9793-1.3686-7.0381c0-0.0588-0.42757-0.17922-0.95016-0.26751-4.9361-0.83395-10.108-4.4179-13.044-9.0398-2.1162-3.3311-2.9891-6.4319-2.9758-10.571 9e-3 -2.8743 0.0809-3.3013 2.334-13.914 2.6475-12.471 2.8982-13.414 4.2785-16.094 0.55273-1.0732 1.005-2.0508 1.005-2.1726 0-0.12176-1.2046-0.93739-2.6769-1.8125-13.816-8.2121-26.154-18.931-32.154-27.937-2.7866-4.1819-4.5245-8.4762-4.782-11.816-0.27884-3.6158-0.2066-3.7817 7.419-17.033 7.3961-12.853 7.8197-13.452 10.734-15.175 1.8324-1.084 4.8965-2.1305 7.7834-2.6582 3.0008-0.54856 10.837-0.54289 14.932 0.01081 21.919 2.9636 48.862 14.642 69.115 29.959 4.8308 3.6533 8.2563 6.6428 11.863 10.353 4.8706 5.0102 7.6637 8.788 9.8255 13.29 2.0621 4.2942 2.6799 8.4277 1.7203 11.511-0.25867 0.83111-3.0745 5.9864-7.1282 13.05-7.5134 13.093-7.8375 13.538-11.077 15.213-4.0894 2.1155-7.1092 2.68-14.328 2.6788-7.2212-1e-3 -12.285-0.70393-20.598-2.8582-1.9197-0.49749-3.7187-0.90453-3.9979-0.90453-0.48501 0-0.5972 0.42922-2.5189 9.6373-1.1062 5.3005-2.2156 10.458-2.4653 11.462-1.3643 5.4824-5.1557 10.293-10.167 12.9-0.91537 0.47623-1.4256 0.88325-1.4256 1.1372 0 0.5827 2.6769 14.079 2.8471 14.355 0.0798 0.12918 0.32642 0.23488 0.54795 0.23488 0.60511 0 3.3944 0.98996 4.8166 1.7095 5.228 2.6449 9.1612 7.3324 10.635 12.674 0.31847 1.1545 0.38617 2.0807 0.31583 4.3208-0.16982 5.4084-0.0922 9.9275 0.1997 11.633 0.16104 0.94092 0.70645 3.3531 1.212 5.3604 1.3505 5.3619 1.3549 5.384 1.2084 6.0509-0.32154 1.464-2.6986 2.5608-5.5872 2.578-1.6155 0.01-3.2081-0.55224-3.957-1.396-0.23179-0.26116-0.86321-1.7423-1.4032-3.2914-2.0981-6.0193-2.9008-11.866-2.4572-17.896 0.34133-4.6392 0.0143-6.267-1.6583-8.2547-0.92044-1.0939-1.3373-0.96142-1.1604 0.36872 0.44042 3.3109 0.4397 3.3493-0.0851 4.5692-1.0343 2.4044-3.6064 3.8008-5.9604 3.2361-1.3954-0.33476-2.8778-1.4236-3.5363-2.5976-0.27045-0.48215-0.76962-2.2895-1.1153-4.0382-0.39514-1.9989-0.72839-3.1654-0.9043-3.1654-0.41457 0-2.5075 2.2953-3.0312 3.3242-0.25072 0.49262-0.56967 1.3063-0.70878 1.8081-0.29045 1.0478-1.0198 20.518-0.89763 23.964 0.0721 2.0342 0.16484 2.4639 0.81852 3.7917 1.0118 2.0553 3.4946 4.4112 5.6177 5.3307l1.5534 0.67273-0.12063 1.0265c-0.25978 2.2106-1.6724 4.3865-3.4404 5.2992-0.66134 0.3414-1.4667 0.50485-2.7588 0.55996-1.6963 0.0723-1.9239 0.0254-3.2311-0.66667zm-1.5434-86.084c-0.68278-3.3016-0.33736-5.1078 1.2681-6.631 2.1075-1.9995 5.4337-1.915 7.4296 0.18869 0.99899 1.0529 1.2742 1.8337 2.0295 5.7577 0.44039 2.2878 0.76058 3.4331 0.98374 3.5187 0.44086 0.16917 1.9025-1.4951 2.6338-2.999 0.46495-0.95608 3.2889-13.628 5.2692-23.644 0.10197-0.51571-5e-3 -0.6132-1.0904-0.99627-1.816-0.64075-8.5661-3.5531-12.004-5.1789l-3.0447-1.4401-0.44193 0.55786c-1.2627 1.5939-1.5973 2.7615-3.877 13.529-2.5807 12.19-2.7725 13.686-2.0332 15.865 0.55408 1.6326 1.5129 3.1529 2.4612 3.9023l0.62823 0.49647 0.0727-0.59829c0.04-0.32905-0.0883-1.3768-0.28513-2.3284zm72.56-41.459c5.9673-1.0914 11.391-4.1613 12.06-6.8263 0.20951-0.8347-0.0921-0.79708-2.1684 0.27046-1.8171 0.93432-4.4646 1.857-6.7372 2.3481-1.8377 0.39709-8.3658 0.38995-10.835-0.0119l-1.9389-0.31552-2.6232-2.544c-8.0166-7.7745-19.979-15.973-32.619-22.354-15.892-8.0236-30.526-13.165-43.225-15.185-2.9024-0.46179-2.9813-0.48982-3.7173-1.32-1.2661-1.4281-3.4485-4.8401-4.5325-7.0861-1.7873-3.7033-3.2526-8.6082-3.2644-10.927-4e-3 -0.83906-0.071-0.96943-0.49646-0.96943-0.27586 0-0.8684 0.39619-1.3505 0.90295-1.0976 1.1538-1.4668 2.7477-1.2705 5.4839 0.71756 9.9991 10.99 22.096 28.774 33.882 8.8893 5.8916 16.453 9.7716 30.274 15.529 12.301 5.1242 22.909 8.2964 30.743 9.1929 1.1918 0.13641 2.5262 0.28961 2.9653 0.34046 1.6273 0.18846 8.1587-0.0806 9.9617-0.41035zm-103.05 90.329c-2.6758-0.95618-4.3801-3.2469-4.876-6.5536-0.15243-1.0165-0.13445-1.0551 1.0623-2.283 2.3027-2.3625 3.262-5.4952 2.6162-8.5435-0.45636-2.1542-10.145-21.84-11.499-23.363-1.2938-1.4562-3.0824-2.459-5.1304-2.8767-1.8236-0.37189-3.7346-0.21793-3.4102 0.27474 0.0903 0.13712 1.1906 0.84797 2.4452 1.5797 3.1814 1.8555 3.6692 2.2665 4.3556 3.6694 1.9196 3.9236-1.7871 8.5417-5.9552 7.4193-0.50078-0.13485-2.4905-1.1719-4.4216-2.3045-1.9311-1.1326-3.6118-2.0594-3.7348-2.0594-0.13654 0-0.18318 0.73325-0.11969 1.8818 0.0853 1.5434 0.23639 2.1417 0.83999 3.3268 2.0321 3.9897 3.672 12.057 3.6703 18.058-4.6e-4 1.7699-0.0667 2.0582-0.75946 3.3075-0.89305 1.6105-2.2095 2.7007-3.8491 3.1876-1.4575 0.43284-2.2546 0.43896-3.2456 0.0249-1.2582-0.52569-1.4244-1.022-1.5732-4.6951-0.23652-5.8389-1.1543-9.7152-3.4564-14.599-1.8849-3.9983-2.1831-5.0526-2.3231-8.2117-0.10886-2.4576 0.19356-4.848 0.96681-7.6422 0.10887-0.39342-0.59079-0.87746-5.028-3.4786-2.835-1.6618-5.2881-3.0216-5.4514-3.0216-0.16332 0-1.123 0.55293-2.1327 1.2287-3.5695 2.3892-7.5259 3.4749-11.907 3.2675-3.0811-0.14588-5.2341-0.69073-7.8829-1.9949-3.3864-1.6674-6.6449-4.6501-8.3394-7.6336-1.3122-2.3103-10.843-21.703-11.154-22.696-0.17697-0.56455-0.34157-1.0568-0.36578-1.0938-0.02421-0.0371-1.087 0.24246-2.3617 0.62116-6.1789 1.8356-10.975 1.8397-14.645 0.0125-1.2634-0.62908-2.7546-2.0194-11.334-10.568-10.728-10.689-10.961-10.97-11.941-14.405-0.77422-2.7136-0.72199-7.5411 0.12564-11.613 3.4602-16.621 17.112-38.332 35.946-57.166 19.698-19.698 39.89-30.467 51.329-27.374 2.735 0.7395 3.2548 1.1801 13.717 11.626 9.4597 9.4448 9.9937 10.022 10.771 11.648 2.1214 4.4393 2.0096 10.731-0.33255 18.704-3.0339 10.329-10.376 23.502-19.979 35.845-5.1212 6.583-12.278 14.565-16.98 18.937-1.3638 1.2682-2.4796 2.4201-2.4796 2.5597 5e-6 0.13964 0.36539 0.54543 0.81197 0.90175 0.44658 0.35633 1.4383 1.4341 2.2039 2.3951 1.1425 1.4341 2.3835 3.7502 6.9252 12.924 3.0433 6.1474 5.7506 11.893 6.0162 12.768 0.2656 0.87504 0.59561 2.5687 0.73337 3.7637 0.25326 2.1969 0.24609 2.2818-0.64797 7.6685-0.11703 0.70515-0.11344 0.70781 5.0044 3.7067 2.8169 1.6506 5.1868 3.001 5.2665 3.001 0.0797 0 0.77296-0.46232 1.5405-1.0274 3.1156-2.2936 5.8548-3.1616 10.011-3.1722 3.4841-9e-3 5.9093 0.53485 9.0765 2.0352 3.9378 1.8654 7.3309 4.7972 9.7155 8.395 1.2822 1.9344 9.879 19.157 10.667 21.37 1.8123 5.0899 1.473 10.733-0.9346 15.543-0.50884 1.0166-1.2356 2.2722-1.6149 2.7901-1.1201 1.5292-3.2447 3.6029-4.0347 3.9379-0.87437 0.3708-0.86817 0.37081-1.916-4e-3zm-60.148-53.403c0.02286-0.12546-0.99808-0.84398-2.2688-1.5967-2.6889-1.5929-3.6029-2.3897-4.1862-3.6496-1.7575-3.796 2.0497-8.3082 6.0967-7.2258 0.52368 0.14007 2.3595 1.079 4.0796 2.0865 1.7201 1.0075 3.2702 1.8318 3.4446 1.8318 0.38575 0 0.40484-0.69986 0.0635-2.3268-0.33571-1.6-10.34-21.891-11.37-23.063-0.88886-1.0104-2.5561-2.2106-3.0708-2.2106-0.19594 0-1.5118 0.85922-2.9242 1.9094-2.7452 2.0412-8.8353 6.1017-9.8338 6.5567-0.74238 0.33825-0.76916 0.86553-0.13901 2.7361 0.70991 2.1073 10.369 21.269 11.196 22.211 1.8183 2.071 4.1596 3.0806 6.9882 3.0136 1.0396-0.0246 1.9018-0.14678 1.9248-0.2727zm-55.291-41.408c10.303-1.2919 23.5-9.1654 38.001-22.671 4.5463-4.2344 8.8933-9.0892 15.435-17.238 13.583-16.921 20.661-29.317 23.057-40.384 0.72309-3.3403 0.73268-9.5045 0.0189-12.115-0.58625-2.144-1.3995-3.7873-2.3394-4.7272-0.85635-0.85635-1.4677-0.9499-1.2996-0.19886 0.0632 0.28228 0.29675 1.2831 0.51902 2.224 0.4826 2.0429 0.54939 6.8862 0.12537 9.0914-0.45263 2.354-1.3499 5.2297-2.4301 7.7881l-1.0112 2.3951-1.6548 0.8498c-6.8668 3.5264-19.666 13.929-28.068 22.812-13.075 13.823-24.071 29.5-29.585 42.178l-0.9564 2.1989-1.4041 0.59303c-5.4221 2.2901-12.022 3.44-16.734 2.9156-1.2289-0.13676-2.4652-0.31565-2.7475-0.39754-0.45042-0.13067-0.51323-0.066-0.51323 0.52829 0 1.4622 1.612 2.9802 3.8581 3.6332 2.5558 0.743 4.7846 0.89448 7.7287 0.52531z"/>
</svg>
