<?xml version="1.0" encoding="UTF-8"?>
<svg width="300" height="300" version="1.1" viewBox="0 0 300 300" xmlns="http://www.w3.org/2000/svg">
 <path fill="#fe4a1d" d="m116.62 274.65c-9.691-1.2305-19.917-4.8851-28.949-10.346-10.683-6.4593-18.509-15.857-22.738-27.305-5.7221-15.49-5.1818-35.291 1.4902-54.607 3.0403-8.8024 7.7318-17.498 11.772-21.818 1.3324-1.425 1.5427-1.5691 1.8433-1.2635 0.29913 0.30411 0.2974 0.56296-0.0146 2.1849-0.19466 1.012-0.36482 3.0819-0.37814 4.5998-0.02777 3.1666 0.2935 4.0583 1.6199 4.4961 2.1487 0.70914 4.1939-1.0103 6.4422-5.4161 0.77462-1.5179 2.2046-4.6228 3.1778-6.8997 4.4758-10.472 8.1861-16.977 11.983-21.011 2.4695-2.6233 3.2404-3.2078 3.6475-2.7653 0.22798 0.2479 0.23923 0.73592 0.0515 2.2353-0.8829 7.053 3.5068 12.799 7.7666 10.166 1.2117-0.74885 1.9173-1.9313 4.0548-6.7943 7.787-17.717 16.144-31.144 22.631-36.361 3.0357-2.4414 3.1585-2.2035 1.7918 3.4721-0.87986 3.6539-1.0556 4.7592-1.0727 6.7462-0.02 2.3295-8e-3 2.3873 0.62488 2.9324 0.50624 0.43619 0.90673 0.55601 1.8584 0.55601 2.1544 0 4.1513-1.3622 7.2488-4.9448 4.6046-5.3257 9.4435-12.6 20.655-31.049 10.219-16.816 14.245-23.041 18.817-29.094 4.0832-5.4057 8.5228-9.5968 9.5156-8.9832 0.23292 0.14395 0.14573 0.71496-0.41008 2.6856-1.9581 6.9426-1.9884 10.602-0.096 11.612 1.0074 0.53762 2.892 0.35102 4.5041-0.44594 2.9826-1.4745 6.2653-4.5592 13.258-12.458 10.183-11.503 15.346-16.467 20.054-19.282 0.75443-0.45119 0.86229-0.4639 1.1361-0.13396 0.25057 0.30192 0.2482 0.45026-0.0138 0.86336-1.1964 1.8865-3.8258 6.6257-5.5086 9.9284-4.9148 9.646-7.7462 18.12-6.9464 20.79 0.93817 3.1313 4.9394 3.0284 9.4204-0.24226 0.84626-0.61768 1.6939-1.094 1.8836-1.0584 0.56146 0.10519 0.56357 2.4292 4e-3 4.4686-2.0758 7.5663-6.6245 16.048-21.625 40.325-13.206 21.373-16.788 28.12-16.788 31.626 0 1.3237 0.71251 2.7539 1.6008 3.2132 0.85617 0.44275 2.6594 0.44915 3.8933 0.0138 1.3523-0.47712 3.7715-2.0932 5.8593-3.914 1.5473-1.3494 1.8364-1.5182 2.1182-1.2364 0.28181 0.28181 0.2625 0.56076-0.14148 2.0438-1.9147 7.0292-5.5856 15.564-9.9876 23.222-2.8113 4.8904-4.9326 8.23-11.782 18.549-8.4552 12.738-9.5176 14.73-9.5505 17.906-0.0311 3.0022 1.2047 4.3955 3.8457 4.3355 2.1396-0.0486 4.5815-1.2815 7.2735-3.6724 1.132-1.0053 1.6556-1.2171 1.9264-0.77894 0.23877 0.38635-0.55282 4.0576-1.4908 6.9142-2.1337 6.4978-5.1358 11.585-14.1 23.893-5.6468 7.7534-7.248 10.894-7.0112 13.75 0.0878 1.0585 0.22352 1.3886 0.76116 1.851 0.56808 0.48864 0.80555 0.54492 1.8015 0.42696 1.3852-0.16405 3.7819-1.2745 7.0497-3.2661 2.542-1.5493 3.2147-1.7706 3.2147-1.0575 0 1.3838-2.3954 6.3388-4.7726 9.8723-2.379 3.5361-4.7337 6.3479-8.3327 9.9502-5.8442 5.8495-12.103 10.382-19.323 13.992-6.7008 3.3507-12.379 5.1868-19.689 6.3668-3.216 0.51911-12.499 0.6466-15.875 0.21801zm16.953-19.161c6.5676-1.7489 11.885-5.83 17.586-13.498 6.6546-8.9496 10.052-15.869 11.294-22.999 0.27157-1.5594 0.33113-3.0059 0.24149-5.8648-0.14076-4.4891-0.43041-5.8204-2.4849-11.422-0.78124-2.1299-1.9311-5.2698-2.5553-6.9775-2.0745-5.6755-4.4847-10.267-7.0542-13.438-3.3151-4.0914-8.8735-6.9684-16.241-8.4061-5.2158-1.0178-15.687-0.82839-19.859 0.35934-4.3047 1.2256-11.468 5.2894-16.595 9.4149-6.5271 5.2519-12.632 12.1-14.962 16.785-1.1526 2.317-1.5019 3.9924-1.9418 9.3146-0.531 6.4239-0.77434 8.581-1.3231 11.73-1.1823 6.783-0.25264 11.435 3.3744 16.886 3.9774 5.9777 12.033 12.123 18.849 14.378 3.1784 1.0518 5.5119 1.5364 11.183 2.3225 2.8461 0.3945 5.8475 0.87554 6.6697 1.069 3.4765 0.81796 4.9646 0.97399 8.5097 0.8922 2.6359-0.0608 4.0191-0.2032 5.308-0.54643z"/>
</svg>
