<?xml version="1.0" encoding="UTF-8"?>
<svg width="300" height="300" version="1.1" viewBox="0 0 300 300" xmlns="http://www.w3.org/2000/svg">
 <path fill="#7ed4ea" d="m149.57 274.73c-1.1835-0.69158-2.2558-5.2701-3.1352-13.387-0.58762-5.4239-1.4868-17.276-1.775-23.396-0.13894-2.9508-0.25804-3.7778-0.54401-3.7778-0.20136 0-1.6363 1.0904-3.1887 2.423-9.1944 7.8928-17.58 13.731-19.742 13.744-3.6918 0.023 4.264-11.281 19.367-27.517l3.0359-3.2637-0.44897-10.124c-0.6812-15.361-0.92474-22.069-1.1261-31.013-0.14254-6.3328-0.25826-8.1462-0.51598-8.0859-0.18273 0.0428-3.7729 3.3105-7.9782 7.2618-7.8213 7.3488-18.58 17.253-24.518 22.572l-3.3267 2.9796-0.17938 5.3714c-0.6372 19.08-2.5323 31.787-4.9322 33.071-0.71324 0.38172-1.1606 0.0574-1.8882-1.3687-1.4318-2.8065-3.0012-12.964-3.5768-23.15-0.09889-1.7497-0.26531-3.3428-0.36983-3.5401-0.21265-0.40147-0.19552-0.41486-5.5731 4.3556-13.81 12.251-23.102 19.62-25.91 20.546-0.81111 0.26769-0.9885 0.24006-1.4552-0.22661-0.46896-0.46897-0.49507-0.64174-0.22198-1.4692 0.92417-2.8003 6.4019-9.7714 18.63-23.709 3.6141-4.1194 6.5711-7.5829 6.5711-7.6967 0-0.1138-2.5351-0.41779-5.6336-0.67553-12.165-1.0119-20.966-2.6512-22.507-4.1923-2.5455-2.5455 9.8455-4.7696 32.24-5.7867 5.5306-0.25121 5.8511-0.29457 6.393-0.86492 0.31382-0.33025 3.5978-3.9409 7.2978-8.0236 7.3945-8.1594 11.078-12.143 19.449-21.033 3.0668-3.2567 5.6114-6.0737 5.6547-6.2601 0.0614-0.26412-1.3416-0.37909-6.3627-0.52141-9.4838-0.26882-25.202-0.89335-34.351-1.3649l-8.0267-0.41366-3.9033 3.6347c-10.978 10.222-19.615 17.141-23.97 19.201-1.8858 0.89215-2.6401 0.97929-3.2445 0.37482-0.54842-0.54842-0.35174-1.3312 0.96426-3.8379 1.7595-3.3515 6.0884-9.1043 11.924-15.846 1.6005-1.849 3.0209-3.5651 3.1565-3.8134 0.32268-0.591 0.22916-0.6031-8.7726-1.1343-21.059-1.2427-30.87-2.6164-31.857-4.4604-0.24682-0.46118-0.18215-0.64301 0.40974-1.1521 2.0509-1.7641 10.948-2.917 32.839-4.2554 4.8752-0.29808 7.622-0.56682 7.622-0.74572 0-0.15384-0.96874-1.4088-2.1528-2.7888-6.3013-7.3444-12.212-15.312-13.66-18.416-0.70278-1.5057-0.80155-2.6588-0.246-2.872 2.2813-0.87542 13.246 7.3494 27.826 20.873l2.8298 2.6248 3.5049-0.17322c12.115-0.59873 21.089-0.98051 29.221-1.2431 5.1034-0.16477 10.949-0.37887 12.99-0.47576l3.7116-0.17617-6.3627-6.7625c-9.0099-9.576-12.259-13.081-18.551-20.014-3.044-3.3537-6.2008-6.8233-7.0152-7.7104l-1.4806-1.6128-6.0946-0.17448c-10.637-0.30452-22.167-1.3952-27.089-2.5627-3.5244-0.83588-5.6057-2.0322-5.2316-3.0072 0.70728-1.8431 9.1631-3.5981 22.031-4.5723 3.3282-0.25198 6.1478-0.54207 6.2657-0.64465 0.11788-0.10258-1.6716-2.3225-3.9767-4.9331-16.377-18.548-22.256-26.322-21.028-27.802 1.4415-1.7369 7.6102 2.6851 24.751 17.742 3.4966 3.0715 6.7253 5.9078 7.175 6.3029 1.1673 1.0254 1.4804 0.9436 1.4806-0.38689 1.04e-4 -0.6197 0.23765-3.5933 0.52787-6.608 1.1355-11.795 2.4985-18.659 4.0288-20.288 0.54687-0.58211 0.59428-0.58849 1.0834-0.14583 0.80865 0.73182 1.2132 1.7142 1.9083 4.6335 1.1269 4.7332 1.9836 12.587 2.5239 23.137 0.1568 3.062 0.35158 6.6682 0.43284 8.0136l0.14775 2.4463 6.8023 6.169c8.1202 7.3642 15.356 14.059 23.075 21.348 3.1265 2.9527 5.8273 5.3685 6.0016 5.3685 0.23233 0 0.36498-1.7178 0.49645-6.429 0.26398-9.4596 0.64206-19.104 1.2323-31.433l0.52432-10.953-3.7801-4.0303c-9.7917-10.44-16.663-18.981-18.794-23.361-1.3666-2.8085-1.3085-3.8581 0.21331-3.8581 2.2691 0 10.487 5.749 19.348 13.534 1.585 1.3927 3.0829 2.6093 3.3287 2.7036 0.57113 0.21916 0.56807 0.24548 1.2719-10.936 1.394-22.145 2.6763-29.953 4.8675-29.641 2.065 0.2945 3.391 9.336 4.8429 33.021 0.35778 5.8365 0.55851 7.7545 0.81158 7.7545 0.18492 0 1.7999-1.2592 3.5888-2.7983 7.0207-6.0401 14.109-11.249 17.473-12.841 1.9243-0.91036 2.485-0.98084 2.8346-0.3563 1.1509 2.0565-6.6444 12.569-20.076 27.074l-3.2855 3.5481 0.56567 11.973c0.31113 6.5853 0.69451 16.029 0.85197 20.987 0.15745 4.9576 0.3673 10.684 0.46633 12.725l0.18005 3.7116 5.442-5.1697c7.6776-7.2934 15.526-14.591 22.925-21.315 3.4995-3.1804 6.6712-6.1078 7.0483-6.5054 0.68337-0.72038 0.68615-0.74207 0.8574-6.6659 0.19348-6.6926 0.76979-14.918 1.3915-19.862 0.99369-7.9002 2.2886-11.959 3.8746-12.144 0.62078-0.07251 0.78848 0.104 1.5113 1.5907 1.4045 2.8887 2.5326 9.7271 3.3938 20.573 0.25709 3.2378 0.56167 5.8869 0.67684 5.8869s2.2656-1.8211 4.7787-4.0468c17.009-15.064 24.876-21.06 27.322-20.823 0.73545 0.07128 0.8526 0.19048 0.92502 0.94118 0.22092 2.29-4.8228 9.0193-18.177 24.251-3.6817 4.1995-6.6941 7.7412-6.6941 7.8705s0.98422 0.31598 2.1872 0.41497c13.794 1.1352 23.111 2.7017 25.318 4.257 2.281 1.6071-1.9502 3.2569-11.478 4.4755-5.0519 0.64608-20.978 1.7443-25.332 1.7468-0.56345 2.6e-4 -1.8454 1.2692-7.0254 6.9539-8.0134 8.7941-12.351 13.462-20.432 21.991-3.5477 3.7441-6.4504 6.9192-6.4504 7.0559 0 0.14334 2.8322 0.32284 6.6941 0.42426 9.2288 0.24237 27.036 0.91742 35.325 1.3392l6.8916 0.35062 3.3152-3.0975c12.526-11.703 21.596-18.815 25.609-20.08 1.6235-0.51175 2.2313-0.25614 2.2269 0.9365-8e-3 2.2566-5.1838 9.6926-13.205 18.972-1.6304 1.8862-2.9643 3.5862-2.9643 3.7778 0 0.2171 0.32846 0.34835 0.87176 0.34835 3.3477 0 24.042 1.6076 29.218 2.2698 7.8964 1.0101 11.248 2.2315 10.321 3.7615-0.97526 1.6101-6.3581 2.6795-18.937 3.7622-7.2097 0.62058-18.091 1.3412-20.252 1.3412-0.81777 0-1.4869 0.11876-1.4869 0.26391 0 0.14514 1.8224 2.4417 4.0499 5.1034 8.4956 10.152 13.083 17.093 12.198 18.455-1.3723 2.1118-11.323-5.0172-26.587-19.048l-4.1092-3.7772-4.2418 0.1705c-2.333 0.0938-8.119 0.34305-12.858 0.55395-4.7389 0.2109-13.895 0.53013-20.347 0.7094-6.8326 0.18984-11.731 0.42902-11.731 0.57281 0 0.13577 1.712 2.0506 3.8043 4.2552 7.4877 7.8893 13.625 14.481 21.406 22.99l7.9029 8.6419 5.3811 0.1835c13.815 0.47109 25.266 1.7105 29.785 3.2236 5.4985 1.8412 3.4201 3.9205-5.4156 5.418-5.0499 0.85589-14.803 1.8561-18.127 1.859-1.0462 8e-4 -1.522 0.10529-1.5167 0.33272 4e-3 0.18227 1.3931 1.8823 3.0863 3.7778 12.63 14.14 20.301 23.793 21.58 27.158 0.47715 1.2558 0.4778 1.3242 0.0178 1.8923-0.46839 0.57843-0.50102 0.58134-1.7495 0.15594-3.2806-1.1178-11.689-7.7365-26.115-20.555-2.401-2.1336-4.5665-3.9606-4.8123-4.06-0.38965-0.15757-0.46965 0.0968-0.62521 1.9883-1.2776 15.535-2.8922 24.331-4.7489 25.872-0.34093 0.28294-0.51697 0.21949-1.0818-0.38995-2.0618-2.2247-3.7172-14.479-4.5311-33.542l-0.17639-4.1315-7.7244-7.0352c-9.2353-8.4113-15.412-14.162-22.626-21.065-2.9467-2.8197-5.4818-5.1267-5.6336-5.1267-0.16576 0-0.2768 0.76787-0.27793 1.9221-6e-3 5.8439-1.357 41.855-1.7135 45.665l-0.12403 1.3256 3.3323 3.579c11.23 12.061 18.504 21.327 19.849 25.285l0.52437 1.5427-0.59864 0.48474c-0.44219 0.35807-0.78789 0.43043-1.3229 0.27692-3.1187-0.89492-9.4651-5.4165-18.524-13.197-1.9158-1.6456-3.6158-2.992-3.7778-2.992s-0.29453 0.39229-0.29453 0.87175c0 0.47947-0.18106 3.6708-0.40235 7.0917-1.385 21.411-2.6078 30.325-4.4248 32.26-0.63407 0.67494-0.69622 0.69106-1.3011 0.33759z"/>
</svg>
