<?xml version="1.0" encoding="UTF-8"?>
<svg width="300" height="300" version="1.1" viewBox="0 0 300 300" xmlns="http://www.w3.org/2000/svg">
 <path fill="#9fa2a5" d="m139.96 273.62c-2.7368-0.77634-4.7295-1.4903-4.8612-1.7418-0.12282-0.23438-2.6815-8.5671-5.6858-18.517l-5.4626-18.091 11.559-22.905c8.921-17.677 11.666-22.885 12.028-22.818 0.25802 0.0479 4.2838 2.1162 8.9462 4.5961l8.4771 4.509 24.945-8.5425 18.681 6.6243c10.275 3.6434 18.681 6.7446 18.681 6.8916 0 0.14703-7.0952 11.27-15.767 24.717l-15.767 24.449-25.142 11.107c-13.828 6.1088-25.334 11.091-25.568 11.072-0.23438-0.0192-2.5132-0.62688-5.0641-1.3505zm30.067-17.277 20.354-9.0014 12.051-18.176c6.6283-9.9969 12.087-18.318 12.131-18.491 0.0524-0.20757-4.6976-1.0172-13.92-2.3727-7.7-1.1317-14.216-2.0554-14.481-2.0528-0.2645 3e-3 -5.1864 2.8412-10.938 6.3081-9.1107 5.492-10.717 6.5656-12.483 8.3411-1.5097 1.5182-2.3238 2.6454-3.1932 4.4211-1.1116 2.2702-13.388 37.208-13.388 38.101 0 0.23482 0.26496 0.76379 0.5888 1.1755 1.1889 1.5114 1.2357 1.4949 23.278-8.2528zm-60.724-46.262c-4.4125-1.9488-8.3903-3.5432-8.8397-3.5432-0.44935 0-4.0564 0.7692-8.0158 1.7093-6.859 1.6287-7.221 1.6856-7.6695 1.2074-0.25893-0.27608-7.5697-9.6637-16.246-20.861l-15.775-20.359 15.665-34.34c8.616-18.887 15.765-34.37 15.886-34.407 0.12158-0.03682 5.2461 5.152 11.388 11.531l11.167 11.598 0.18807 4.9583c0.10344 2.7271 0.19531 6.8759 0.20417 9.2197l0.0161 4.2614 16.325 17.966-0.197 12.716 7.5994 13.864-6.5314 14.02c-3.5922 7.7107-6.6687 14.016-6.8365 14.012-0.16781-4e-3 -3.9153-1.6024-8.3278-3.5511zm-4.82-17.502 4.392-4.5841 5.5037-0.51912c3.027-0.28551 5.6635-0.52379 5.8588-0.52952 0.19531-6e-3 0.35511-0.16725 0.35511-0.35896 0-0.1917-1.7946-3.0464-3.988-6.3437l-3.988-5.9952 1.9994-4.4562c1.0997-2.4509 1.9991-4.614 1.9988-4.8068-2.8e-4 -0.19287-2.0634-2.6518-4.5847-5.4643s-6.5576-7.316-8.9696-10.008l-4.3855-4.8941-1.6401-16.808-5.1665-5.3808c-2.8415-2.9595-5.3074-5.3774-5.4796-5.3731-0.17224 4e-3 -1.3302 2.1456-2.5732 4.7585-1.243 2.6129-3.6331 7.6272-5.3114 11.143-4.248 8.8988-4.1682 8.4127-3.3957 20.695 0.80706 12.832 0.8865 13.68 1.2817 13.68 0.1832 0 2.4374-2.2797 5.0092-5.066l4.6762-5.066 0.14828 23.49 4.4518 5.6081c2.4485 3.0845 5.3898 6.7906 6.5363 8.236s2.2632 2.6278 2.4817 2.6278c0.21848 0 2.3737-2.0628 4.7893-4.5841zm64.99-13.435c-0.31741-0.38245 2.4802-3.3222 20.632-21.68 11.55-11.681 23.999-24.288 27.664-28.015l6.6654-6.7777 11.431 12.96c6.2871 7.128 11.431 13.111 11.431 13.295 0 0.87272-8.6558 28.919-8.9251 28.919-0.16934-1.4e-4 -7.371-1.726-16.004-3.8352-8.6326-2.1092-16.099-3.835-16.592-3.835s-8.451 2.0396-17.685 4.5324c-20.324 5.4867-18.173 4.9741-18.619 4.4367zm35.068-15.692c9.1549-2.2692 15.949-4.0978 16.85-4.5349 2.3708-1.1508 4.2043-3.208 7.0949-7.9606 1.4398-2.3672 2.6178-4.373 2.6178-4.4572 0-0.4212-8.6506-10.851-9.0513-10.913-0.44347-0.0685-33.674 30.117-34.581 31.413-0.39595 0.56529-0.37399 0.57926 0.65983 0.41991 0.58817-0.0907 7.9728-1.8759 16.41-3.9673zm-59.843-8.7136-16.861-11.176-2.1621-28.199-9.2783-16.354 0.80442-22.443c0.44243-12.344 0.81119-22.92 0.81947-23.502 0.0146-1.0286 0.43291-1.4446 14.669-14.587 10.116-9.338 14.801-13.486 15.128-13.392 0.90956 0.26137 41.385 17.309 41.622 17.531 0.21438 0.20027 7.2779 64.412 7.2858 66.232 2e-3 0.49394-5.8007 10.253-17.056 28.685-9.3828 15.365-17.213 28.034-17.401 28.153-0.18746 0.11916-0.4238 0.21862-0.52521 0.22101-0.10141 2e-3 -7.7718-5.0246-17.045-11.171zm32.098-22.953 13.946-23.191-3.5407-23.761c-1.9474-13.069-3.5407-23.895-3.5407-24.06s-0.1598-0.25714-0.35512-0.20662c-0.19531 0.05052-6.2997 6.1442-13.565 13.541l-13.21 13.45 0.0759 1.4652c0.0418 0.80585 0.52772 9.438 1.0799 19.183 0.55217 9.7446 0.95314 17.768 0.89104 17.83s-5.7895-3.8756-12.728-8.7503c-12.507-8.7875-13.887-9.7107-14.14-9.4577-0.072 0.072 0.56136 2.3279 1.4075 5.0131l1.5384 4.8822 11.364 11.063c6.25 6.0848 11.774 11.638 12.275 12.339 1.2422 1.7388 1.6361 3.075 2.6567 9.0117 0.48259 2.8072 0.94695 5.2165 1.0319 5.354 0.085 0.13748 0.31483 0.0779 0.51081-0.1324 0.19597-0.21031 6.6321-10.819 14.303-23.574z"/>
</svg>
