<?xml version="1.0" encoding="UTF-8"?>
<svg width="300" height="300" version="1.1" viewBox="0 0 300 300" xmlns="http://www.w3.org/2000/svg">
 <path fill="#dfb687" d="m144.44 269.9c-9.1213-0.47116-17.496-1.5714-23.862-3.1352-12.039-2.9571-29.271-9.7788-48.725-19.29l-6.9285-3.3872 1.6678-5.2488c0.91731-2.8868 1.722-5.659 1.7881-6.1603l0.1203-0.91146-18.107-14.062c-9.959-7.7344-18.283-14.194-18.497-14.355-0.32754-0.2458 0.69199-1.8484 6.3784-10.026 3.7225-5.3534 6.7715-9.9414 6.7755-10.196 4e-3 -0.25421-4.5111-9.6878-10.034-20.964-6.1378-12.532-9.9592-20.62-9.8307-20.806 0.11556-0.16755 6.3985-5.9508 13.962-12.852 12.653-11.544 13.741-12.602 13.609-13.237-0.57633-2.789-4.8019-32.467-4.6444-32.619 0.10987-0.10628 9.6333-3.5493 21.163-7.6511 11.53-4.1018 21.054-7.5464 21.164-7.6545 0.11004-0.10816 1.9521-6.4448 4.0934-14.081 2.1413-7.6366 3.9263-13.912 3.9666-13.945 0.06176-0.05056 54.241 6.0388 57.778 6.4939l1.1947 0.1537 2.1837-8.0763c1.201-4.442 2.2668-8.0763 2.3684-8.0763 0.10161 0 15.085 8.0927 33.296 17.984 18.211 9.8911 33.307 17.947 33.546 17.902 0.28396-0.05358 0.99703-1.3918 2.0548-3.8562 0.89097-2.0758 1.6616-3.8889 1.7126-4.0291 0.18018-0.49589 1.6634 0.79359 6.5616 5.7047 20.018 20.07 31.71 44.247 35.212 72.805 0.65792 5.366 0.65834 21.073 7.8e-4 26.693-1.6209 13.851-5.2292 27.967-10.418 40.755-11.78 29.03-32.989 48.878-63.074 59.025-16.591 5.596-36.695 8.1241-56.476 7.1023zm23.966-11.833c5.6464-0.81852 9.8739-1.6623 15.843-3.1622 4.6142-1.1594 13.258-3.8874 14.652-4.6242 0.6377-0.33707 1.1475-1.5811 4.8504-11.836l4.1378-11.459 17.281-8.3971c9.5048-4.6184 17.281-8.5053 17.281-8.6376s-1.6101-4.101-3.5779-8.8193c-2.819-6.7592-3.689-8.6035-4.1016-8.6958-0.28801-0.0644-10.367-1.4705-22.399-3.1247-12.031-1.6542-22.25-3.0736-22.709-3.1541l-0.83396-0.14652 1.7915-2.3181c5.2937-6.8496 7.817-14.238 7.817-22.889 0-5.1177-0.88936-9.8018-2.6948-14.193-0.35334-0.85937-0.60925-1.5963-0.56868-1.6376 0.0406-0.0413 6.0946 0.69123 13.454 1.6278 36.726 4.6744 44.155 5.6065 44.695 5.6076 0.32227 5.2e-4 0.58594-0.11336 0.58594-0.25332 0-0.13995-2.9297-5.484-6.5104-11.876-3.5807-6.3917-6.5104-11.71-6.5104-11.818 0-0.10818 3.0456-5.9262 6.768-12.929 3.7224-7.0028 6.7693-13.023 6.7708-13.379 2e-3 -0.49735-1.2167-1.8551-5.2706-5.8713-11.02-10.918-23.01-19.585-37.305-26.968-6.4604-3.3365-17.419-8.0503-18.715-8.0503-0.2536 0-0.46416 0.52632-0.65965 1.6489-0.47172 2.7088-0.43646 2.8283 1.0395 3.5208 2.9835 1.4 3.7068 4.9504 1.5167 7.4448-0.614 0.6993-2.0619 1.478-4.8406 2.6033-0.044 0.01784-2.1694 12.286-2.1694 12.522 0 0.06859 0.14649 0.12536 0.32552 0.12616 0.90529 4e-3 2.395 0.6374 3.236 1.3759 1.1152 0.97913 1.6468 2.1236 1.6468 3.5453 0 2.3999-1.1729 3.7201-4.6079 5.1868l-2.555 1.091-1.1124 6.5743c-0.61184 3.6159-1.1096 6.6472-1.1061 6.7363 3e-3 0.0891 0.47657 0.23722 1.0513 0.32912 1.2321 0.19702 3.0216 1.6837 3.5522 2.951 0.44796 1.07 0.44744 2.4644-1e-3 3.5324-0.57642 1.3717-1.8943 2.4162-4.3143 3.4192l-2.2827 0.94618-0.34343 2.2076c-0.18891 1.2142-0.38597 2.2076-0.43794 2.2076-0.052 0-1.5272-0.69923-3.2784-1.5538-5.4258-2.648-10.2-3.7316-16.465-3.737-3.7801-3e-3 -8.391 0.61439-10.46 1.4012-0.37381 0.14212-0.72386 0.21419-0.7779 0.16015-0.054-0.054 0.38253-2.8645 0.97015-6.2454l1.0684-6.1472-0.97746-0.85821c-1.3358-1.1728-2.0317-2.8033-1.8145-4.2515 0.24503-1.634 1.4671-3.1708 3.0934-3.89l1.3529-0.59833 1.1346-6.7016c0.93939-5.5488 1.0732-6.7405 0.77783-6.9276-0.19621-0.12429-0.43564-0.22778-0.53207-0.22998-0.43107-0.0098-1.8471-1.4626-2.31-2.3701-0.63714-1.2489-0.64104-2.6574-0.0112-4.0443 0.55871-1.2303 1.6886-2.1535 3.502-2.8612 0.69619-0.2717 1.3655-0.72838 1.4874-1.0148 0.1768-0.41553 3.8874-21.517 3.8874-22.106 0-0.29115-4.141-0.16434-7.8888 0.24158-20.738 2.2461-42.186 12.048-59.299 27.099-4.0807 3.5891-10.095 9.7877-12.862 13.255-5.985 7.5015-11.172 17.049-14.227 26.19-1.2117 3.6248-1.2833 4.345-0.4498 4.5283 0.50324 0.11069 20.501 2.732 56.25 7.3733 5.1204 0.66478 9.3099 1.2942 9.3099 1.3988 0 0.10452-0.68026 1.1398-1.5117 2.3005-2.8934 4.0395-5.049 9.144-6.0773 14.391-0.80192 4.092-0.79409 10.109 0.0182 14.001 0.71242 3.4128 1.8054 6.7155 3.0214 9.1302l0.93595 1.8586-0.99274-0.16044c-0.546-0.0882-10.133-1.2086-21.305-2.4896-11.172-1.281-25.469-2.9204-31.771-3.643-6.3021-0.72261-11.917-1.3851-12.477-1.4722l-1.0182-0.15839 0.17173 3.3502c0.38378 7.487 2.4532 16.731 5.5595 24.835 7.5348 19.656 21.074 35.448 40.185 46.871 4.4493 2.6594 15.038 7.8169 16.049 7.8169 0.24554 0 0.35882-0.34563 0.36276-1.1068 0.012-2.315 1.3356-3.9935 3.9744-5.0398 0.78467-0.31115 1.2912-0.68679 1.3686-1.0148 0.0675-0.28646 0.64722-3.5643 1.2882-7.2841 0.98412-5.7111 1.1076-6.7957 0.7936-6.9714-1.6558-0.92664-2.992-2.9338-2.992-4.4945 0-1.9221 1.5226-3.822 3.8734-4.8333l1.2341-0.53088 1.0938-6.4325c0.60161-3.5379 1.0905-6.5077 1.0864-6.5996-4e-3 -0.0919-0.32971-0.2475-0.72359-0.3458-1.8232-0.45499-3.4505-2.5951-3.4505-4.5379 0-2.2938 1.0425-3.5764 4.0365-4.9662l2.0833-0.96704 0.62722-3.7523c0.34496-2.0638 0.67619-3.9396 0.73605-4.1685 0.0863-0.32982 0.54701-0.12293 2.2198 0.99674 3.7524 2.5116 7.7564 4.2235 12.433 5.3155 3.0841 0.7202 10.434 0.93945 13.672 0.40787 1.2891-0.21162 2.3621-0.36914 2.3846-0.35004 0.0224 0.0191-0.3542 2.3199-0.83701 5.1128-0.48282 2.793-0.88083 5.3125-0.88448 5.599-5e-3 0.38132 0.39376 0.70919 1.488 1.224 2.5224 1.1866 3.5143 3.5433 2.5518 6.0634-0.56817 1.4877-1.4239 2.1918-3.9878 3.2807l-2.071 0.87959-1.0856 6.3856c-0.59707 3.5121-1.083 6.6206-1.0799 6.9079 4e-3 0.3678 0.37328 0.691 1.2481 1.0923 1.4482 0.66435 2.2737 1.6688 2.7089 3.2963 0.66828 2.4986-0.83707 4.7115-4.1127 6.0457l-1.854 0.75517-1.0951 6.3837c-0.60231 3.511-1.1635 6.9592-1.2471 7.6626l-0.152 1.2789 2.436-0.17291c1.3398-0.0951 4.4599-0.4663 6.9334-0.82487z"/>
</svg>
