<?xml version="1.0" encoding="UTF-8" standalone="no"?>
<!DOCTYPE svg PUBLIC "-//W3C//DTD SVG 1.1//EN" "http://www.w3.org/Graphics/SVG/1.1/DTD/svg11.dtd">
<svg xmlns="http://www.w3.org/2000/svg" xmlns:xlink="http://www.w3.org/1999/xlink" version="1.1" width="300pt"
     height="300pt" viewBox="0 0 300 300">
    <g enable-background="new">
        <clipPath id="cp11">
            <path transform="matrix(1,0,0,-1,0,300)" d="M 0 300 L 300 300 L 300 0 L 0 0 Z "/>
        </clipPath>
        <g clip-path="url(#cp11)">
            <path transform="matrix(1,0,0,-1,225.9337,172.6987)"
                  d="M 0 0 C -12.516 -41.87 -56.762 -65.751 -98.632 -53.235 C -140.502 -40.719 -164.384 3.527 -151.867 45.397 C -139.352 87.267 -95.105 111.148 -53.235 98.633 C -11.365 86.116 12.516 41.87 0 0 M 46.438 9.634 L 18.516 22.669 C 18.52 29.19 17.849 35.633 16.541 41.903 L 41.236 60.337 C 43.137 61.755 43.489 64.827 42.058 67.48 L 26.256 96.757 C 24.824 99.409 22.062 100.801 19.834 99.99 L -9.129 89.463 C -13.652 93.998 -18.67 98.094 -24.124 101.669 L -19.696 132.165 C -19.355 134.511 -21.278 136.934 -24.167 137.797 L -56.041 147.324 C -58.93 148.188 -61.866 147.219 -62.869 145.07 L -75.904 117.147 C -82.426 117.152 -88.868 116.481 -95.139 115.173 L -113.572 139.869 C -114.99 141.769 -118.062 142.122 -120.716 140.689 L -149.991 124.889 C -152.645 123.457 -154.035 120.694 -153.226 118.467 L -142.698 89.504 C -147.232 84.979 -151.329 79.963 -154.904 74.509 L -185.4 78.937 C -187.746 79.276 -190.168 77.354 -191.031 74.466 L -200.56 42.591 C -201.423 39.702 -200.454 36.766 -198.306 35.763 L -170.383 22.729 C -170.388 16.207 -169.717 9.765 -168.408 3.494 L -193.104 -14.939 C -195.004 -16.358 -195.356 -19.43 -193.925 -22.083 L -178.124 -51.359 C -176.691 -54.013 -173.93 -55.403 -171.701 -54.593 L -142.739 -44.065 C -138.215 -48.6 -133.196 -52.694 -127.743 -56.27 L -132.171 -86.768 C -132.512 -89.113 -130.589 -91.536 -127.7 -92.399 L -95.826 -101.928 C -92.938 -102.791 -90.001 -101.821 -88.998 -99.673 L -75.962 -71.748 C -69.441 -71.752 -62.999 -71.084 -56.729 -69.776 L -38.295 -94.472 C -36.877 -96.371 -33.805 -96.725 -31.152 -95.293 L -1.876 -79.491 C .777 -78.06 2.168 -75.297 1.358 -73.069 L -9.17 -44.106 C -4.635 -39.583 -.538 -34.565 3.037 -29.111 L 33.532 -33.539 C 35.879 -33.879 38.301 -31.957 39.164 -29.068 L 48.692 2.807 C 49.556 5.695 48.586 8.632 46.438 9.634 "
                  fill="#C2B698"/>
            <path transform="matrix(1,0,0,-1,192.8888,162.8207)"
                  d="M 0 0 C -7.081 -23.687 -32.022 -37.148 -55.709 -30.068 C -79.396 -22.987 -92.858 1.954 -85.777 25.642 C -78.697 49.328 -53.755 62.79 -30.068 55.709 C -6.382 48.629 7.08 23.687 0 0 M -23.737 76.89 C -59.064 87.449 -96.397 67.3 -106.957 31.973 C -117.518 -3.355 -97.368 -40.688 -62.04 -51.248 C -26.713 -61.809 10.619 -41.658 21.18 -6.331 C 31.74 28.997 11.591 66.329 -23.737 76.89 "
                  fill="#C2B698"/>
        </g>
    </g>
</svg>
