<?xml version="1.0" standalone="no"?>
<!DOCTYPE svg PUBLIC "-//W3C//DTD SVG 20010904//EN"
 "http://www.w3.org/TR/2001/REC-SVG-20010904/DTD/svg10.dtd">
<svg version="1.0" xmlns="http://www.w3.org/2000/svg"
 width="74.000000pt" height="74.000000pt" viewBox="0 0 74.000000 74.000000"
 preserveAspectRatio="xMidYMid meet">
<metadata>
Created by potrace 1.11, written by Peter Selinger 2001-2013
</metadata>
<g transform="translate(0.000000,74.000000) scale(0.100000,-0.100000)"
fill="#000000" stroke="none">
<path d="M322 646 c-81 -27 -144 -94 -158 -167 -4 -19 -16 -44 -27 -56 -19
-21 -19 -24 -4 -41 9 -10 23 -39 31 -64 18 -61 59 -113 114 -146 38 -22 61
-27 136 -30 50 -3 94 -9 97 -14 3 -5 12 5 19 22 8 20 16 27 20 19 18 -29 31
34 28 143 l-3 113 -81 3 c-72 2 -83 5 -87 22 -3 11 -10 20 -16 20 -7 0 -11
-30 -11 -85 0 -69 3 -85 15 -85 8 0 15 7 15 15 0 10 11 15 35 15 34 0 35 -1
35 -40 0 -35 -4 -42 -27 -51 -57 -21 -143 16 -180 78 -44 75 -24 162 51 217
21 16 42 21 90 21 53 0 68 -4 100 -28 l37 -29 -3 64 c-3 58 -5 64 -32 77 -42
20 -143 23 -194 7z m198 -425 c0 -5 -17 -13 -39 -19 -65 -20 -150 -10 -159 18
-4 12 -2 13 9 4 9 -8 32 -9 66 -5 32 5 57 3 63 -3 7 -7 10 -6 10 2 0 6 7 9 17
5 11 -4 14 -3 9 5 -5 8 -2 10 8 6 9 -3 16 -9 16 -13z"/>
<path d="M610 353 c0 -236 -1 -253 -18 -253 -10 0 -28 -7 -40 -16 -21 -14 -25
-14 -40 -1 -10 8 -49 17 -98 21 -155 12 -229 59 -276 175 -12 32 -27 59 -33
59 -14 1 -9 -17 29 -100 64 -140 108 -171 279 -194 119 -16 197 -12 197 10 0
8 7 19 15 26 22 18 22 462 0 500 -13 22 -14 -4 -15 -227z"/>
<path d="M551 133 c-7 -8 -11 -16 -8 -19 2 -2 10 2 17 11 17 20 9 27 -9 8z"/>
</g>
</svg>
