<svg xmlns="http://www.w3.org/2000/svg" version="1.1" width="420pt" viewBox="0 -60 420 950"
     style="width:100%;">
    <g id="chapter1" class="chapter">
        <rect width="40.84322" height="75.851692" x="7.7796607" y="240.52119" rx="10" ry="10" stroke="#000"
              fill="#111" opacity="0.7"/>
        <text class="label" x="30" y="278">Intro</text>
    </g>
    <g id="chapter2" class="chapter">
        <rect width="215.8856" height="263.21188" x="7.7796607" y="327.39407" rx="10" ry="10" stroke="#000"
              fill="#111" opacity="0.7"/>
        <text class="label" x="20" y="585">The Merchant</text>
    </g>
    <g id="chapter3" class="chapter">
        <rect width="160.13135" height="151.70338" x="5.8347459" y="7.1313553" rx="10" ry="10" stroke="#000"
              fill="#111" opacity="0.7"/>
        <text class="label" x="15" y="22">Demon and Rift</text>
    </g>
    <g id="chapter4" class="chapter">
        <rect width="86.872887" height="103.72881" x="122.52966" y="201.62288" rx="10" ry="10" stroke="#000"
              fill="#111" opacity="0.7"/>
        <text class="label" x="134.40273" y="300">Sewers</text>
    </g>
    <g id="chapter5" class="chapter">
        <rect width="92.707626" height="99.190681" x="252.83899" y="18.152542" rx="10" ry="10" stroke="#000"
              fill="#111" opacity="0.7"/>
        <text class="label" x="272" y="112">Rebellion Rises</text>
    </g>
    <g id="chapter6" class="chapter">
        <rect width="93" height="51.216106" x="284" y="129.01271" rx="10" ry="10" stroke="#000"
              fill="#111" opacity="0.7"/>
        <text class="label" x="307" y="175">Under Oceans</text>
    </g>
    <g id="chapter7" class="chapter">
        <rect width="93" height="71.31356" x="284" y="186.71187" rx="10" ry="10" stroke="#000"
              fill="#111" opacity="0.7"/>
        <text class="label" x="295" y="203.71637">Through</text>
        <text class="label" x="295" y="216.71637">Jungles</text>
    </g>
    <g id="chapter8" class="chapter">
        <rect width="93" height="52.512714" x="284" y="272.28815" rx="10" ry="10" stroke="#000"
              fill="#111" opacity="0.7"/>
        <text class="label" x="312" y="320">Atop Mountains</text>
    </g>
    <g id="chapter9" class="chapter">
        <rect width="106" height="43.43644" x="251" y="381.2034" rx="10" ry="10" stroke="#000"
              fill="#111" opacity="0.7"/>
        <text class="label" x="316" y="420">Dragons</text>
    </g>
    <g id="chapter10" class="chapter">
        <rect width="129" height="114.10169" x="251" y="477.15253" rx="10" ry="10" stroke="#000"
              fill="#111" opacity="0.7"/>
        <text class="label" x="263.83911" y="585">Voice</text>
    </g>

    <g id="edge46-51" class="edge edge46">
        <path class="line" d="M 366.0172986 297.7036574 L 402.6909376 297.7036574 L 402.6909376 255.5433545"/>
        <path class="arrow"
              d="M 402.6909376 251.7681269 L 405.207756 256.8017636 L 402.6909376 255.5433545 L 400.1741192 256.8017636 L 402.6909376 251.7681269 Z"/>
    </g>
    <g id="edge1-2" class="edge edge1">
        <path class="line" d="M 26.24682004 268.2209281 L 26.24682004 281.9771381"/>
        <path class="arrow"
              d="M 26.24682004 285.7523657 L 23.73000168 280.718729 L 26.24682004 281.9771381 L 28.7636384 280.718729 L 26.24682004 285.7523657 Z"/>
    </g>
    <g id="node1" class="scenario">
        <circle cx="37.39272992" cy="257.4345637" r="10.8" class="node"/>
        <text x="25" y="253.12001">1</text>
    </g>
    <g id="edge2-4" class="edge edge2">
        <path class="line" d="M 37.03318444 297.7180393 L 52.95385829 298.2645484"/>
        <path class="arrow"
              d="M 56.72189492 298.3939848 L 51.6091582 300.7382213 L 52.95385829 298.2645484 L 51.78174003 295.7045846 L 56.72189492 298.3939848 Z"/>
    </g>
    <g id="edge2-3" class="edge edge2">
        <path class="line" d="M 26.60636552 308.4900218 L 25.22571088 411.7730564"/>
        <path class="arrow"
              d="M 25.17537451 415.548284 L 22.73046525 410.4858836 L 25.22571088 411.7730564 L 27.76410197 410.5506018 L 25.17537451 415.548284 Z"/>
    </g>
    <g id="node2" class="scenario">
        <circle cx="37.06045564" cy="296.9982021" r="10.8" class="node"/>
        <text x="24" y="293.3891">2</text>
    </g>
    <g id="edge4-6" class="edge edge4">
        <path class="line" d="M 68.3136412 309.2091128 L 68.3136412 334.1112327"/>
        <path class="arrow"
              d="M 68.3136412 337.8864603 L 65.79682284 332.8528236 L 68.3136412 334.1112327 L 70.83045956 332.8528236 L 68.3136412 337.8864603 Z"/>
    </g>
    <g id="node4" class="scenario">
        <circle cx="79.1000056" cy="298.4227484" r="10.8" class="node"/>
        <text x="66" y="294.1082">4</text>
    </g>
    <g id="edge3-8" class="edge edge3">
        <path class="line" d="M 35.954548 427.1400302 L 68.3136412 427.1400302 L 68.3136412 415.4260385"/>
        <path class="arrow"
              d="M 68.3136412 410.3924018 L 70.83045956 412.9092201 L 68.3136412 415.4260385 L 65.79682284 412.9092201 L 68.3136412 410.3924018 Z"/>
    </g>
    <g id="edge3-9" class="edge edge3">
        <path class="line" d="M 35.954548 427.1400302 L 68.3136412 427.1400302 L 68.3136412 440.2922039"/>
        <path class="arrow"
              d="M 68.3136412 445.3258406 L 65.79682284 442.8090223 L 68.3136412 440.2922039 L 70.83045956 442.8090223 L 68.3136412 445.3258406 Z"/>
    </g>
    <g id="node3" class="scenario">
        <circle cx="35.954548" cy="427.1400302" r="10.8" class="node"/>
        <text x="23" y="422.82548">3</text>
        <text x="23" y="422.82548" class="blocked">×</text>
    </g>
    <g id="edge8-7" class="edge edge8">
        <path class="line" d="M 75.82814173 406.473356 L 113.3143535 445.4121315"/>
        <path class="arrow"
              d="M 115.9318446 448.1302954 L 110.6321442 446.253468 L 113.3143535 445.4121315 L 114.2563626 442.7586859 L 115.9318446 448.1302954 Z"/>
    </g>
    <g id="edge8-14" class="edge edge8">
        <path class="line" d="M 76.22364176 391.1854822 L 97.49435236 297.8546665"/>
        <path class="arrow"
              d="M 98.33568878 294.1729208 L 99.67319797 299.6380121 L 97.49435236 297.8546665 L 94.76180671 298.5234211 L 98.33568878 294.1729208 Z"/>
    </g>
    <g id="edge8-13" class="edge edge8">
        <path class="line" d="M 79.1000056 399.0954828 L 109.0357623 399.0954828"/>
        <path class="arrow"
              d="M 112.8109898 399.0954828 L 107.7773531 401.6123012 L 109.0357623 399.0954828 L 107.7773531 396.5786644 L 112.8109898 399.0954828 Z"/>
    </g>
    <g id="node8" class="scenario">
        <circle cx="79.1000056" cy="399.0954828" r="10.8" class="node"/>
        <text x="66" y="394.7809">8</text>
        <text x="66" y="394.7809" class="blocked">×</text>
    </g>
    <g id="edge9-12" class="edge edge9">
        <path class="line"
              d="M 68.3136412 467.409124 L 68.3136412 532.1273104 L 200.6263778 532.1273104 L 200.6263778 511.7842271"/>
        <path class="arrow"
              d="M 200.6263778 506.7505904 L 203.1431962 509.2674088 L 200.6263778 511.7842271 L 198.1095595 509.2674088 L 200.6263778 506.7505904 Z"/>
    </g>
    <g id="edge9-11" class="edge edge9">
        <path class="line"
              d="M 68.3136412 467.0495785 L 68.3136412 532.1273104 L 200.6263778 532.1273104 L 200.6263778 551.0322117"/>
        <path class="arrow"
              d="M 200.6263778 556.0658485 L 198.1095595 553.5490301 L 200.6263778 551.0322117 L 203.1431962 553.5490301 L 200.6263778 556.0658485 Z"/>
    </g>
    <g id="node9" class="scenario">
        <circle cx="79.1000056" cy="456.6227596" r="10.8" class="node"/>
        <text x="66" y="452.3082">9</text>
        <text x="66" y="452.3082" class="blocked">×</text>
    </g>
    <g id="edge5-10" class="edge edge5">
        <path class="line" d="M 35.954548 133.3913731 L 54.02530382 133.3913731"/>
        <path class="arrow"
              d="M 57.80053136 133.3913731 L 52.76689464 135.9081914 L 54.02530382 133.3913731 L 52.76689464 130.8745547 L 57.80053136 133.3913731 Z"/>
    </g>
    <g id="edge5-19" class="edge edge5">
        <path class="line" d="M 25.1681836 122.9645542 L 25.1681836 102.37698"/>
        <path class="arrow"
              d="M 25.1681836 98.60175244 L 27.68500196 103.6353892 L 25.1681836 102.37698 L 22.65136524 103.6353892 L 25.1681836 98.60175244 Z"/>
    </g>
    <g id="edge5-14" class="edge edge5">
        <path class="line" d="M 33.07818416 140.9418282 L 88.79335174 270.4860646"/>
        <path class="arrow"
              d="M 90.28906094 273.952083 L 85.988897 270.3278646 L 88.79335174 270.4860646 L 90.61265187 268.3359826 L 90.28906094 273.952083 Z"/>
    </g>
    <g id="node5" class="scenario">
        <circle cx="35.954548" cy="133.7509186" r="10.8" class="node"/>
        <text x="23" y="129.43636">5</text>
    </g>
    <g id="edge6-8" class="edge edge6">
        <path class="line" d="M 68.3136412 360.264571 L 68.3136412 383.728509"/>
        <path class="arrow"
              d="M 68.3136412 387.5037365 L 65.79682284 382.4700998 L 68.3136412 383.728509 L 70.83045956 382.4700998 L 68.3136412 387.5037365 Z"/>
    </g>
    <g id="node6" class="scenario">
        <circle cx="79.1000056" cy="349.4782066" r="10.8" class="node"/>
        <text x="66" y="345.16365">6</text>
    </g>
    <g id="edge10-21" class="edge edge10">
        <path class="line" d="M 69.39227764 122.6050087 L 69.75182312 56.35515854"/>
        <path class="arrow"
              d="M 69.75182312 52.579931 L 72.26864148 57.61356772 L 69.75182312 56.35515854 L 67.23500476 57.61356772 L 69.75182312 52.579931 Z"/>
    </g>
    <g id="edge10-22" class="edge edge10">
        <path class="line" d="M 76.94273272 140.9418282 L 94.72585216 169.590412"/>
        <path class="arrow"
              d="M 96.71773412 172.8047486 L 91.92139742 169.8492848 L 94.72585216 169.590412 L 96.19998863 167.1958391 L 96.71773412 172.8047486 Z"/>
    </g>
    <g id="node10" class="scenario">
        <circle cx="80.53818752" cy="133.7509186" r="10.8" class="node"/>
        <text x="66" y="129.43636">10</text>
        <text x="67" y="129.43636" class="blocked">×</text>
    </g>
    <g id="edge19-27" class="edge edge19">
        <path class="line" d="M 25.3911018 75.86409628 L 25.88008365 56.35515854"/>
        <path class="arrow"
              d="M 25.97356548 52.579931 L 28.36094746 57.67109499 L 25.88008365 56.35515854 L 23.32731074 57.54884953 L 25.97356548 52.579931 Z"/>
    </g>
    <g id="node19" class="scenario">
        <circle cx="35.954548" cy="87.01000616" r="10.8" class="node"/>
        <text x="22" y="82.69546">19</text>
        <text x="20.134547" y="82.69546" class="required">!</text>
    </g>
    <g id="node14" class="scenario">
        <circle cx="109.3018259" cy="282.6027473" r="10.8" class="node"/>
        <text x="95" y="278.2882">14</text>
    </g>
    <g id="edge7-20" class="edge edge7">
        <path class="line" d="M 135.1891005 456.2632141 L 157.2148566 456.2632141"/>
        <path class="arrow"
              d="M 160.9900841 456.2632141 L 155.9564474 458.7800325 L 157.2148566 456.2632141 L 155.9564474 453.7463958 L 160.9900841 456.2632141 Z"/>
    </g>
    <g id="node7" class="scenario">
        <circle cx="135.1891005" cy="456.6227596" r="10.8" class="node"/>
        <text x="122.24545" y="452.3082">7</text>
        <text x="122.24545" y="452.3082" class="required">!</text>
    </g>
    <g id="edge13-20" class="edge edge13">
        <path class="line" d="M 135.1891005 399.0954828 L 172.5818304 399.0954828 L 172.5818304 439.9326584"/>
        <path class="arrow"
              d="M 172.5818304 444.9662951 L 170.065012 442.4494768 L 172.5818304 439.9326584 L 175.0986488 442.4494768 L 172.5818304 444.9662951 Z"/>
    </g>
    <g id="edge13-17" class="edge edge13">
        <path class="line" d="M 135.1891005 399.0954828 L 184.2958221 399.0954828"/>
        <path class="arrow"
              d="M 189.3294589 399.0954828 L 186.8126405 401.6123012 L 184.2958221 399.0954828 L 186.8126405 396.5786644 L 189.3294589 399.0954828 Z"/>
    </g>
    <g id="node13" class="scenario">
        <circle cx="135.1891005" cy="399.0954828" r="10.8" class="node"/>
        <text x="120.8" y="394.7809">13</text>
    </g>
    <g id="edge20-28" class="edge edge20">
        <path class="line" d="M 165.3909208 463.8136692 L 154.9712928 481.3379159"/>
        <path class="arrow"
              d="M 153.3101927 484.7248343 L 153.2670472 479.0943521 L 154.9712928 481.3379159 L 157.7829384 481.3091523 L 153.3101927 484.7248343 Z"/>
    </g>
    <g id="edge20-16" class="edge edge20">
        <path class="line" d="M 183.3681948 456.2632141 L 258.6066819 456.2632141"/>
        <path class="arrow"
              d="M 262.3819095 456.2632141 L 257.3482728 458.7800325 L 258.6066819 456.2632141 L 257.3482728 453.7463958 L 262.3819095 456.2632141 Z"/>
    </g>
    <g id="node20" class="scenario">
        <circle cx="183.395466" cy="456.2768497" r="10.8" class="node"/>
        <text x="168" y="452.3082">20</text>
        <text x="167.54819" y="452.3082" class="required">!</text>
    </g>
    <g id="edge20-18" class="edge edge20">
        <path class="line"
              d="M 237.3000168 456.6227596 L 237.3000168 316.4000224 L 190.5591044 316.4000224 L 190.5591044 298.6888121"/>
        <path class="arrow"
              d="M 190.5591044 294.9135845 L 193.0759228 299.9472212 L 190.5591044 298.6888121 L 188.042286 299.9472212 L 190.5591044 294.9135845 Z"/>
    </g>
    <g id="edge11-18" class="edge edge11">
        <path class="line"
              d="M 211.4127422 567.3627674 L 237.3000168 567.3627674 L 237.3000168 316.4000224 L 190.5591044 316.4000224 L 190.5591044 298.6888121"/>
        <path class="arrow"
              d="M 190.5591044 294.9135845 L 193.0759228 299.9472212 L 190.5591044 298.6888121 L 188.042286 299.9472212 L 190.5591044 294.9135845 Z"/>
    </g>
    <g id="edge11-16" class="edge edge11">
        <path class="line"
              d="M 211.4127422 567.3627674 L 237.3000168 567.3627674 L 237.3000168 456.6227596 L 258.6066819 456.6227596"/>
        <path class="arrow"
              d="M 262.3819095 456.6227596 L 257.3482728 459.139578 L 258.6066819 456.6227596 L 257.3482728 454.1059412 L 262.3819095 456.6227596 Z"/>
    </g>
    <g id="node11" class="scenario">
        <circle cx="211.4400134" cy="567.376403" r="10.8" class="node"/>
        <text x="198" y="563.0482">11</text>
        <text x="198" y="563.0482" class="blocked">×</text>
    </g>
    <g id="edge12-28" class="edge edge12">
        <path class="line" d="M 189.8400134 495.094126 L 163.4997116 495.094126"/>
        <path class="arrow"
              d="M 159.724484 495.094126 L 164.7581208 492.5773076 L 163.4997116 495.094126 L 164.7581208 497.6109443 L 159.724484 495.094126 Z"/>
    </g>
    <g id="edge12-16" class="edge edge12">
        <path class="line"
              d="M 211.4127422 495.4536714 L 211.4127422 494.7345805 L 237.3000168 494.7345805 L 237.3000168 456.6227596 L 258.6066819 456.6227596"/>
        <path class="arrow"
              d="M 262.3819095 456.6227596 L 257.3482728 459.139578 L 258.6066819 456.6227596 L 257.3482728 454.1059412 L 262.3819095 456.6227596 Z"/>
    </g>
    <g id="edge12-18" class="edge edge12">
        <path class="line"
              d="M 211.4127422 495.4536714 L 237.3000168 494.7345805 L 237.3000168 316.4000224 L 190.5591044 316.4000224 L 190.5591044 298.6888121"/>
        <path class="arrow"
              d="M 190.5591044 294.9135845 L 193.0759228 299.9472212 L 190.5591044 298.6888121 L 188.042286 299.9472212 L 190.5591044 294.9135845 Z"/>
    </g>
    <g id="node12" class="scenario">
        <circle cx="211.4400134" cy="495.1077616" r="10.8" class="node"/>
        <text x="197" y="491.1391">12</text>
        <text x="198" y="491.1391" class="blocked">×</text>
    </g>
    <g id="edge18-43" class="edge edge18">
        <path class="line" d="M 201.3454688 283.3218382 L 236.3148622 283.3218382"/>
        <path class="arrow"
              d="M 240.0900897 283.3218382 L 235.056453 285.8386566 L 236.3148622 283.3218382 L 235.056453 280.8050199 L 240.0900897 283.3218382 Z"/>
    </g>
    <g id="edge23-26" class="edge edge23">
        <path class="line" d="M 180.491831 221.8395612 L 158.4660749 221.8395612"/>
        <path class="arrow"
              d="M 154.6908473 221.8395612 L 159.724484 219.3227428 L 158.4660749 221.8395612 L 159.724484 224.3563795 L 154.6908473 221.8395612 Z"/>
    </g>
    <g id="edge18-23" class="edge edge18">
        <path class="line" d="M 190.5591044 272.1759284 L 191.0840408 237.206535"/>
        <path class="arrow"
              d="M 191.1415681 233.4313074 L 193.5792864 238.5008987 L 191.0840408 237.206535 L 188.5456497 238.4217987 L 191.1415681 233.4313074 Z"/>
    </g>
    <g id="edge18-14" class="edge edge18">
        <path class="line" d="M 179.77274 283.3218382 L 113.8824353 282.6458927"/>
        <path class="arrow"
              d="M 110.1072078 282.6099382 L 115.1624172 280.1434562 L 113.8824353 282.6458927 L 115.1120809 285.1770929 L 110.1072078 282.6099382 Z"/>
    </g>
    <g id="node18" class="scenario">
        <circle cx="201.3454688" cy="283.3218382" r="10.8" class="node"/>
        <text x="187" y="279">18</text>
    </g>
    <g id="node28" class="scenario">
        <circle cx="158.9191022" cy="495.4536714" r="10.8" class="node"/>
        <text x="143.5" y="491.1391">28</text>
        <text x="143.09909" y="491.1391" class="required">!</text>
    </g>
    <g id="node17" class="scenario">
        <circle cx="211.4127422" cy="399.0954828" r="10.8" class="node"/>
        <text x="197" y="394.7809">17</text>
    </g>
    <g id="node43" class="scenario">
        <circle cx="262.4682004" cy="283.3218382" r="10.8" class="node"/>
        <text x="246.5" y="279">43</text>
        <text x="246" y="279" class="required">!</text>
    </g>
    <g id="edge26-22" class="edge edge26">
        <path class="line" d="M 135.1891005 214.1956243 L 113.8752444 193.3347955"/>
        <path class="arrow"
              d="M 111.1714624 190.6957317 L 116.5286901 192.4071682 L 113.8752444 193.3347955 L 113.0195262 196.0170048 L 111.1714624 190.6957317 Z"/>
    </g>
    <g id="node26" class="scenario">
        <circle cx="153.9127366" cy="221.8531968" r="10.8" class="node"/>
        <text x="138.5" y="217.88455">26</text>
        <text x="138.06546" y="217.88455" class="required">!</text>
    </g>
    <g id="node27" class="scenario">
        <circle cx="37.06045564" cy="41" r="10.8" class="node"/>
        <text x="22" y="36.673639">27</text>
        <text x="24" y="36.673639" class="blocked">×</text>
    </g>
    <g id="node21" class="scenario">
        <circle cx="80.20591324" cy="41" r="10.8" class="node"/>
        <text x="66" y="36.673639">21</text>
        <text x="67" y="36.673639" class="blocked">×</text>
    </g>
    <g id="edge22-35" class="edge edge22">
        <path class="line"
              d="M 102.8300073 171.8627394 L 102.8300073 86.2909152 L 138.0654643 86.2909152 L 138.0654643 57.31874042"/>
        <path class="arrow"
              d="M 138.0654643 52.2851037 L 140.5822827 54.80192206 L 138.0654643 57.31874042 L 135.548646 54.80192206 L 138.0654643 52.2851037 Z"/>
    </g>
    <g id="node22" class="scenario">
        <circle cx="113.6163717" cy="182.6491038" r="10.8" class="node"/>
        <text x="98.5" y="178.33455">22</text>
    </g>
    <g id="edge31-43" class="edge edge31">
        <path class="line" d="M 251.3222905 249.5245631 L 251.6099269 267.5953189"/>
        <path class="arrow"
              d="M 251.6674542 271.3705465 L 249.0715358 266.3800552 L 251.6099269 267.5953189 L 254.1051725 266.3009552 L 251.6674542 271.3705465 Z"/>
    </g>
    <g id="edge31-38" class="edge edge31">
        <path class="line" d="M 262.1086549 238.7381987 L 291.3253206 238.7381987"/>
        <path class="arrow"
              d="M 295.1005482 238.7381987 L 290.0669114 241.2550171 L 291.3253206 238.7381987 L 290.0669114 236.2213804 L 295.1005482 238.7381987 Z"/>
    </g>
    <g id="edge31-39" class="edge edge31">
        <path class="line" d="M 258.7217365 246.5834811 L 295.8771664 286.442693"/>
        <path class="arrow"
              d="M 298.451512 289.2040023 L 293.1805753 287.240884 L 295.8771664 286.442693 L 296.862321 283.8036292 L 298.451512 289.2040023 Z"/>
    </g>
    <g id="edge31-37" class="edge edge31">
        <path class="line" d="M 257.0534455 229.5985526 L 298.537803 163.3127479"/>
        <path class="arrow"
              d="M 300.5440667 160.1127932 L 300.0047485 165.7145117 L 298.537803 163.3127479 L 295.7405391 163.0466843 L 300.5440667 160.1127932 Z"/>
    </g>
    <g id="node31" class="scenario">
        <circle cx="262.4682004" cy="238.7381987" r="10.8" class="node"/>
        <text x="247.5" y="234.42365">31</text>
        <text x="246.6482" y="234.42365" class="required">!</text>
    </g>
    <g id="edge35-45" class="edge edge35">
        <path class="line" d="M 148.8518287 40.98818472 L 282.3366836 40.98818472"/>
        <path class="arrow"
              d="M 286.1119112 40.98818472 L 281.0782744 43.50500308 L 282.3366836 40.98818472 L 281.0782744 38.47136636 L 286.1119112 40.98818472 Z"/>
    </g>
    <g id="edge22-31" class="edge edge22">
        <path class="line" d="M 113.6163717 182.6491038 L 251.681836 182.6491038 L 251.681836 223.3712249"/>
        <path class="arrow"
              d="M 251.681836 227.1464524 L 249.1650176 222.1128157 L 251.681836 223.3712249 L 254.1986544 222.1128157 L 251.681836 227.1464524 Z"/>
    </g>
    <g id="edge22-36" class="edge edge22">
        <path class="line"
              d="M 102.8300073 171.8627394 L 102.8300073 86.2909152 L 138.0654643 86.2909152 L 138.0654643 117.4203629"/>
        <path class="arrow"
              d="M 138.0654643 122.4539996 L 135.548646 119.9371812 L 138.0654643 117.4203629 L 140.5822827 119.9371812 L 138.0654643 122.4539996 Z"/>
    </g>
    <g id="node35" class="scenario">
        <circle cx="148.8518287" cy="40.98818472" r="10.8" class="node"/>
        <text x="133.5" y="36.673639">35</text>
        <text x="135.5" y="36.673639" class="blocked">×</text>
        <text x="133.03182" y="36.673639" class="required">!</text>
    </g>
    <g id="node36" class="scenario">
        <circle cx="148.8790999" cy="133.4050087" r="10.8" class="node"/>
        <text x="133.5" y="129.43636">36</text>
        <text x="135.5" y="129.43636" class="blocked">×</text>
        <text x="133.03182" y="129.43636" class="required">!</text>
    </g>
    <g id="edge45-50" class="edge edge45">
        <path class="line" d="M 297.7036574 51.77454912 L 297.7036574 87.01000616 L 288.8660295 87.01000616"/>
        <path class="arrow"
              d="M 283.8323928 87.01000616 L 286.3492112 84.4931878 L 288.8660295 87.01000616 L 286.3492112 89.52682452 L 283.8323928 87.01000616 Z"/>
    </g>
    <g id="edge45-49" class="edge edge45">
        <path class="line" d="M 297.7036574 51.77454912 L 297.7036574 87.01000616 L 307.9794673 87.01000616"/>
        <path class="arrow"
              d="M 313.013104 87.01000616 L 310.4962856 89.52682452 L 307.9794673 87.01000616 L 310.4962856 84.4931878 L 313.013104 87.01000616 Z"/>
    </g>
    <g id="node45" class="scenario">
        <circle cx="308.4900218" cy="40.98818472" r="10.8" class="node"/>
        <text x="292.67" y="36.673639">45</text>
    </g>
    <g id="node49" class="scenario">
        <circle cx="335.1236586" cy="86.66409628" r="10.8" class="node"/>
        <text x="319.27638" y="82.69546">49</text>
    </g>
    <g id="node50" class="scenario">
        <circle cx="283.3491094" cy="87.02364176" r="10.8" class="node"/>
        <text x="267.50184" y="82.69546">50</text>
        <text x="270" y="82.69546" class="blocked">×</text>
    </g>
    <g id="node29" class="scenario">
        <circle cx="106" cy="495.1077616" r="10.8" class="node"/>
        <text x="90.5" y="491.1391">29</text>
    </g>
    <g id="edge37-47" class="edge edge37">
        <path class="line"
              d="M 317.8382043 150.2900106 L 332.2200235 150.2900106 L 330.0627506 150.2900106 L 339.5044149 150.2900106"/>
        <path class="arrow"
              d="M 343.2796425 150.2900106 L 338.2460058 152.806829 L 339.5044149 150.2900106 L 338.2460058 147.7731923 L 343.2796425 150.2900106 Z"/>
    </g>
    <g id="node37" class="scenario">
        <circle cx="317.8382043" cy="150.2900106" r="10.8" class="node"/>
        <text x="302.5" y="145.97545">37</text>
        <text x="302" y="145.97545" class="required">!</text>
    </g>
    <g id="edge38-48" class="edge edge38">
        <path class="line" d="M 317.4786588 238.7381987 L 339.5044149 238.7381987"/>
        <path class="arrow"
              d="M 343.2796425 238.7381987 L 338.2460058 241.2550171 L 339.5044149 238.7381987 L 338.2460058 236.2213804 L 343.2796425 238.7381987 Z"/>
    </g>
    <g id="edge38-44" class="edge edge38">
        <path class="line" d="M 315.2854314 232.2160437 L 342.5533606 211.9664423"/>
        <path class="arrow"
              d="M 345.5807336 209.7156876 L 343.0423425 214.7349425 L 342.5533606 211.9664423 L 340.0365423 210.6936513 L 345.5807336 209.7156876 Z"/>
    </g>
    <g id="node38" class="scenario">
        <circle cx="317.8382043" cy="238.7381987" r="10.8" class="node"/>
        <text x="302.5" y="234.42365">38</text>
    </g>
    <g id="edge39-46" class="edge edge39">
        <path class="line" d="M 317.1191134 297.7036574 L 339.5044149 297.7036574"/>
        <path class="arrow"
              d="M 343.2796425 297.7036574 L 338.2460058 300.2204758 L 339.5044149 297.7036574 L 338.2460058 295.1868391 L 343.2796425 297.7036574 Z"/>
    </g>
    <g id="edge39-15" class="edge edge39">
        <path class="line"
              d="M 306.332749 308.4900218 L 306.332749 349.4782066 L 242.3336535 349.4782066 C 242.3336535 342.9344788 232.2663801 342.9344788 232.2663801 349.4782066 L 187.9488042 349.4782066"/>
        <path class="arrow"
              d="M 184.1735767 349.4782066 L 189.2072134 346.9613882 L 187.9488042 349.4782066 L 189.2072134 351.9950249 L 184.1735767 349.4782066 Z"/>
    </g>
    <g id="node39" class="scenario">
        <circle cx="317.1191134" cy="297.7036574" r="10.8" class="node"/>
        <text x="301.7" y="293.3891">39</text>
    </g>
    <g id="node15" class="scenario">
        <circle cx="183.3681948" cy="349.4782066" r="10.8" class="node"/>
        <text x="169" y="345.16365">15</text>
    </g>
    <g id="edge13-15" class="edge edge13">
        <path class="line" d="M 135.1891005 399.0954828 L 172.5818304 399.0954828 L 172.5818304 365.8087623"/>
        <path class="arrow"
              d="M 172.5818304 360.7751255 L 175.0986488 363.2919439 L 172.5818304 365.8087623 L 170.065012 363.2919439 L 172.5818304 360.7751255 Z"/>
    </g>
    <g id="edge28-29" class="edge edge28">
        <path class="line" d="M 137.3463734 495.094126 L 110.2869805 495.094126"/>
        <path class="arrow"
              d="M 106.511753 495.094126 L 111.5453897 492.5773076 L 110.2869805 495.094126 L 111.5453897 497.6109443 L 106.511753 495.094126 Z"/>
    </g>
    <g id="node23" class="scenario">
        <circle cx="202.0645598" cy="222.1991066" r="10.8" class="node"/>
        <text x="187" y="217.88455">23</text>
    </g>
    <g id="edge48-51" class="edge edge48">
        <path class="line" d="M 365.6577532 238.9826896 L 387.3239638 239.4716715"/>
        <path class="arrow"
              d="M 391.0991913 239.5579624 L 386.0152182 241.9597262 L 387.3239638 239.4716715 L 386.1230819 236.9260895 L 391.0991913 239.5579624 Z"/>
    </g>
    <g id="node48" class="scenario">
        <circle cx="365.6850244" cy="238.7518343" r="10.8" class="node"/>
        <text x="350.1973" y="234.42365">48</text>
    </g>
    <g id="node44" class="scenario">
        <circle cx="366.0172986" cy="202.7836507" r="10.8" class="node"/>
        <text x="350.1973" y="198.4691">44</text>
    </g>
    <g id="node51" class="scenario">
        <circle cx="413.5045732" cy="239.8304708" r="10.8" class="node"/>
        <text x="398.5" y="235.86183">51</text>
        <text x="397.6573" y="235.86183" class="required">!</text>
    </g>
    <g id="node46" class="scenario">
        <circle cx="365.6850244" cy="297.717293" r="10.8" class="node"/>
        <text x="350.1973" y="293.3891">46</text>
    </g>
    <g id="edge47-51" class="edge edge47">
        <path class="line" d="M 366.0172986 150.2900106 L 402.6909376 150.2900106 L 402.6909376 224.8094068"/>
        <path class="arrow"
              d="M 402.6909376 228.5846344 L 400.1741192 223.5509976 L 402.6909376 224.8094068 L 405.207756 223.5509976 L 402.6909376 228.5846344 Z"/>
    </g>
    <g id="node47" class="scenario">
        <circle cx="365.6850244" cy="150.3036462" r="10.8" class="node"/>
        <text x="350.1973" y="145.97545">47</text>
    </g>
    <g id="node16" class="scenario">
        <circle cx="284.7600202" cy="456.6227596" r="10.8" class="node"/>
        <text x="270.5" y="452.3082">16</text>
    </g>
    <g id="node24" class="scenario">
        <circle cx="284.7600202" cy="535" r="10.8" class="node"/>
        <text x="269.4" y="530.6891">24</text>
    </g>
    <g id="edge16-24" class="edge edge16">
        <path class="line" d="M 273.9736558 467.0495785 L 273.9736558 519.6367004"/>
        <path class="arrow"
              d="M 273.9736558 523.411928 L 271.4568374 518.3782912 L 273.9736558 519.6367004 L 276.4904741 518.3782912 L 273.9736558 523.411928 Z"/>
    </g>
    <g id="node25" class="scenario">
        <circle cx="284.7600202" cy="399.0954828" r="10.8" class="node"/>
        <text x="269.4" y="394.7809">25</text>
    </g>
    <g id="edge16-25" class="edge edge16">
        <path class="line" d="M 273.9736558 445.4768497 L 273.9736558 414.1029111"/>
        <path class="arrow"
              d="M 273.9736558 410.3276836 L 276.4904741 415.3613203 L 273.9736558 414.1029111 L 271.4568374 415.3613203 L 273.9736558 410.3276836 Z"/>
    </g>
    <g id="node30" class="scenario">
        <circle cx="319.2763862" cy="567.3627674" r="10.8" class="node"/>
        <text x="304" y="563.0482">30</text>
    </g>
    <g id="edge24-30" class="edge edge24">
        <path class="line" d="M 281.91242 542.3024475 L 297.2937756 556.8424667"/>
        <path class="arrow"
              d="M 300.0335122 559.4311942 L 294.6475209 557.8060486 L 297.2937756 556.8424667 L 298.1063484 554.1458756 L 300.0335122 559.4311942 Z"/>
    </g>
    <g id="node32" class="scenario">
        <circle cx="319.2763862" cy="494.7345805" r="10.8" class="node"/>
        <text x="304" y="490.42">32</text>
    </g>
    <g id="edge24-32" class="edge edge24">
        <path class="line" d="M 280.9344563 526.7628918 L 298.5090393 506.0530722"/>
        <path class="arrow"
              d="M 300.9467577 503.1767084 L 299.6092485 508.6417996 L 298.5090393 506.0530722 L 295.7764937 505.3843176 L 300.9467577 503.1767084 Z"/>
    </g>
    <g id="node42" class="scenario">
        <circle cx="371.7972975" cy="567.376403" r="10.8" class="node"/>
        <text x="355.94999" y="563.0482">42</text>
        <text x="358" y="563.0482" class="blocked">×</text>
    </g>
    <g id="edge30-42" class="edge edge30">
        <path class="line" d="M 319.2763862 567.3627674 L 345.6166881 567.3627674"/>
        <path class="arrow"
              d="M 349.3919156 567.3627674 L 344.3582789 569.8795858 L 345.6166881 567.3627674 L 344.3582789 564.8459491 L 349.3919156 567.3627674 Z"/>
    </g>
    <g id="node40" class="scenario">
        <circle cx="371.7700263" cy="494.7345805" r="10.8" class="node"/>
        <text x="356.5" y="490.42">40</text>
        <text x="355.94999" y="490.42" class="required">!</text>
    </g>
    <g id="edge32-40" class="edge edge32">
        <path class="line" d="M 319.2763862 494.375035 L 345.6166881 494.375035"/>
        <path class="arrow"
              d="M 349.3919156 494.375035 L 344.3582789 496.8918534 L 345.6166881 494.375035 L 344.3582789 491.8582166 L 349.3919156 494.375035 Z"/>
    </g>
    <g id="node33" class="scenario">
        <circle cx="344.4445698" cy="458.0609415" r="10.8" class="node"/>
        <text x="329" y="453.7464">33</text>
        <text x="331" y="453.7464" class="blocked">×</text>
    </g>
    <g id="edge25-33" class="edge edge25">
        <path class="line" d="M 281.6032108 406.3654924 L 322.4331956 447.1954771"/>
        <path class="arrow"
              d="M 325.101023 449.8633046 L 319.7653681 448.0871499 L 322.4331956 447.1954771 L 323.3248683 444.5276497 L 325.101023 449.8633046 Z"/>
    </g>
    <g id="edge32-33" class="edge edge32">
        <path class="line" d="M 308.4900218 483.9482161 L 322.713641 469.1996605"/>
        <path class="arrow"
              d="M 325.3311321 466.4814967 L 323.6484593 471.8531061 L 322.713641 469.1996605 L 320.0314317 468.3583241 L 325.3311321 466.4814967 Z"/>
    </g>
    <g id="node41" class="scenario">
        <circle cx="371.7972975" cy="535.7364008" r="10.8" class="node"/>
        <text x="357" y="531.4082">41</text>
        <text x="358" y="531.4082" class="blocked">×</text>
    </g>
    <g id="edge40-41" class="edge edge40">
        <path class="line" d="M 360.9836619 505.1613994 L 360.9836619 520.3557914"/>
        <path class="arrow"
              d="M 360.9836619 524.1310189 L 358.4668436 519.0973822 L 360.9836619 520.3557914 L 363.5004803 519.0973822 L 360.9836619 524.1310189 Z"/>
    </g>
    <g id="node34" class="scenario">
        <circle cx="341.5954772" cy="398.7495729" r="10.8" class="node"/>
        <text x="326" y="394.7809">34</text>
        <text x="328" y="394.7809" class="blocked">×</text>
    </g>
    <g id="edge25-34" class="edge edge25">
        <path class="line" d="M 284.7600202 399.0954828 L 315.4148678 398.8581828"/>
        <path class="arrow"
              d="M 319.1900953 398.8294191 L 314.1780313 401.3821921 L 315.4148678 398.8581828 L 314.1348859 396.3485553 L 319.1900953 398.8294191 Z"/>
    </g>
    <g id="edge4-5" class="edge edge4">
        <path class="line" d="M 68.3136412 287.636384 L 26.49131097 148.9237378"/>
        <path class="arrow"
              d="M 25.39829271 145.3067103 L 29.25981116 149.3983378 L 26.49131097 148.9237378 L 24.44190173 150.8509016 L 25.39829271 145.3067103 Z"/>
    </g>
    <g id="edge18-26" class="edge edge18">
        <path class="line" d="M 183.9722312 274.4194922 L 154.2881564 236.242953"/>
        <path class="arrow"
              d="M 151.9654926 233.2587256 L 157.0422748 235.689253 L 154.2881564 236.2429531 L 153.0728927 238.7813442 L 151.9654926 233.2587256 Z"/>
    </g>
    <g>
        <!--chapter11-->
        <rect opacity="0.7" fill="#111" stroke="#000" ry="10" rx="10" y="610" x="7.279667" height="124" width="172"/>
        <text y="727.999908" x="111" class="label">Personal Quests</text>
        <g id="node52" class="scenario">
            <circle cx="37.39273" cy="630" r="10.8" class="node"/>
            <text x="22" y="626">52</text>
        </g>
        <g id="edge52-53" class="edge edge52">
            <path class="line" d="m26.24682,640.8l0,19"/>
            <path class="arrow"
                  d="m26.24682,660.75237l-2.51682,-5.03364l2.51682,2.25841l2.51682,-2.25841l-2.51682,5.03364z"/>
        </g>
        <g id="node53" class="scenario">
            <circle cx="37.39273" cy="672.218729" r="10.8" class="node"/>
            <text x="22" y="668.218729">53</text>
        </g>
        <g id="edge53-54" class="edge edge53">
            <path class="line" d="m25.746827,683l0,19"/>
            <path class="arrow" d="m25.746827,703l-2.51682,-5l2.51682,3l2.51682,-3l-2.51682,5z"/>
        </g>
        <g id="node54" class="scenario">
            <circle cx="36.892737" cy="714.5" r="10.8" class="node"/>
            <text x="21.500007" y="710.5">54</text>
        </g>
        <g id="node55" class="scenario">
            <circle cx="70.069538" cy="630" r="10.8" class="node"/>
            <text x="54.676808" y="626">55</text>
        </g>
        <g id="edge55-56" class="edge edge55">
            <path class="line" d="m58.92363,640.8l0,19"/>
            <path class="arrow"
                  d="m58.92363,660.75237l-2.51682,-5.03364l2.51682,2.25841l2.51682,-2.25841l-2.51682,5.03364z"/>
        </g>
        <g id="node56" class="scenario">
            <circle cx="70.069538" cy="672.218729" r="10.8" class="node"/>
            <text x="54.676808" y="668.218729">56</text>
        </g>
        <g id="node57" class="scenario">
            <circle cx="103.085922" cy="630" r="10.8" class="node"/>
            <text x="87.693192" y="626">57</text>
        </g>
        <g id="edge57-58" class="edge edge57">
            <path class="line" d="m91.94001,640.8l0,19"/>
            <path class="arrow"
                  d="m91.94001,660.75237l-2.51682,-5.03364l2.51682,2.25841l2.51682,-2.25841l-2.51682,5.03364z"/>
        </g>
        <g id="node58" class="scenario">
            <circle cx="103.085922" cy="672.218729" r="10.8" class="node"/>
            <text x="87.693192" y="668.218729">58</text>
        </g>
        <g id="node59" class="scenario">
            <circle cx="135.802798" cy="630" r="10.8" class="node"/>
            <text x="120.410068" y="626">59</text>
        </g>
        <g id="edge59-60" class="edge edge59">
            <path class="line" d="m124.65689,640.8l0,19"/>
            <path class="arrow"
                  d="m124.65689,660.75237l-2.51682,-5.03364l2.51682,2.25841l2.51682,-2.25841l-2.51682,5.03364z"/>
        </g>
        <g id="node60" class="scenario">
            <circle cx="135.802798" cy="672.218729" r="10.8" class="node"/>
            <text x="120.410068" y="668.218729">60</text>
        </g>
        <g id="node61" class="scenario">
            <circle cx="168.61267" cy="630" r="10.8" class="node"/>
            <text x="154" y="626">61</text>
        </g>
        <g id="edge61-62" class="edge edge61">
            <path class="line" d="m157.46676,640.8l0,19"/>
            <path class="arrow"
                  d="m157.46676,660.75237l-2.51682,-5.03364l2.51682,2.25841l2.51682,-2.25841l-2.51682,5.03364z"/>
        </g>
        <g id="node62" class="scenario">
            <circle cx="168.61267" cy="672.218729" r="10.8" class="node"/>
            <text x="153.219941" y="668.218729">62</text>
        </g>
    </g>
    <g>
        <!--chapter12-->
        <rect stroke="#000" width="172" height="87.14994" x="207.776065" y="609.60058" rx="10" ry="10" fill="#111"
              opacity="0.7"/>
        <text class="label" x="305" y="690.489558">Random Scenarios</text>
        <g id="node63" class="scenario">
            <circle cx="238.513976" cy="630.516895" r="10.8" class="node"/>
            <text x="223.121246" y="626.516895">63</text>
        </g>
        <g id="node68" class="scenario">
            <circle cx="238.513976" cy="663.06484" r="10.8" class="node"/>
            <text x="223.121246" y="659.06484">68</text>
        </g>
        <g id="node64" class="scenario">
            <circle cx="271.190784" cy="630.999987" r="10.8" class="node"/>
            <text x="255.798054" y="626.999987">64</text>
            <text x="255.798054" y="626.999987" class="required">!</text>
        </g>
        <g id="node69" class="scenario">
            <circle cx="271.190784" cy="663.06484" r="10.8" class="node"/>
            <text x="255.798054" y="659.06484">69</text>
        </g>
        <g id="node65" class="scenario">
            <circle cx="304.207168" cy="630.999987" r="10.8" class="node"/>
            <text x="288.814438" y="626.999987">65</text>
        </g>
        <g id="node70" class="scenario">
            <circle cx="304.207168" cy="662.581748" r="10.8" class="node"/>
            <text x="288.814438" y="658.581748">70</text>
        </g>
        <g id="node66" class="scenario">
            <circle cx="336.924044" cy="630.999987" r="10.8" class="node"/>
            <text x="321.531314" y="626.999987">66</text>
        </g>
        <g id="node71" class="scenario">
            <circle cx="336.924044" cy="663.06484" r="10.8" class="node"/>
            <text x="323" y="659.06484">71</text>
        </g>
        <g id="node67" class="scenario">
            <circle cx="369.733916" cy="630.999987" r="10.8" class="node"/>
            <text x="355.121246" y="626.999987">67</text>
        </g>
    </g>
    <g>
        <!--chapter14-->
        <rect stroke="#000" width="137.103769" height="54.983941" x="9.061485" y="819.849663" rx="10" ry="10"
              fill="#111" opacity="0.7"/>
        <text class="label" x="19.000013" y="868.510082">Road Events</text>
        <g id="node80" class="scenario">
            <circle cx="37.51274" cy="839.645697" r="10.8" class="node"/>
            <text x="22.12001" y="835.645697">80</text>
        </g>
        <g id="node82" class="scenario">
            <circle cx="70.189548" cy="840.128789" r="10.8" class="node"/>
            <text x="54.796818" y="836.128789">82</text>
        </g>
        <g id="node85" class="scenario">
            <circle cx="103.205932" cy="840.128789" r="10.8" class="node"/>
            <text x="87.813202" y="836.128789">85</text>
        </g>
        <g id="node90" class="scenario">
            <circle cx="135.922808" cy="840.128789" r="10.8" class="node"/>
            <text x="120.530078" y="836.128789">90</text>
        </g>
    </g>
    <g>
        <!--chapter13-->
        <rect stroke="#000" width="172" height="55.483939" x="7.910828" y="749.117152" rx="10" ry="10" fill="#111"
              opacity="0.7"/>
        <text class="label" x="17.498748" y="799.054016">Sealed</text>
        <g id="node72" class="scenario">
            <circle cx="37.51274" cy="768.617537" r="10.8" class="node"/>
            <text x="22.5" y="764.617537">72</text>
        </g>
        <g id="node73" class="scenario">
            <circle cx="70.189548" cy="769.100629" r="10.8" class="node"/>
            <text x="54.796818" y="765.100629">73</text>
        </g>
        <g id="node76" class="scenario">
            <circle cx="103.205932" cy="769.100629" r="10.8" class="node"/>
            <text x="87.813202" y="765.100629">76</text>
        </g>
        <g id="node77" class="scenario">
            <circle cx="135.922808" cy="769.100629" r="10.8" class="node"/>
            <text x="121" y="765.100629">77</text>
        </g>
        <g id="node84" class="scenario">
            <circle cx="168.73268" cy="769.100629" r="10.8" class="node"/>
            <text x="153.5" y="765.100629">84</text>
        </g>
    </g>
    <g>
        <!--chapter15-->
        <rect width="172" height="141.744948" x="207.776065" y="711.520852" rx="10" ry="10" fill="#111" opacity="0.7"
              stroke="#000"/>
        <text class="label" x="332.396494" y="849.26465">City Events</text>
        <g id="node74" class="scenario">
            <circle cx="238.513976" cy="729.020593" r="10.8" class="node"/>
            <text x="223.121246" y="725.020593">74</text>
        </g>
        <g id="node75" class="scenario">
            <circle cx="271.190784" cy="729.503685" r="10.8" class="node"/>
            <text x="255.798054" y="725.503685">75</text>
        </g>
        <g id="node83" class="scenario">
            <circle cx="238.513976" cy="761.27313" r="10.8" class="node"/>
            <text x="223.121246" y="757.568539">83</text>
        </g>
        <g id="node88" class="scenario">
            <circle cx="271.190784" cy="761.568539" r="10.8" class="node"/>
            <text x="255.798054" y="757.568539">88</text>
            <text x="255.798054" y="757.568539" class="required">!</text>
        </g>
        <g id="node78" class="scenario">
            <circle cx="304.207168" cy="729.503685" r="10.8" class="node"/>
            <text x="288.814438" y="725.503685">78</text>
        </g>
        <g id="node89" class="scenario">
            <circle cx="304.207168" cy="761.085447" r="10.8" class="node"/>
            <text x="288.814438" y="757.085447">89</text>
        </g>
        <g id="node79" class="scenario">
            <circle cx="336.924044" cy="729.503685" r="10.8" class="node"/>
            <text x="322" y="725.503685">79</text>
        </g>
        <g class="scenario" id="node91">
            <circle cx="336.924044" cy="761.568539" r="10.8" class="node"/>
            <text x="321.531314" y="757.568539">91</text>
        </g>
        <g class="scenario" id="node81">
            <circle cx="369.733916" cy="729.503685" r="10.8" class="node"/>
            <text x="355" y="725.503685">81</text>
        </g>
        <g class="scenario" id="node92">
            <circle cx="369.673471" cy="761.80161" r="10.8" class="node"/>
            <text x="354.280741" y="757.80161">92</text>
        </g>
        <g class="edge edge86" id="edge86-87">
            <path class="line" d="m227.63663,804.38177l0,19"/>
            <path class="arrow" d="m227.63663,824.38177l-2.51682,-5l2.51682,3l2.51682,-3l-2.51682,5z"/>
        </g>
        <g class="scenario" id="node86">
            <circle cx="238.513976" cy="793.814358" r="10.8" class="node"/>
            <text x="223.121246" y="789.814358">86</text>
        </g>
        <g class="scenario" id="node87">
            <circle cx="238.782534" cy="835.881771" r="10.8" class="node"/>
            <text x="223.121246" y="831.881771">87</text>
            <text x="223.121246" y="831.881771" class="required">!</text>
        </g>
        <g class="edge edge94" id="edge94-95">
            <path class="line" d="m260.893706,804.38177l0,19"/>
            <path class="arrow" d="m260.893706,824.38177l-2.51682,-5l2.51682,3l2.51682,-3l-2.51682,5z"/>
        </g>
        <g class="scenario" id="node94">
            <circle cx="271.521534" cy="793.814358" r="10.8" class="node"/>
            <text x="255.798054" y="789.814358">94</text>
        </g>
        <g class="scenario" id="node95">
            <circle cx="271.290405" cy="835.881771" r="10.8" class="node"/>
            <text x="255.798054" y="831.881771">95</text>
        </g>
        <g class="scenario" id="node93">
            <circle cx="304.207168" cy="794.084078" r="10.8" class="node"/>
            <text x="288.814438" y="789.814358">93</text>
        </g>
    </g>
</svg>
